<svg xmlns="http://www.w3.org/2000/svg" width="67" height="65" viewBox="0 0 67 65"><g><g><g><path fill="#fff" d="M15.268 57.279v5.69h36.468v-5.69zm-4.043-36.278h16.811a3.97 3.97 0 0 0 2.816-1.172 3.977 3.977 0 0 0 1.172-2.816V6.02a3.977 3.977 0 0 0-1.172-2.816 3.97 3.97 0 0 0-2.816-1.172H6.491a3.97 3.97 0 0 0-2.815 1.172A3.977 3.977 0 0 0 2.504 6.02v10.994c0 1.095.449 2.092 1.172 2.816a3.97 3.97 0 0 0 2.815 1.172c.542 0 .98.442.98.983v2.363l3.06-3.056a.974.974 0 0 1 .694-.29zm16.763 2.964c.497.5 1.187.812 1.955.812h5.768a.98.98 0 0 1 .979.983c0 .542-.438.98-.98.98h-5.767c-1.31 0-2.49-.535-3.343-1.395a4.77 4.77 0 0 1-1.283-2.382H11.633l-4.444 4.444a.982.982 0 0 1-1.68-.69v-3.835a5.914 5.914 0 0 1-3.22-1.666 5.918 5.918 0 0 1-1.747-4.203V6.02a5.93 5.93 0 0 1 1.747-4.203A5.933 5.933 0 0 1 6.492.069h21.544c1.64 0 3.127.671 4.203 1.747a5.93 5.93 0 0 1 1.747 4.203v1.817h16.67c1.302 0 2.482.53 3.339 1.388a4.708 4.708 0 0 1 1.387 3.338v9.452c0 1.302-.53 2.481-1.387 3.338a4.731 4.731 0 0 1-2.36 1.284v3.858c0 .248-.092.5-.285.693a.983.983 0 0 1-1.387 0l-4.448-4.447h-5.36a.982.982 0 1 1 0-1.962h5.768a.97.97 0 0 1 .698.293l3.052 3.052V25.76c0-.545.442-.983.983-.983a2.76 2.76 0 0 0 1.952-.812c.5-.5.812-1.19.812-1.951v-9.452c0-.76-.312-1.45-.812-1.95a2.76 2.76 0 0 0-1.952-.813h-16.67v7.215c0 1.64-.668 3.127-1.747 4.202a5.918 5.918 0 0 1-4.203 1.748h-.683c.138.382.356.723.635 1zM8.179 12.499a.982.982 0 0 1 0-1.962h18.17a.982.982 0 0 1 0 1.962zm0 5.164a.981.981 0 0 1-.979-.984c0-.541.438-.983.98-.983h9.084c.541 0 .983.442.983.983a.985.985 0 0 1-.983.984zm0-10.328a.981.981 0 0 1 0-1.962h18.17a.982.982 0 0 1 0 1.962zM28.578 42.72c-1.024.397-1.93.901-2.575 1.48-.56.497-.905 1.031-.905 1.554v3.98h.382c1.039 0 1.985.423 2.667 1.106a3.773 3.773 0 0 1 .642 4.477h9.422a3.77 3.77 0 0 1-.46-1.81c0-1.043.423-1.985 1.105-2.667a3.759 3.759 0 0 1 2.668-1.106h.378v-3.98c0-.542-.371-1.098-.972-1.614-.705-.604-1.684-1.127-2.775-1.524a6.258 6.258 0 0 1-9.578.104zm-16.63-8.465v-1.31c0-.545-.222-1.038-.582-1.398a1.983 1.983 0 0 0-1.402-.586H5.3c-.542 0-1.039.226-1.399.586-.36.36-.582.853-.582 1.398v5.116c.426.096.816.152 1.172.17.924.045 1.588-.17 2.059-.549.478-.385.793-.964.998-1.62.181-.59.27-1.236.3-1.874a.978.978 0 0 1 1.024-.931.973.973 0 0 1 .63.267c.138.122 1.11.92 2.445.73zm43.104 0c1.31.185 2.266-.575 2.437-.724.193-.163.375-.263.638-.274a.976.976 0 0 1 1.024.93c.033.639.122 1.284.304 1.874.2.657.515 1.235.994 1.621.471.379 1.135.594 2.059.55a7.066 7.066 0 0 0 1.176-.172v-5.115c0-.545-.227-1.039-.586-1.398a1.975 1.975 0 0 0-1.399-.587h-4.663c-.545 0-1.038.227-1.398.587-.36.36-.586.853-.586 1.398zm8.365 5.846zm-.816.085c-1.45.074-2.549-.312-3.376-.98-.82-.656-1.335-1.568-1.643-2.57a8.017 8.017 0 0 1-.197-.794c-.627.26-1.42.457-2.333.379v2.4c0 1.183.486 2.263 1.269 3.045a4.304 4.304 0 0 0 3.049 1.269 4.303 4.303 0 0 0 3.045-1.269 4.34 4.34 0 0 0 1.002-1.565 7.269 7.269 0 0 1-.816.085zm1.929 2c.526.278.99.656 1.372 1.105A4.597 4.597 0 0 1 67 46.273v6.618a.982.982 0 0 1-1.962 0v-6.618a2.65 2.65 0 0 0-.63-1.717 2.695 2.695 0 0 0-1.358-.86 6.215 6.215 0 0 1-3.68 1.201 6.236 6.236 0 0 1-3.791-1.28 1.795 1.795 0 0 0-1.246.708l-5.272 6.982a.985.985 0 0 1-.782.393h-6.755a1.802 1.802 0 0 0-1.81 1.807c0 .5.203.953.53 1.28.326.326.779.53 1.28.53h8.068c.323 0 .57-.033.879-.19.571-.285 1.105-1.153 1.495-1.672l3.49-4.618a.978.978 0 1 1 1.562 1.18l-3.32 4.398v8.554h11.34v-5.634a.981.981 0 0 1 1.962 0v6.617c0 .542-.438.98-.98.98H.984a.982.982 0 0 1-.983-.98v-6.617a.981.981 0 0 1 1.962 0v5.634h11.344v-8.554l-3.324-4.399a.978.978 0 0 1 .193-1.372.978.978 0 0 1 1.373.193l3.412 4.518c.312.411.623.827.935 1.242.178.234.397.412.638.53.27.138.523.19.82.19h8.127a1.802 1.802 0 0 0 1.806-1.81c0-.497-.2-.95-.526-1.28a1.815 1.815 0 0 0-1.28-.527h-6.758a.98.98 0 0 1-.783-.393l-5.271-6.981c-.3-.397-.75-.653-1.246-.709a6.247 6.247 0 0 1-7.47.082 2.69 2.69 0 0 0-1.344.838 2.657 2.657 0 0 0-.646 1.736v6.618a.982.982 0 0 1-1.962 0v-6.618a4.61 4.61 0 0 1 1.128-3.015 4.724 4.724 0 0 1 1.346-1.072 6.224 6.224 0 0 1-1.116-3.565v-5.675c0-1.087.441-2.074 1.157-2.79A3.941 3.941 0 0 1 5.301 29h4.663c1.086 0 2.073.445 2.789 1.157a3.933 3.933 0 0 1 1.157 2.79v5.675a6.235 6.235 0 0 1-1.016 3.416c.53.267.98.635 1.339 1.11l4.974 6.587h3.929v-3.98c0-1.127.597-2.148 1.565-3.012.75-.668 1.736-1.25 2.827-1.71a6.231 6.231 0 0 1-.482-2.411v-5.676A3.948 3.948 0 0 1 30.992 29h7.627c.542 0 .983.441.983.983v8.639c0 .805-.156 1.576-.434 2.289 1.172.46 2.233 1.053 3.035 1.743 1.027.883 1.661 1.936 1.661 3.101v3.98h3.928l4.975-6.588a3.757 3.757 0 0 1 1.343-1.105 6.23 6.23 0 0 1-1.02-3.42v-5.676A3.949 3.949 0 0 1 57.037 29h4.662a3.949 3.949 0 0 1 3.947 3.946v5.676c0 1.276-.39 2.515-1.116 3.565zm-35.522-6.551v2.986c0 1.183.486 2.262 1.268 3.045a4.29 4.29 0 0 0 6.09 0 4.302 4.302 0 0 0 1.27-3.045v-2.986zm0-1.963h8.628v-2.711h-6.644c-.545 0-1.042.226-1.402.586-.36.36-.582.853-.582 1.398zM3.583 40.101zm1.005 1.565a4.296 4.296 0 0 0 3.046 1.269 4.302 4.302 0 0 0 3.045-1.269 4.302 4.302 0 0 0 1.269-3.045v-2.4a4.944 4.944 0 0 1-2.33-.379 8.03 8.03 0 0 1-.2.794c-.308 1.002-.823 1.914-1.64 2.57-.827.669-1.925 1.054-3.379.98-.26-.011-.53-.04-.816-.085a4.303 4.303 0 0 0 1.005 1.565z"/></g></g></g></svg>