<svg xmlns="http://www.w3.org/2000/svg" width="68" height="68" viewBox="0 0 68 68"><g><g><g><path fill="#fff" d="M61.966 57.751a1.133 1.133 0 0 1-1.13-1.13v-1.83l-1.677-.839a1.059 1.059 0 0 1-.276-1.698l1.29-1.289h5.187v5.655c0 .624-.508 1.131-1.131 1.131zm-3.393 7.918h-7.917v-3.21a3.826 3.826 0 0 1 2.62-3.634l-.716-2.146a6.083 6.083 0 0 0-3.036 2.246 6.085 6.085 0 0 0-3.036-2.246l-.715 2.146a3.826 3.826 0 0 1 2.621 3.634v3.21h-7.917v-11.31h16.12c.307.69.845 1.264 1.551 1.617l.425.212zm-22.78-25.57a5.64 5.64 0 0 1-2.695.687 5.593 5.593 0 0 1-3.98-1.649l-8.531-8.53 2.925-2.925 8.118 8.119 1.049 2.098 2.023-1.013-.753-1.507c1.073-.965 3.447-2.932 5.754-3.7.796-.265 1.672-.468 2.581-.641L44.333 42.3l5.192-6.49 5.193 6.49 2.037-11.205 2.195.273a7.357 7.357 0 0 1 4.266 2.087 7.27 7.27 0 0 1 2.144 5.174v10.073h-4.525v-9.71c0-.719.292-1.423.8-1.931l-1.6-1.6a4.957 4.957 0 0 0-1.462 3.53v10.374l-1.289 1.29c-.406.405-.68.903-.832 1.44H40.477V38.992c0-1.333-.52-2.587-1.462-3.53l-1.6 1.6c.46.459.73 1.081.78 1.728zM12.203 26.082c0-.623.507-1.131 1.13-1.131h1.83l.535-1.07a2.144 2.144 0 0 1 1.929-1.192c.567 0 1.123.23 1.524.63l2.762 2.763-3.393 3.393h-5.186a1.133 1.133 0 0 1-1.131-1.131zm35.906 7.879L45.67 37.01l-1.181-6.491c.295-.125.572-.277.831-.46zm1.417-6.748a9.04 9.04 0 0 0 2.302-.308c.047.498.17.97.367 1.41l-2.669 3.738-2.704-3.786c.2-.426.334-.883.392-1.365.74.197 1.511.31 2.312.31zm-6.786-9.048v-3.43a18.258 18.258 0 0 0 8.95-3.032 14.795 14.795 0 0 0 4.622 2.746v3.716a6.793 6.793 0 0 1-6.786 6.786 6.793 6.793 0 0 1-6.786-6.786zm-4.524-5.297c0-1.97.978-3.798 2.617-4.892l.565-.376.13-.326a7.827 7.827 0 0 1 7.303-4.944h1.39a7.828 7.828 0 0 1 7.303 4.945l.13.326.565.377a5.864 5.864 0 0 1 2.617 4.89 4.952 4.952 0 0 1-1.958 3.938l-.304.22v-4.2l-1.13-.377a12.492 12.492 0 0 1-4.855-3.001l-.693-.693-.786.588a15.94 15.94 0 0 1-9.5 3.167h-1.132v4.516l-.286-.207a4.96 4.96 0 0 1-1.976-3.95zm15.459 17.269c.268.193.559.354.867.486l-1.161 6.385-2.438-3.047zm11.142 1.719a9.622 9.622 0 0 0-5.585-2.732l-3.2-.4a2.265 2.265 0 0 1-1.982-2.244v-.49a9.067 9.067 0 0 0 4.347-6.045l1.822-1.317a7.236 7.236 0 0 0 2.88-5.76 8.123 8.123 0 0 0-3.614-6.766A10.074 10.074 0 0 0 50.22.07h-1.39a10.074 10.074 0 0 0-9.263 6.034 8.121 8.121 0 0 0-3.615 6.766 7.245 7.245 0 0 0 2.897 5.773l1.805 1.304A9.067 9.067 0 0 0 45 25.99v.371c0 1.12-.82 2.08-1.908 2.233a23.389 23.389 0 0 0-4.106.94c-2.604.87-5.135 2.906-6.399 4.027l-9.076-9.077-2.762-2.762a4.387 4.387 0 0 0-3.124-1.294 4.394 4.394 0 0 0-3.857 2.262h-.436a3.397 3.397 0 0 0-3.394 3.393v2.262a3.397 3.397 0 0 0 3.394 3.393h5.186l9 9a7.84 7.84 0 0 0 5.58 2.31 7.898 7.898 0 0 0 3.777-.963l1.339-.73v26.576h22.62v-8.126c.356.127.733.209 1.131.209h2.263a3.397 3.397 0 0 0 3.393-3.394V38.63a9.517 9.517 0 0 0-2.806-6.773z"/></g><g><path fill="#fff" d="M23.406 63.69h-8.217l2.231-9.885 3.435.693a3.192 3.192 0 0 1 2.55 3.119zM2.199 57.616a3.192 3.192 0 0 1 2.551-3.119l3.434-.696 2.232 9.887H2.199zm4.241-8.772v-.195c.333.118.687.195 1.06.195h.45c.315.718.794 1.339 1.376 1.849-.268.462-.689.814-1.162.951l-.958.194a6.308 6.308 0 0 1-.766-2.994zm1.06-2.121c-.584 0-1.06-.476-1.06-1.06 0-.585.476-1.06 1.06-1.06zm5.302-10.603a6.368 6.368 0 0 1 6.362 6.362v.195a3.145 3.145 0 0 0-1.06-.195v-1.06h-1.06c-1.224 0-2.45-.29-3.544-.837l-.698-.35-.697.35a7.966 7.966 0 0 1-3.544.836h-1.06v1.06c-.374 0-.728.077-1.06.196v-.195a6.368 6.368 0 0 1 6.361-6.362zm5.302 8.482c.584 0 1.06.476 1.06 1.06 0 .585-.476 1.061-1.06 1.061zm-3.892 13.785l-1.198 5.301h-.424l-1.197-5.301zm.478-2.121h-3.776l-.754-3.338a4.247 4.247 0 0 0 1.01-1.187c.518.17 1.06.284 1.632.284.574 0 1.116-.115 1.634-.284.261.448.6.848 1.01 1.176zm1.293-9.543a3.185 3.185 0 0 1-3.18 3.181 3.185 3.185 0 0 1-3.182-3.181v-3.238c1.1-.118 2.18-.417 3.181-.884 1.002.466 2.082.766 3.181.884zm1.538 4.941a2.11 2.11 0 0 1-1.24-.972 5.31 5.31 0 0 0 1.373-1.848h.45c.373 0 .727-.077 1.06-.195v.195a6.314 6.314 0 0 1-.766 2.996zm3.753.755l-.73-.146a8.435 8.435 0 0 0 .741-3.43v-6.361c0-4.677-3.806-8.483-8.483-8.483-4.677 0-8.482 3.806-8.482 8.483v6.362c0 1.194.263 2.353.74 3.428l-.73.147a5.318 5.318 0 0 0-4.252 5.197v8.193h25.448v-8.193c0-2.514-1.788-4.7-4.252-5.197z"/></g><g><path fill="#fff" d="M6.44 4.31h14.845v2.121H6.44z"/></g><g><path fill="#fff" d="M6.44 8.552h10.604v2.12H6.44z"/></g><g><path fill="#fff" d="M19.164 8.552h2.121v2.12h-2.12z"/></g><g><path fill="#fff" d="M4.32 4.31c0-1.169.95-2.12 2.12-2.12h14.845c1.17 0 2.12.951 2.12 2.12v6.539a1.947 1.947 0 0 1-1.944 1.944h-2.297v3.803c0 .358-.497.563-.75.31l-4.112-4.113H6.264A1.947 1.947 0 0 1 4.32 10.85zm1.944 10.604h7.16l3.491 3.492c.484.483 1.126.75 1.81.75a2.563 2.563 0 0 0 2.56-2.56v-1.682h.176a4.07 4.07 0 0 0 4.065-4.065V4.31A4.246 4.246 0 0 0 21.285.069H6.44A4.246 4.246 0 0 0 2.2 4.311v6.538a4.07 4.07 0 0 0 4.065 4.065z"/></g></g></g></svg>