<svg xmlns="http://www.w3.org/2000/svg" width="843.853" height="227.836" viewBox="0 0 843.853 227.836"><defs><style>.a{isolation:isolate;}.b{fill:#129393;}</style></defs><g class="a" transform="translate(0)"><g class="a" transform="translate(0 0)"><path class="b" d="M350.38,494.678h-1.892c-13.245,40.752-47.3,59.275-104.063,59.275H76.033c-76.627,0-111.63,25.006-114.468,105.582-.947,6.483-6.622,12.041-13.244,12.041h-8.515c-6.622,0-12.3-6.483-12.3-12.966,2.838-88.911,41.625-138,140.011-138H244.425c59.6,0,86.089-19.45,88.926-64.831.947-6.483,6.622-12.041,13.244-12.041h6.623c5.676,0,11.352,5.558,12.3,12.041,2.838,45.381,29.327,64.831,88.926,64.831H631.35c98.386,0,137.173,49.087,140.012,138,0,6.483-5.677,12.966-12.3,12.966h-8.514a12.4,12.4,0,0,1-12.3-12.041c-3.783-80.575-38.787-105.582-115.414-105.582H454.442C397.681,553.953,363.624,535.43,350.38,494.678Z" transform="translate(72.492 -443.74)"/></g></g></svg>