<svg xmlns="http://www.w3.org/2000/svg" width="99" height="99" viewBox="0 0 99 99"><defs><style>.a{fill:#129393;}.b{fill:#fff;}</style></defs><g transform="translate(-200 -5874)"><circle class="a" cx="49.5" cy="49.5" r="49.5" transform="translate(200 5874)"/><g transform="translate(222.227 5900.002)"><path class="b" d="M399.187,297.352h-5.114a.8.8,0,1,0,0,1.6h5.114a.8.8,0,1,0,0-1.6Z" transform="translate(-351.376 -269.448)"/><path class="b" d="M399.187,328.181h-5.114a.8.8,0,1,0,0,1.6h5.114a.8.8,0,1,0,0-1.6Z" transform="translate(-351.376 -296.993)"/><path class="b" d="M399.187,266.523h-5.114a.8.8,0,1,0,0,1.6h5.114a.8.8,0,1,0,0-1.6Z" transform="translate(-351.376 -241.904)"/><path class="b" d="M275.054,256.769a1.294,1.294,0,0,0-1.292,1.292v.757h-1.875a1.294,1.294,0,0,0-1.292,1.292v.683h-1.88a1.294,1.294,0,0,0-1.292,1.292v3.742a1.187,1.187,0,0,0,1.186,1.186h8.738a1.187,1.187,0,0,0,1.186-1.186v-7.767a1.294,1.294,0,0,0-1.292-1.292Zm-4.46,8.647H269.02v-3.024h1.574Zm3.167,0h-1.569v-5h1.569Zm3.172,0h-1.569c0-5.168-.005-6.811-.005-7.049h1.574v7.049Z" transform="translate(-238.932 -233.189)"/><path class="b" d="M1.965,82.428h13.5a.8.8,0,1,0,0-1.6H7.255V70.1a.8.8,0,0,0-1.6,0V80.83H1.965a.367.367,0,0,1-.367-.367V69.153a5.2,5.2,0,0,1,3-4.686l5.2-2.029,3.092,3.092a6.286,6.286,0,0,0,8.892,0l3.049-3.049V73.057a2.053,2.053,0,0,0,2.05,2.05h.53V80.83h-8.21a.8.8,0,1,0,0,1.6h13.5a1.967,1.967,0,0,0,1.965-1.965V75.107h3.316v2.45a2.5,2.5,0,1,0,1.6,0v-2.45h11.1a2.053,2.053,0,0,0,2.05-2.05V66a.8.8,0,0,0-1.6,0v7.058a.453.453,0,0,1-.452.452h-23.8a.453.453,0,0,1-.452-.452V54.376H51.128V62.27a.8.8,0,0,0,1.6,0V54.376h0a1.822,1.822,0,0,0,1.82-1.82v-1.54a1.822,1.822,0,0,0-1.82-1.82H27.539a3.463,3.463,0,0,0-1.357-2.156,2,2,0,0,0,.12-.679V41.2a2.819,2.819,0,0,0-2.975-2.815.4.4,0,0,1-.441-.293c-.35-1.789-1.474-2.659-3.437-2.659H12.669a5.311,5.311,0,0,0-5.305,5.305v4.945a2.686,2.686,0,0,0,.694,1.8,3.281,3.281,0,0,0,2.069,5.631,7.263,7.263,0,0,0,2.823,4.789V59.49L4.007,62.982l-.013.005A6.756,6.756,0,0,0,0,69.153v11.31a1.967,1.967,0,0,0,1.965,1.965Zm36.81-3.4a.9.9,0,1,1-.9.9A.9.9,0,0,1,38.776,79.024ZM29,75.107h4.059v5.356a.368.368,0,0,1-.367.367H29V75.107ZM15.244,65.285l1.563-1.574,0,0a1.384,1.384,0,0,0,.178-.227h.67a1.363,1.363,0,0,0,.181.23l1.568,1.578a4.685,4.685,0,0,1-4.163,0Zm-.7-5.6c0-.02,0-.041,0-.061V58.8a7.567,7.567,0,0,0,5.56.013v.814c0,.015,0,.03,0,.046l-2.228,2.212H16.765Zm6.165,4.655L19.206,62.82l1.853-1.84,2.168.84Zm4.113-3.61-3.118-1.207v-1.6a7.207,7.207,0,0,0,2.572-3.622,1.812,1.812,0,0,0,.547.084h0Zm27.9-9.932a.222.222,0,0,1,.222.222v1.54a.222.222,0,0,1-.222.222h-27.9a.222.222,0,0,1-.222-.222v-1.54a.222.222,0,0,1,.222-.222ZM25.068,48.22a1.848,1.848,0,0,1,.821.976H24.824a2.223,2.223,0,0,0-.222.013v-.856A2.156,2.156,0,0,0,25.068,48.22Zm-15.01,3.266a1.747,1.747,0,0,1-1.4-1.651,1.851,1.851,0,0,1,.883-1.507,2.7,2.7,0,0,0,.386.047q.066,0,.131,0v3.108Zm0-4.706a1.1,1.1,0,0,1-1.1-1.1V40.736a3.711,3.711,0,0,1,3.707-3.707H19.45c1.48,0,1.722.62,1.868,1.368a2,2,0,0,0,2.132,1.58A1.223,1.223,0,0,1,24.7,41.2v5.161a.429.429,0,0,1-.421.421,1.535,1.535,0,0,1-1.528-1.528.92.92,0,0,0-1.729-.434,3.7,3.7,0,0,1-3.27,1.962h-7.7Zm1.6,5.375V48.378h6.1a5.3,5.3,0,0,0,3.8-1.6A3.146,3.146,0,0,0,23,48.1v4.052a5.675,5.675,0,0,1-11.348,0Zm1.914,8.808,1.87,1.857-1.5,1.509L11.417,61.8Z" transform="translate(0 -35.431)"/></g></g></svg>