<svg xmlns="http://www.w3.org/2000/svg" width="99" height="100" viewBox="0 0 99 100"><defs><style>.a{fill:#129393;}.b{fill:#fff;}</style></defs><g transform="translate(-200 -5733)"><ellipse class="a" cx="49.5" cy="50" rx="49.5" ry="50" transform="translate(200 5733)"/><g transform="translate(223.969 5756.969)"><path class="b" d="M51.165,143.414V141.68a1.734,1.734,0,0,0-1.734-1.734h-.91a14.691,14.691,0,0,0-14.7-13.875,4.341,4.341,0,0,0-4.336-4.336,4.293,4.293,0,0,0-2.6.89V120H25.149v6.07H19.72a6.883,6.883,0,0,0-5.585-5.116,1.692,1.692,0,0,0-1.377.383,1.753,1.753,0,0,0-.617,1.342v4.7a14.747,14.747,0,0,0-7.723,8.229H1.734A1.734,1.734,0,0,0,0,137.344v6.938a1.734,1.734,0,0,0,1.734,1.734H4.423a14.721,14.721,0,0,0,7.718,8.228v3.046a1.734,1.734,0,0,0,1.734,1.734h5.2a1.734,1.734,0,0,0,1.734-1.734v-1.734H31.219v1.734a1.734,1.734,0,0,0,1.734,1.734h5.2a1.734,1.734,0,0,0,1.734-1.734v-3.045a14.682,14.682,0,0,0,8.641-12.564h.9v1.734a1.734,1.734,0,0,0,1.734,1.734h.867v-1.734Zm-21.68-19.945a2.6,2.6,0,1,1-2.6,2.6A2.6,2.6,0,0,1,29.485,123.469Zm9.213,29.4a.868.868,0,0,0-.541.807v3.616h-5.2v-2.6a.867.867,0,0,0-.867-.867H19.946a.867.867,0,0,0-.867.867v2.6h-5.2v-3.616a.868.868,0,0,0-.541-.8,13,13,0,0,1-7.472-7.991.867.867,0,0,0-.824-.6h-3.3v-6.938h3.3a.867.867,0,0,0,.823-.595,13.026,13.026,0,0,1,7.481-7.99.868.868,0,0,0,.541-.807l-.018-5.284a5.229,5.229,0,0,1,4.294,4.391.867.867,0,0,0,.858.745h6.5a4.327,4.327,0,0,0,7.936,0h.371A13.008,13.008,0,0,1,38.7,152.866Zm0,0" transform="translate(0 -106.992)"/><path class="b" d="M91.469,241.734A1.734,1.734,0,0,1,89.734,240H88a3.469,3.469,0,0,0,6.938,0H93.2A1.734,1.734,0,0,1,91.469,241.734Zm0,0" transform="translate(-78.461 -213.984)"/><path class="b" d="M376,75.469c0,1.4,1.28,2.042,2.214,2.511.734.367,1.255.651,1.255.958a.867.867,0,0,1-1.734,0H376a2.6,2.6,0,0,0,1.734,2.442v1.027h1.734V81.379a2.6,2.6,0,0,0,1.734-2.442c0-1.4-1.28-2.042-2.214-2.511-.734-.367-1.255-.651-1.255-.958a.867.867,0,1,1,1.734,0H381.2a2.6,2.6,0,0,0-1.734-2.442V72h-1.734v1.027A2.6,2.6,0,0,0,376,75.469Zm0,0" transform="translate(-335.242 -64.195)"/><path class="b" d="M392,24h1.734v3.469H392Zm0,0" transform="translate(-349.507 -21.398)"/><path class="b" d="M424,32h1.734v1.734H424Zm0,0" transform="translate(-378.038 -28.531)"/><path class="b" d="M424,0h1.734V1.734H424Zm0,0" transform="translate(-378.038)"/><path class="b" d="M360,40h1.734v3.469H360Zm0,0" transform="translate(-320.976 -35.664)"/><path class="b" d="M360,8h1.734V9.734H360Zm0,0" transform="translate(-320.976 -7.133)"/><path class="b" d="M140.336,21.008a4.336,4.336,0,0,0,.867-8.585V8h-1.734v4.423a4.3,4.3,0,0,0-1.734.8V10.6H136v6.07A4.341,4.341,0,0,0,140.336,21.008Zm0-6.938a2.6,2.6,0,1,1-2.6,2.6A2.6,2.6,0,0,1,140.336,14.07Zm0,0" transform="translate(-121.258 -7.133)"/><path class="b" d="M136,0h1.734V1.734H136Zm0,0" transform="translate(-121.258)"/><path class="b" d="M200,32h1.734v1.734H200Zm0,0" transform="translate(-178.32 -28.531)"/><path class="b" d="M200,0h1.734V1.734H200Zm0,0" transform="translate(-178.32)"/><path class="b" d="M232,88h1.734v1.734H232Zm0,0" transform="translate(-206.851 -78.461)"/><path class="b" d="M264,72h1.734v5.2H264Zm0,0" transform="translate(-235.382 -64.195)"/><path class="b" d="M296,56h1.734v1.734H296Zm0,0" transform="translate(-263.914 -49.93)"/><path class="b" d="M296,24h1.734v1.734H296Zm0,0" transform="translate(-263.914 -21.398)"/><path class="b" d="M264,40h1.734v1.734H264Zm0,0" transform="translate(-235.382 -35.664)"/><path class="b" d="M224,217.734h10.406V216H224Zm0,0" transform="translate(-199.718 -192.586)"/><path class="b" d="M296,88h1.734v3.469H296Zm0,0" transform="translate(-263.914 -78.461)"/></g></g></svg>