<svg xmlns="http://www.w3.org/2000/svg" width="99" height="99" viewBox="0 0 99 99"><defs><style>.a{fill:#129393;}.b{fill:#fff;}</style></defs><g transform="translate(-1075 -5874)"><circle class="a" cx="49.5" cy="49.5" r="49.5" transform="translate(1075 5874)"/><path class="b" d="M50.843,29.9V11.153c-.614-14.737-21.784-14.733-22.4,0v8.432a11.306,11.306,0,0,0-10.5,2.468q-.451-.331-.933-.617a7.831,7.831,0,0,0,1.41-2.036,2.513,2.513,0,0,0,3.062-2.437V15.939A11.26,11.26,0,0,0,6.324,1.174a.746.746,0,0,0,.652,1.341A9.758,9.758,0,0,1,20.829,13.067a2.5,2.5,0,0,0-1.1-.7,8.553,8.553,0,1,0-17.019,0,2.5,2.5,0,0,0-1.027.621,9.874,9.874,0,0,1-.156-1.822A9.554,9.554,0,0,1,4.139,4.6.746.746,0,0,0,3.053,3.58,11.036,11.036,0,0,0,.037,11.166a11.2,11.2,0,0,0,.9,4.5l.011.024v1.271A2.515,2.515,0,0,0,4.1,19.38a7.819,7.819,0,0,0,1.413,2.046A11.283,11.283,0,0,0,0,31.028a.746.746,0,0,0,1.491,0A9.665,9.665,0,0,1,4.177,24.37L8.015,27A.748.748,0,0,0,9,26.872l2.27-2.592,2.27,2.592a.748.748,0,0,0,.982.124l.325-.222a10.95,10.95,0,0,0-.567,3.487l-.036,5.612a5.875,5.875,0,0,0,.96,9.73,11.048,11.048,0,0,0-1,4.595.746.746,0,0,0,1.491,0,9.665,9.665,0,0,1,2.686-6.658l3.838,2.625a.748.748,0,0,0,.982-.124l2.27-2.592,2.27,2.592a.748.748,0,0,0,.982.124l3.834-2.623A9.664,9.664,0,0,1,35.213,50.2a.746.746,0,0,0,1.491,0,11.074,11.074,0,0,0-1.01-4.628,5.875,5.875,0,0,0,1.783-1.491.746.746,0,0,0-1.164-.933,4.381,4.381,0,0,1-1.332,1.113,11.282,11.282,0,0,0-3.762-3.649,7.869,7.869,0,0,0,1.4-2.04,2.541,2.541,0,0,0,2.925-1.621,4.376,4.376,0,0,1,1.722,3.471.746.746,0,0,0,1.491,0A5.87,5.87,0,0,0,36.624,35.9V30.265a10.962,10.962,0,0,0-.575-3.514l.358.245a.748.748,0,0,0,.982-.124l2.27-2.592,2.27,2.592a.748.748,0,0,0,.982.124l3.832-2.621a9.7,9.7,0,0,1,2.667,6.654.746.746,0,0,0,1.491,0,11.279,11.279,0,0,0-.057-1.129ZM39.645,1.535a9.673,9.673,0,0,1,9.707,9.618v2.07a2.507,2.507,0,0,0-1.231-.851V11.4C47.653.2,31.566.207,31.1,11.4v.97a2.506,2.506,0,0,0-1.164.769V11.153a9.673,9.673,0,0,1,9.707-9.618ZM39.658,22.4a6.458,6.458,0,0,1-5.9-3.825,2.487,2.487,0,0,0,.593-1.615c0-.1.011-2.444-.012-2.45a10.225,10.225,0,0,0,3.491-.739,7.454,7.454,0,0,0,3.6-3.036,8.21,8.21,0,0,0,3.557,3.272,2.49,2.49,0,0,0-.114.747v2.205a2.483,2.483,0,0,0,.39,1.339,4.851,4.851,0,0,1-3.439.9,2.1,2.1,0,1,0-.052,1.491,8.184,8.184,0,0,0,2.491-.213,6.478,6.478,0,0,1-4.6,1.923ZM46.63,12.372a2.492,2.492,0,0,0-.764.392,7.27,7.27,0,0,1-3.74-3.958.751.751,0,0,0-1.4-.018c-1.486,3.931-5.414,4.276-7.068,4.241a2.5,2.5,0,0,0-1.063-.657V11.4a7.019,7.019,0,0,1,14.036,0v.97ZM31.84,13.752a1.023,1.023,0,0,1,1.022,1.007v2.205a1.014,1.014,0,0,1-2.028,0V14.758A1.008,1.008,0,0,1,31.84,13.752Zm8,6.722a.594.594,0,1,1,0-1.189A.594.594,0,1,1,39.838,20.474Zm6.524-3.51V14.758a1.015,1.015,0,0,1,2.028,0v2.205A1.014,1.014,0,0,1,46.361,16.963ZM29.939,18.581a2.493,2.493,0,0,0,1.9.88h.015a2.494,2.494,0,0,0,.632-.081A7.828,7.828,0,0,0,33.9,21.427a11.31,11.31,0,0,0-.949.627,11.22,11.22,0,0,0-3.01-1.94V18.581ZM11.267,22.4a6.47,6.47,0,0,1-5.9-3.825,2.487,2.487,0,0,0,.593-1.614c0-.809.067-1.644-.012-2.45a10.225,10.225,0,0,0,3.491-.739,7.454,7.454,0,0,0,3.6-3.036,8.21,8.21,0,0,0,3.557,3.272,2.49,2.49,0,0,0-.114.747v2.205a2.482,2.482,0,0,0,.39,1.338,4.852,4.852,0,0,1-3.439.9,2.1,2.1,0,1,0-.052,1.491,8.177,8.177,0,0,0,2.492-.213,6.478,6.478,0,0,1-4.6,1.923Zm.18-1.929a.594.594,0,1,1,0-1.189A.594.594,0,1,1,11.447,20.474ZM20,16.963a1.014,1.014,0,0,1-2.028,0V14.758a1.015,1.015,0,0,1,2.028,0ZM11.221,4.45A6.993,6.993,0,0,1,18.239,11.4v.969a2.492,2.492,0,0,0-.764.392,7.27,7.27,0,0,1-3.74-3.958.751.751,0,0,0-1.4-.018c-1.486,3.931-5.414,4.276-7.068,4.241A2.5,2.5,0,0,0,4.2,12.372V11.4A6.993,6.993,0,0,1,11.221,4.45ZM3.45,17.97a1.008,1.008,0,0,1-1.007-1.007V14.758a1.014,1.014,0,0,1,2.028,0v2.205A1.023,1.023,0,0,1,3.45,17.97Zm4.862,7.422-2.99-2.045a9.7,9.7,0,0,1,1.4-.887,8,8,0,0,0,3.034,1.287Zm5.911,0-1.44-1.644a7.98,7.98,0,0,0,3.026-1.279,9.8,9.8,0,0,1,1.091.666,11.2,11.2,0,0,0-.684.892Zm1.687,18.9a4.378,4.378,0,0,1-.625-7.342,2.5,2.5,0,0,0,2.361,1.682h.015a2.491,2.491,0,0,0,.632-.081A7.82,7.82,0,0,0,19.7,40.6a11.2,11.2,0,0,0-1.872,1.387.745.745,0,0,0-.106.1A11.281,11.281,0,0,0,15.909,44.291Zm9.553-2.718a6.47,6.47,0,0,1-5.9-3.825,2.487,2.487,0,0,0,.593-1.614c0-.1.011-2.444-.012-2.45a10.226,10.226,0,0,0,3.474-.732,7.456,7.456,0,0,0,3.612-3.043,8.21,8.21,0,0,0,3.557,3.272,2.49,2.49,0,0,0-.114.747v2.205a2.483,2.483,0,0,0,.39,1.339,3.918,3.918,0,0,1-2.5.9h-.936a2.1,2.1,0,1,0-.052,1.491,8.321,8.321,0,0,0,2.5-.215,6.442,6.442,0,0,1-4.613,1.924Zm.754-2.333a.608.608,0,0,1-1.18-.19.6.6,0,0,1,.606-.594C26.208,38.455,26.156,38.874,26.216,39.239Zm6.218-7.7a2.493,2.493,0,0,0-.764.392,7.27,7.27,0,0,1-3.74-3.958.751.751,0,0,0-1.4-.018c-1.484,3.926-5.4,4.278-7.068,4.241a2.5,2.5,0,0,0-1.063-.657v-.969a7.019,7.019,0,0,1,14.036,0v.969Zm-14.789,1.38a1.023,1.023,0,0,1,1.022,1.007v2.205a1.014,1.014,0,0,1-2.028,0V33.928A1.008,1.008,0,0,1,17.645,32.921Zm4.861,11.64-2.989-2.045a9.709,9.709,0,0,1,1.4-.887,8,8,0,0,0,3.034,1.287Zm5.911,0L26.98,42.92a7.918,7.918,0,0,0,3.035-1.276,9.915,9.915,0,0,1,1.384.877Zm5.776-8.428a1.014,1.014,0,0,1-2.028,0V33.928a1.015,1.015,0,0,1,2.028,0Zm-.269-4.592v-.969c-.468-11.2-16.555-11.2-17.019,0v.969a2.505,2.505,0,0,0-1.153.756l.013-2.032c.532-12.731,18.838-12.721,19.365,0v2.1a2.507,2.507,0,0,0-1.207-.821Zm2.776-6.15-2.042-1.4q-.309-.446-.66-.859a9.785,9.785,0,0,1,1.107-.674,7.984,7.984,0,0,0,3.036,1.286Zm5.911,0-1.44-1.644A7.983,7.983,0,0,0,44.2,22.469a9.9,9.9,0,0,1,1.394.884Zm4.812-2.44a9.152,9.152,0,0,0-2.016-1.516A7.832,7.832,0,0,0,46.818,19.4a2.524,2.524,0,0,0,2.533-.9V25.36a15.477,15.477,0,0,0-1.927-2.408Z" transform="translate(1099 5897.973)"/></g></svg>