<svg xmlns="http://www.w3.org/2000/svg" width="68" height="68" viewBox="0 0 68 68"><g><g><path d="M17.762 9.733a1.498 1.498 0 0 0-1.334.824l-1.107 2.215-.259-.516a4.136 4.136 0 0 1 .154-4.02l-.346-.209.347.21a4.233 4.233 0 0 1 3.591-2.031c1.564 0 3.015.776 3.883 2.079l.566.848 2.479-1.653-.566-.849a7.628 7.628 0 0 0-3.428-2.815 8.508 8.508 0 0 1 7.108-.113l3.028 1.38c2.82 1.282 4.227 4.488 3.365 7.395l-.962-1.923a1.486 1.486 0 0 0-1.999-.667c-.08.04-.158.088-.228.141l-1.736 1.301a8.209 8.209 0 0 1-4.964 1.655 8.206 8.206 0 0 1-4.962-1.655l-1.737-1.3a1.484 1.484 0 0 0-.893-.297zm-3.663 8.404v1.358h-.666a.679.679 0 1 1-.005-1.358zm22.508 1.358v-1.358h.677a.68.68 0 0 1 0 1.358zm-19.524-3.58l1.212-2.428.308.23a11.163 11.163 0 0 0 6.75 2.252c2.455 0 4.79-.779 6.753-2.252l.307-.23 1.212 2.427v6.156c0 4.561-3.71 8.272-8.271 8.272-4.561 0-8.271-3.71-8.271-8.272zm5.423 18.555v-1.512a11.257 11.257 0 0 0 5.696-.002v1.511l-2.848 2.85zm27.726 6.718a7.98 7.98 0 0 0-2.492-3.527h7.986a.68.68 0 0 1 .677.68v2.847zm-6.033.003V39.08a5.039 5.039 0 0 1 2.742 2.111zm-19.133 1.085l-1.323-1.983.092-.275.467.467c.282.28.655.435 1.053.435.398 0 .772-.154 1.054-.436l.464-.465.09.271-1.322 1.986zm10.456 1.894H65.08v2.847a5.03 5.03 0 0 1-5.018 5.017h-6.101v-2.846c0-.398-.155-.772-.436-1.054a1.485 1.485 0 0 0-1.055-.437h-4.34c-.822 0-1.49.669-1.49 1.49v2.848h-6.1a5.03 5.03 0 0 1-5.02-5.017zm14.098 6.508h1.357v5.006a.688.688 0 0 1-.696.662.68.68 0 0 1-.661-.657zm-25.96-1.371l1.618-4.052h.152l1.62 4.052-1.696 7.352zm11.862 11.406v-7.475a8.017 8.017 0 0 0 5.017 1.779h6.102v.679a3.665 3.665 0 0 0 3.66 3.66 3.665 3.665 0 0 0 3.66-3.66v-.68h6.102c1.825 0 3.608-.639 5.02-1.778v7.475zm-21.693 4.339v-18.44h-2.982v18.44H2.98v-21.2a4.982 4.982 0 0 1 4.192-4.949l13.33-2.22.976.975-.793 2.38a1.49 1.49 0 0 0 .173 1.298l1.734 2.602-1.882 4.697a1.492 1.492 0 0 0-.068.885l3.254 14.099a1.485 1.485 0 0 0 1.792 1.115 1.504 1.504 0 0 0 1.115-1.115l3.253-14.1a1.485 1.485 0 0 0-.069-.885l-1.874-4.696 1.734-2.601a1.5 1.5 0 0 0 .175-1.298l-.795-2.38.976-.976 11.014 1.835v2.671h-6.102a2.582 2.582 0 0 0-2.576 2.575v21.288zm21.693 0v-1.358h29.56v1.358zm29.965 2.979a2.582 2.582 0 0 0 2.575-2.575V43.764a2.582 2.582 0 0 0-2.575-2.576h-6.101V38.34a3.672 3.672 0 0 0-3.659-3.66h-10.85a3.66 3.66 0 0 0-2.507 1.007l-11.187-1.866v-2.144a11.287 11.287 0 0 0 5.415-9.2h.687a3.666 3.666 0 0 0 3.66-3.661 3.667 3.667 0 0 0-3.567-3.659l.35-.813c1.964-4.548-.106-9.919-4.614-11.973l-3.03-1.38a11.462 11.462 0 0 0-4.677-.992c-2.474 0-4.834.775-6.83 2.241l-1.646 1.235a7.112 7.112 0 0 0-4.3 3.267 7.103 7.103 0 0 0-.769 5.42c.125.493.306.974.535 1.43l.787 1.575a3.666 3.666 0 0 0-3.422 3.651 3.667 3.667 0 0 0 3.66 3.662h.684a11.286 11.286 0 0 0 5.416 9.204v2.145L6.684 35.964A7.943 7.943 0 0 0 0 43.854v22.685c0 .399.155.773.436 1.055.281.28.656.437 1.055.437z"/></g></g></svg>