<svg xmlns="http://www.w3.org/2000/svg" width="100" height="101" viewBox="0 0 100 101"><defs><style>.a{fill:#f5ce34;}</style></defs><g transform="translate(-503 -4598)"><ellipse class="a" cx="50" cy="50.5" rx="50" ry="50.5" transform="translate(503 4598)"/><g transform="translate(524.234 4630.093)"><g transform="translate(16.214 0)"><path d="M166.757,112.924l-4.9-2.177a.959.959,0,0,1-.569-.876v-1.345a7.137,7.137,0,0,0,2.7-5.591v-1.893a1.746,1.746,0,0,0,.9-1.526v-.184a7.156,7.156,0,0,0-7.148-7.148h-1.8a7.156,7.156,0,0,0-7.148,7.148V101a1.767,1.767,0,0,0,.673,1.416,1.645,1.645,0,0,0,.228.148v.372a7.137,7.137,0,0,0,2.7,5.591v1.345a.96.96,0,0,1-.569.876l-4.9,2.177a4.45,4.45,0,0,0-2.64,4.063v11.17a.843.843,0,0,0,1.686,0v-11.17a2.759,2.759,0,0,1,.017-.29l2.257,2.257a1.848,1.848,0,0,1,.545,1.315v7.888a.843.843,0,1,0,1.686,0v-7.888a3.522,3.522,0,0,0-1.038-2.507l-2.69-2.69a2.753,2.753,0,0,1,.864-.607l4.815-2.14,3.57,3.57v12.261a.843.843,0,0,0,1.686,0V115.895l3.57-3.57,4.814,2.14a2.752,2.752,0,0,1,.864.607l-2.69,2.69a3.522,3.522,0,0,0-1.038,2.507v7.888a.843.843,0,1,0,1.686,0v-7.888a1.847,1.847,0,0,1,.545-1.315l2.256-2.256a2.755,2.755,0,0,1,.017.29v11.17a.843.843,0,0,0,1.686,0v-11.17A4.45,4.45,0,0,0,166.757,112.924Zm-9.912,1.43-3.133-3.133a2.64,2.64,0,0,0,.373-1.35v-.343a7.142,7.142,0,0,0,5.52,0v.343a2.639,2.639,0,0,0,.373,1.35Zm0-5.956a5.469,5.469,0,0,1-5.462-5.462v-.379a4.983,4.983,0,0,0,1.531-.994.843.843,0,0,0-1.143-1.239,3.027,3.027,0,0,1-1.251.747l-.022,0a.171.171,0,0,1-.014-.076V99.332a5.469,5.469,0,0,1,5.463-5.462h1.8a5.469,5.469,0,0,1,5.462,5.462v.184a.054.054,0,0,1-.038.055c-5.047,1-7.578-.882-8.432-1.736a.843.843,0,1,0-1.192,1.192c2.617,2.617,6.436,2.664,8.761,2.385v1.523A5.469,5.469,0,0,1,156.844,108.4Z" transform="translate(-144.292 -92.184)"/></g><g transform="translate(0 4.504)"><path d="M15.2,143.917v-1.8a6.246,6.246,0,0,0-2.864-5.248,3.545,3.545,0,1,0-6.767,0A6.246,6.246,0,0,0,2.7,142.115v1.8a6.244,6.244,0,0,0,2.7,5.14v1.853a.954.954,0,0,1-.53.858L1.96,153.225A3.526,3.526,0,0,0,0,156.4v7.337a.843.843,0,1,0,1.686,0V156.76l1.373,1.373a1.848,1.848,0,0,1,.545,1.315v4.285a.843.843,0,1,0,1.686,0v-4.285a3.522,3.522,0,0,0-1.038-2.507l-1.911-1.911L2.311,155a1.879,1.879,0,0,1,.4-.272l2.915-1.457a2.682,2.682,0,0,0,.418-.261l2.06,2.061v8.658a.843.843,0,1,0,1.686,0v-8.659l2.061-2.061a2.672,2.672,0,0,0,.418.261l.8.4a.843.843,0,1,0,.754-1.507l-.8-.4a.953.953,0,0,1-.53-.857v-1.853A6.244,6.244,0,0,0,15.2,143.917Zm-6.247-9.966a1.862,1.862,0,0,1,1.859,1.859,1.889,1.889,0,0,1-.029.332,6.247,6.247,0,0,0-3.657,0,1.848,1.848,0,0,1,1.827-2.191Zm0,3.6a4.567,4.567,0,0,1,4.562,4.562v.305a5.29,5.29,0,0,1-5.689-1.712.843.843,0,0,0-1.27-.09A5.513,5.513,0,0,1,4.391,142,4.566,4.566,0,0,1,8.949,137.554Zm0,15.98L7,151.586a2.669,2.669,0,0,0,.088-.676v-1.029a6.259,6.259,0,0,0,3.719,0v1.029a2.668,2.668,0,0,0,.088.676Zm0-5.055a4.567,4.567,0,0,1-4.562-4.562v-.175A6.757,6.757,0,0,0,7.1,142.393a7.6,7.6,0,0,0,1.563,1.138,6.7,6.7,0,0,0,3.221.831,7.061,7.061,0,0,0,1.625-.195A4.567,4.567,0,0,1,8.949,148.478Z" transform="translate(0 -132.265)"/></g><g transform="translate(40.534 6.305)"><path d="M375.765,165.655l-4.716-2.358a.954.954,0,0,1-.53-.857v-1.194a5.334,5.334,0,0,0,1.8-4v-.959h.058a.843.843,0,0,0,.843-.843v-1.8a5.353,5.353,0,0,0-5.346-5.347h-1.8a5.353,5.353,0,0,0-5.347,5.347v1.8a.843.843,0,0,0,.843.843h.058v.96a5.334,5.334,0,0,0,1.8,4v1.194a.953.953,0,0,1-.53.857.843.843,0,1,0,.754,1.508,2.685,2.685,0,0,0,.418-.261l2.061,2.061v11.361a.843.843,0,1,0,1.685,0V166.6l2.06-2.061a2.675,2.675,0,0,0,.418.261l4.564,2.282-1.384,1.384a3.522,3.522,0,0,0-1.038,2.507v6.987a.843.843,0,0,0,1.685,0v-6.987a1.847,1.847,0,0,1,.545-1.315l1.311-1.311a1.88,1.88,0,0,1,.062.475v9.139a.843.843,0,0,0,1.686,0v-9.139A3.525,3.525,0,0,0,375.765,165.655ZM362.411,154.43v-.785h0a3.665,3.665,0,0,1,3.661-3.661h1.8a3.665,3.665,0,0,1,3.661,3.661v.936a12.889,12.889,0,0,1-5.9-1.637.843.843,0,0,0-1.063.105A5.52,5.52,0,0,1,362.411,154.43Zm4.562,10.633-1.947-1.947a2.67,2.67,0,0,0,.088-.676v-.179a5.343,5.343,0,0,0,3.719,0v.179a2.663,2.663,0,0,0,.088.676Zm0-4.155a3.665,3.665,0,0,1-3.661-3.661v-1.359h0a7.132,7.132,0,0,0,1.978-1.207,14.973,14.973,0,0,0,5.344,1.519v1.046A3.665,3.665,0,0,1,366.973,160.908Z" transform="translate(-360.726 -148.298)"/></g></g></g></svg>