<svg xmlns="http://www.w3.org/2000/svg" width="101" height="101" viewBox="0 0 101 101"><defs><style>.a{fill:#f5ce34;}</style></defs><g transform="translate(-200 -4740)"><circle class="a" cx="50.5" cy="50.5" r="50.5" transform="translate(200 4740)"/><g transform="translate(229.582 4765)"><g transform="translate(23.906 45.023)"><path d="M287,452a1,1,0,1,0,1,1A1,1,0,0,0,287,452Z" transform="translate(-286 -452)"/></g><path d="M84.848,4.582H81.859V2.988A2.992,2.992,0,0,0,78.871,0H54.965a2.992,2.992,0,0,0-2.988,2.988V4.582H48.988A2.992,2.992,0,0,0,46,7.57c0,6.48,3.032,11.243,7.952,12.569a21.959,21.959,0,0,0,7.737,9.148,2.88,2.88,0,0,1,1.245,2.405V37.18a3.989,3.989,0,0,0-2.988,3.859h-1a2.992,2.992,0,0,0-2.988,2.988V50a1,1,0,0,0,1,1H76.879a1,1,0,0,0,1-1V44.027a2.992,2.992,0,0,0-2.988-2.988h-1A3.991,3.991,0,0,0,70.9,37.181V31.7a2.884,2.884,0,0,1,1.246-2.41,21.958,21.958,0,0,0,7.737-9.148c4.919-1.326,7.95-6.088,7.95-12.568A2.992,2.992,0,0,0,84.848,4.582ZM47.992,7.57a1,1,0,0,1,1-1h2.988v4.453A21.879,21.879,0,0,0,53,17.662C49.83,16.092,47.992,12.466,47.992,7.57ZM74.887,43.031a1,1,0,0,1,1,1v4.98H57.953v-4.98a1,1,0,0,1,1-1Zm4.98-32a20.029,20.029,0,0,1-8.832,16.607A4.872,4.872,0,0,0,68.91,31.7v6.354a1,1,0,0,0,1,1A1.994,1.994,0,0,1,71.9,41.039H61.938a1.993,1.993,0,0,1,1.914-1.991q.039,0,.078,0a1,1,0,0,0,1-1V31.692A4.869,4.869,0,0,0,62.8,27.634a20.033,20.033,0,0,1-8.833-16.608V2.988a1,1,0,0,1,1-1H78.871a1,1,0,0,1,1,1Zm.97,6.635a21.892,21.892,0,0,0,1.023-6.635V6.574h2.988a1,1,0,0,1,1,1C85.844,12.465,84.006,16.092,80.837,17.662Z" transform="translate(-46)"/><g transform="translate(12.914 6.016)"><path d="M191.536,66.153a1,1,0,0,0-.8-.678l-4.3-.624-1.923-3.9a1,1,0,0,0-1.787,0l-1.923,3.9-4.3.624a1,1,0,0,0-.552,1.7l3.111,3.032-.734,4.282a1,1,0,0,0,1.445,1.05l3.845-2.021,3.846,2.021a1,1,0,0,0,1.445-1.05l-.735-4.282,3.111-3.032A1,1,0,0,0,191.536,66.153Zm-5.129,2.992a1,1,0,0,0-.286.882l.482,2.809-2.522-1.326a1,1,0,0,0-.927,0l-2.522,1.326.482-2.809a1,1,0,0,0-.287-.882l-2.04-1.989,2.819-.409a1,1,0,0,0,.75-.545l1.261-2.556,1.261,2.556a1,1,0,0,0,.75.545l2.819.409Z" transform="translate(-175.649 -60.4)"/></g><g transform="translate(15.938 45.023)"><path d="M210.98,452H207a1,1,0,0,0,0,1.992h3.984a1,1,0,0,0,0-1.992Z" transform="translate(-206 -452)"/></g><g transform="translate(36.259 47.968)"><path d="M410.01,481.6h.555C410.282,481.545,410.092,481.539,410.01,481.6Z" transform="translate(-410.01 -481.557)"/></g></g></g></svg>