<svg xmlns="http://www.w3.org/2000/svg" width="100" height="101" viewBox="0 0 100 101"><defs><style>.a{fill:#f5ce34;}</style></defs><g transform="translate(-503 -4740)"><ellipse class="a" cx="50" cy="50.5" rx="50" ry="50.5" transform="translate(503 4740)"/><g transform="translate(527.501 4765)"><g transform="translate(0 0)"><path d="M15.241,305.528a6.5,6.5,0,1,0-10.858,0,7.1,7.1,0,0,0-4.376,6.512v3.984a1,1,0,0,0,1,1H18.621a1,1,0,0,0,1-1v-3.984A7.1,7.1,0,0,0,15.241,305.528Zm-5.429-8.086a4.511,4.511,0,1,1-4.512,4.51A4.516,4.516,0,0,1,9.812,297.441Zm7.813,17.586H2v-2.988a5.088,5.088,0,0,1,3.881-4.911,6.487,6.487,0,0,0,7.863,0,5.088,5.088,0,0,1,3.881,4.911Z" transform="translate(-0.007 -266.02)"/><path d="M330.326,305.528a6.5,6.5,0,1,0-10.857,0,7.1,7.1,0,0,0-4.378,6.512v3.984a1,1,0,0,0,1,1h17.621a1,1,0,0,0,1-1v-3.984A7.1,7.1,0,0,0,330.326,305.528Zm-5.429-8.086a4.511,4.511,0,1,1-4.51,4.51A4.516,4.516,0,0,1,324.9,297.441Zm7.816,17.586H317.084v-2.988a5.088,5.088,0,0,1,3.883-4.911,6.484,6.484,0,0,0,7.862,0,5.089,5.089,0,0,1,3.884,4.911v2.988Z" transform="translate(-283.707 -266.02)"/><path d="M64.68,26.321a1,1,0,0,0,1.533-.82l.058-3.006a6.016,6.016,0,0,0-.244-11.745A8.816,8.816,0,0,0,57.418,0h-6.8a1,1,0,0,0,0,1.992h6.8A6.825,6.825,0,0,1,64,10.633H50.4a6.025,6.025,0,0,0-5.932,5.02H41.788a1,1,0,0,0-.62.216l-5.9,4.692L35.191,16.6a1,1,0,0,0-.909-.973,6.83,6.83,0,0,1,.6-13.634h6.8a1,1,0,0,0,0-1.992h-6.8a8.824,8.824,0,0,0-1.666,17.487l.1,5.129a1,1,0,0,0,1.616.76l7.2-5.73h2.329a6.025,6.025,0,0,0,5.932,5.02H58.97ZM46.372,16.65A4.029,4.029,0,0,1,50.4,12.626H64.85a4.024,4.024,0,0,1,.354,8.032,1,1,0,0,0-.909.973l-.039,2.052L59.8,20.831a1,1,0,0,0-.537-.157H50.4a4.028,4.028,0,0,1-4.024-4.024Z" transform="translate(-23.461 0)"/><path d="M277.226,157.136a1,1,0,1,0,1,1v0A1,1,0,0,0,277.226,157.136Z" transform="translate(-248.716 -141.484)"/><path d="M333.973,157.136a1,1,0,1,0,1,1v0A1,1,0,0,0,333.973,157.136Z" transform="translate(-299.81 -141.484)"/><path d="M390.692,159.13a1,1,0,0,0,1-1v0a1,1,0,1,0-1,1Z" transform="translate(-350.879 -141.484)"/><path d="M218.779,1.992h.006a1,1,0,1,0-.006,0Z" transform="translate(-196.09 0)"/></g></g></g></svg>