<svg xmlns="http://www.w3.org/2000/svg" width="100" height="101" viewBox="0 0 100 101"><defs><style>.a{fill:#f5ce34;}</style></defs><g transform="translate(-1139 -4598)"><ellipse class="a" cx="50" cy="50.5" rx="50" ry="50.5" transform="translate(1139 4598)"/><g transform="translate(1170.819 4619.682)"><path d="M95.344,40.089a.844.844,0,0,0,.844-.844V5.066a3.381,3.381,0,0,1,3.377-3.377h4.212a.844.844,0,1,0,0-1.689H99.566A5.072,5.072,0,0,0,94.5,5.066V39.245A.844.844,0,0,0,95.344,40.089Z" transform="translate(-94.5)"/><path d="M125.8,0h-18.09a.844.844,0,0,0,0,1.689H125.8a3.381,3.381,0,0,1,3.377,3.377V52.572a3.381,3.381,0,0,1-3.377,3.377H99.566a3.381,3.381,0,0,1-3.377-3.377V43.2a.844.844,0,1,0-1.689,0v9.375a5.072,5.072,0,0,0,5.066,5.066H125.8a5.072,5.072,0,0,0,5.066-5.066V5.066A5.072,5.072,0,0,0,125.8,0Z" transform="translate(-94.5)"/><path d="M217.973,31.689a.844.844,0,0,0,0-1.689h-5.629a.844.844,0,0,0,0,1.689Z" transform="translate(-198.329 -26.623)"/><ellipse cx="0.739" cy="1.108" rx="0.739" ry="1.108" transform="translate(21.429 2.956)"/><path d="M237.907,147.493a.844.844,0,1,0-1.689,0V160.7a.845.845,0,0,1-.844.844h-14.9a.844.844,0,1,0,0,1.689h14.9a2.536,2.536,0,0,0,2.533-2.533Z" transform="translate(-205.542 -130.14)"/><path d="M130,67.533V88.246a2.536,2.536,0,0,0,2.533,2.533h4.435a.844.844,0,1,0,0-1.689h-4.435a.845.845,0,0,1-.844-.844V67.533a.845.845,0,0,1,.844-.844h23.3a.845.845,0,0,1,.844.844v3.556a.844.844,0,0,0,1.689,0V67.533A2.536,2.536,0,0,0,155.836,65h-23.3A2.536,2.536,0,0,0,130,67.533Z" transform="translate(-126.004 -57.683)"/><path d="M134.777,314a2.252,2.252,0,0,0-1.121.288,2.261,2.261,0,0,0-1.119-.288,2.3,2.3,0,0,0-2.26,2.247c-.038,1.893,2.223,3.158,2.917,3.5a1.037,1.037,0,0,0,.935-.01c.864-.45,2.876-1.689,2.9-3.461A2.3,2.3,0,0,0,134.777,314Zm-1.133,4.076c-.884-.5-1.69-1.223-1.678-1.795a.628.628,0,0,1,.588-.593.574.574,0,0,1,.394.159h0a1.035,1.035,0,0,0,1.412,0,.6.6,0,0,1,.41-.16.59.59,0,0,1,.573.563C135.335,316.816,134.524,317.558,133.645,318.075Z" transform="translate(-126.25 -278.651)"/><path d="M305.724,333h-7.88a.844.844,0,1,0,0,1.689h7.88a.844.844,0,1,0,0-1.689Z" transform="translate(-274.204 -295.513)"/><path d="M130.844,388.689h2.139a.844.844,0,0,0,0-1.689h-2.139a.844.844,0,0,0,0,1.689Z" transform="translate(-126.004 -343.434)"/><path d="M179,387.844a.844.844,0,0,0,.844.844h7.768a.844.844,0,1,0,0-1.689h-7.768A.844.844,0,0,0,179,387.844Z" transform="translate(-169.488 -343.434)"/><path d="M246.168,417.844a.844.844,0,0,0-.844-.844H229.844a.844.844,0,0,0,0,1.689h15.479A.844.844,0,0,0,246.168,417.844Z" transform="translate(-213.859 -370.057)"/><path d="M130.844,418.689h7.768a.844.844,0,1,0,0-1.689h-7.768a.844.844,0,0,0,0,1.689Z" transform="translate(-126.004 -370.057)"/><path d="M130.844,448.689h11.145a.844.844,0,0,0,0-1.689H130.844a.844.844,0,0,0,0,1.689Z" transform="translate(-126.004 -396.68)"/><path d="M206,315.97v1.914a1.972,1.972,0,0,0,1.97,1.97h3.081a1.009,1.009,0,0,1,.617.212l.617.48a1.407,1.407,0,0,0,2.271-1.111V315.97a1.972,1.972,0,0,0-1.97-1.97H207.97A1.972,1.972,0,0,0,206,315.97Zm1.689,0a.282.282,0,0,1,.281-.281h4.616a.282.282,0,0,1,.281.281v2.889l-.163-.127a2.706,2.706,0,0,0-1.654-.567H207.97a.282.282,0,0,1-.281-.281Z" transform="translate(-193.448 -278.652)"/><path d="M171.962,153.57l-2.08-5.516a1.017,1.017,0,0,0-1.9,0l-2.1,5.517a.844.844,0,1,0,1.578.6l.334-.878h2.26l.33.875a.844.844,0,1,0,1.58-.6Zm-3.527-1.968.493-1.295.488,1.295Z" transform="translate(-157.795 -130.802)"/><path d="M237.767,154.712h.014c1.8-.031,3.106-1.567,3.106-3.652,0-2.192-1.273-3.665-3.169-3.665H236.1a.844.844,0,0,0-.844.844v5.629a.844.844,0,0,0,.844.844Zm-.822-5.629h.774c1.373,0,1.48,1.513,1.48,1.976,0,.963-.445,1.943-1.44,1.964h-.814v-3.94Z" transform="translate(-219.411 -130.802)"/><path d="M301.508,153.022a1.818,1.818,0,0,1-1.336-.557.844.844,0,1,0-1.251,1.134,3.482,3.482,0,0,0,2.587,1.112,2.461,2.461,0,0,0,2.507-1.916,2.252,2.252,0,0,0-1.726-2.491c-.732-.27-1.2-.467-1.3-.511-.209-.111-.223-.234-.215-.318a.4.4,0,0,1,.273-.336,1.606,1.606,0,0,1,1.411.307.844.844,0,0,0,1.115-1.268,3.315,3.315,0,0,0-2.982-.665,2.085,2.085,0,0,0-1.5,1.8,2,2,0,0,0,1.159,2c.359.179.743.3,1.457.576.343.127.694.353.648.61a.817.817,0,0,1-.845.524Z" transform="translate(-275.714 -130.8)"/></g></g></svg>