<svg xmlns="http://www.w3.org/2000/svg" width="842.862" height="227.835" viewBox="0 0 842.862 227.835"><defs><style>.a{isolation:isolate;}.b{fill:#f5ce34;}</style></defs><g class="a"><g class="a" transform="translate(0 0)"><path class="b" d="M349.883,162.349h-1.89c-13.23,40.751-47.246,59.274-103.941,59.274H75.858c-76.537,0-111.5,25.006-114.334,105.583-.946,6.483-6.614,12.04-13.229,12.04h-8.505c-6.614,0-12.283-6.483-12.283-12.966,2.835-88.911,41.576-138,139.846-138h176.7c59.529,0,85.988-19.449,88.821-64.831.946-6.483,6.614-12.04,13.229-12.04h6.615c5.669,0,11.339,5.557,12.284,12.04,2.835,45.382,29.292,64.831,88.821,64.831h176.7c98.27,0,137.011,49.087,139.847,138,0,6.483-5.67,12.966-12.285,12.966h-8.5a12.386,12.386,0,0,1-12.284-12.04c-3.779-80.576-38.741-105.583-115.279-105.583h-168.2C397.128,221.622,363.112,203.1,349.883,162.349Z" transform="translate(72.492 -111.41)"/></g></g></svg>