<?xml version="1.0" encoding="utf-8"?>
<!-- Generator: Adobe Illustrator 25.1.0, SVG Export Plug-In . SVG Version: 6.00 Build 0)  -->
<svg version="1.1" id="Capa_1" xmlns="http://www.w3.org/2000/svg" xmlns:xlink="http://www.w3.org/1999/xlink" x="0px" y="0px"
	 viewBox="0 0 512 512" style="enable-background:new 0 0 512 512;" xml:space="preserve">
<style type="text/css">
	.st0{fill:#FFFFFF;}
</style>
<g>
	<path class="st0" d="M387.6,309.2V104c0-9.6-7.8-17.5-17.5-17.5H115.4c-9.6,0-17.5,7.8-17.5,17.5v205.2c0,9.6,7.8,17.5,17.5,17.5
		h254.7C379.7,326.7,387.6,318.9,387.6,309.2z M112.9,309.2v-80.1l39.7-39.7c0.6-0.6,1.4-0.7,1.8-0.7s1.1,0.1,1.8,0.7l8.5,8.5
		c2.9,2.9,7.7,2.9,10.6,0c2.9-2.9,2.9-7.7,0-10.6l-8.5-8.5c-3.3-3.3-7.7-5.1-12.4-5.1c-4.7,0-9.1,1.8-12.4,5.1l-29.1,29.1V104
		c0-1.4,1.1-2.5,2.5-2.5h254.7c1.4,0,2.5,1.1,2.5,2.5v205.2c0,1.4-1.1,2.5-2.5,2.5h-7.3l-93.4-93.4c-6.8-6.8-17.9-6.8-24.7,0
		l-19.2,19.2l-26.3-26.3c-2.9-2.9-7.7-2.9-10.6,0c-2.9,2.9-2.9,7.7,0,10.6l28.1,28.1c2.4,2.4,5.5,3.7,8.8,3.7s6.5-1.3,8.8-3.7l21-21
		c1-1,2.6-1,3.5,0l82.8,82.8H115.4C114,311.7,112.9,310.6,112.9,309.2L112.9,309.2z"/>
	<path class="st0" d="M437.9,366.4v-96c0-4.1-3.4-7.5-7.5-7.5s-7.5,3.4-7.5,7.5v84.7c-12.6-7.4-27.2-11.7-42.8-11.7
		c-42.9,0-78.4,32.2-83.6,73.8H70.1c-4.1,0-7.5-3.4-7.5-7.5V22.5c0-4.1,3.4-7.5,7.5-7.5h345.3c4.1,0,7.5,3.4,7.5,7.5V233
		c0,4.1,3.4,7.5,7.5,7.5s7.5-3.4,7.5-7.5V22.5c0-12.4-10.1-22.5-22.5-22.5H70.1C57.7,0,47.6,10.1,47.6,22.5v387.2
		c0,12.4,10.1,22.5,22.5,22.5h225.8c0.8,15.5,5.8,30.3,14.5,43.1c2.3,3.4,7,4.3,10.4,2c3.4-2.3,4.3-7,2-10.4
		c-7.9-11.5-12.1-25-12.1-39.1c0-38.2,31.1-69.3,69.3-69.3s69.3,31.1,69.3,69.3S418.3,497,380.1,497c-11.4,0-22.7-2.8-32.7-8.2
		c-3.7-2-8.2-0.6-10.1,3.1c-2,3.6-0.6,8.2,3.1,10.1c12.1,6.5,25.9,9.9,39.7,9.9c46.5,0,84.3-37.8,84.3-84.3
		C464.4,403.6,454.2,381.8,437.9,366.4L437.9,366.4z"/>
	<path class="st0" d="M380.1,389.1c-4.1,0-7.5,3.4-7.5,7.5v23.8h-23.8c-4.1,0-7.5,3.4-7.5,7.5s3.4,7.5,7.5,7.5h23.8v23.8
		c0,4.1,3.4,7.5,7.5,7.5s7.5-3.4,7.5-7.5v-23.8h23.8c4.1,0,7.5-3.4,7.5-7.5s-3.4-7.5-7.5-7.5h-23.8v-23.8
		C387.6,392.5,384.2,389.1,380.1,389.1z"/>
	<ellipse class="st0" cx="115.9" cy="361.9" rx="10.5" ry="10.5"/>
	<ellipse class="st0" cx="153" cy="361.9" rx="10.5" ry="10.5"/>
	<ellipse class="st0" cx="190.2" cy="361.9" rx="10.5" ry="10.5"/>
	<path class="st0" d="M271.6,62.3c4.1,0,7.5-3.4,7.5-7.5s-3.4-7.5-7.5-7.5h-32.5c-4.1,0-7.5,3.4-7.5,7.5s3.4,7.5,7.5,7.5H271.6z"/>
	<path class="st0" d="M200.6,62.3c4.1,0,7.5-3.4,7.5-7.5s-3.4-7.5-7.5-7.5h-88.7c-4.1,0-7.5,3.4-7.5,7.5s3.4,7.5,7.5,7.5H200.6z"/>
	<path class="st0" d="M306.3,191.7c14.6,0,26.6-11.9,26.6-26.6s-11.9-26.6-26.6-26.6s-26.6,11.9-26.6,26.6S291.6,191.7,306.3,191.7z
		 M306.3,153.6c6.4,0,11.6,5.2,11.6,11.6s-5.2,11.6-11.6,11.6s-11.6-5.2-11.6-11.6C294.7,158.8,299.9,153.6,306.3,153.6z"/>
</g>
</svg>
