<?xml version="1.0" encoding="utf-8"?>
<!-- Generator: Adobe Illustrator 25.1.0, SVG Export Plug-In . SVG Version: 6.00 Build 0)  -->
<svg version="1.1" id="Capa_1" xmlns="http://www.w3.org/2000/svg" xmlns:xlink="http://www.w3.org/1999/xlink" x="0px" y="0px"
	 viewBox="0 0 512 512" style="enable-background:new 0 0 512 512;" xml:space="preserve">
<style type="text/css">
	.st0{fill:#FFFFFF;}
</style>
<g>
	<g>
		<path class="st0" d="M161.9,125.6c-1.9-1.9-4.4-2.9-7.1-2.9s-5.2,1.1-7.1,2.9c-1.9,1.9-2.9,4.4-2.9,7.1s1.1,5.2,2.9,7.1
			c1.9,1.9,4.4,2.9,7.1,2.9s5.2-1.1,7.1-2.9c1.9-1.9,2.9-4.4,2.9-7.1S163.8,127.5,161.9,125.6z"/>
	</g>
</g>
<g>
	<g>
		<path class="st0" d="M509.1,41.8l-12.4-12.4l12.4-12.4c3.9-3.9,3.9-10.2,0-14.1c-3.9-3.9-10.2-3.9-14.1,0l-12.4,12.4L470.4,3.1
			c-1.9-1.9-4.4-2.9-7.1-2.9L294.1,0.1c0,0,0,0,0,0c-13.4,0-25.9,5.2-35.4,14.7l-84.5,84.5c-3.9,3.9-3.9,10.2,0,14.1
			c3.9,3.9,10.2,3.9,14.1,0l84.5-84.5c5.7-5.7,13.2-8.8,21.2-8.8c0,0,0,0,0,0l165.1,0.1l9.3,9.3l-37.1,37.1
			c-15.7-9.4-36.5-7.4-50,6.2c-7.7,7.7-12,18-12,29s4.3,21.2,12,29c8,8,18.5,12,29,12c10.5,0,21-4,29-12c13.5-13.5,15.6-34.2,6.2-50
			l37.1-37.1l9.4,9.4l-0.1,164.9c0,8-3.1,15.6-8.8,21.2l-244,244c-5.7,5.7-13.2,8.8-21.2,8.8s-15.6-3.1-21.2-8.8L28.8,315.4
			c-5.7-5.7-8.8-13.2-8.8-21.2s3.1-15.6,8.8-21.2l107.8-107.8c3.9-3.9,3.9-10.2,0-14.1c-3.9-3.9-10.2-3.9-14.1,0L14.7,258.8
			C5.2,268.2,0,280.8,0,294.1s5.2,25.9,14.7,35.4l167.8,167.8c9.8,9.8,22.6,14.6,35.4,14.6s25.6-4.9,35.4-14.6l244-244
			c9.4-9.4,14.6-22,14.7-35.4l0.1-169C512,46.3,510.9,43.7,509.1,41.8z M425.1,116.5c-4,4-9.2,6.1-14.8,6.1
			c-5.6,0-10.9-2.2-14.8-6.1c-8.2-8.2-8.2-21.5,0-29.6c4.1-4.1,9.5-6.1,14.8-6.1c2,0,4,0.3,6,0.9l-11.5,11.5
			c-3.9,3.9-3.9,10.2,0,14.1c2,2,4.5,2.9,7.1,2.9s5.1-1,7.1-2.9l11.5-11.5C432.5,102.9,430.7,110.9,425.1,116.5z"/>
	</g>
</g>
<g>
	<g>
		<path class="st0" d="M427.2,201.4L310.6,84.8c-15.4-15.4-40.6-15.4-56,0L70.2,269.2c-7.5,7.5-11.6,17.4-11.6,28s4.1,20.5,11.6,28
			l116.5,116.5c7.5,7.5,17.4,11.6,28,11.6s20.5-4.1,28-11.6l184.4-184.4c7.5-7.5,11.6-17.4,11.6-28S434.6,208.8,427.2,201.4z
			 M413,243.2L228.6,427.6c-3.7,3.7-8.6,5.7-13.9,5.7s-10.2-2-13.9-5.7L84.3,311.1c-3.7-3.7-5.7-8.6-5.7-13.9c0-5.2,2-10.2,5.7-13.9
			L268.8,99c3.8-3.8,8.8-5.7,13.9-5.7c5,0,10,1.9,13.9,5.7L413,215.5c3.7,3.7,5.7,8.6,5.7,13.9C418.8,234.6,416.7,239.5,413,243.2z"
			/>
	</g>
</g>
<g>
	<g>
		<path class="st0" d="M326.1,200.1c3.9-3.9,3.9-10.2,0-14.1c-3.9-3.9-10.2-3.9-14.1,0l-5.8,5.8c-15.4-9.5-35.1-8.2-47.6,4.2
			c-7.3,7.3-11,17.1-10.5,27.8c0.5,10.3,4.9,20.1,12.5,27.7c0,0,0,0,0,0c8,8,8.9,20.2,2,27.2c-6.9,6.9-19.1,6-27.2-2
			c-8-8-8.9-20.2-2-27.2c3.9-3.9,3.9-10.2,0-14.1c-3.9-3.9-10.2-3.9-14.1,0c-12.5,12.5-13.7,32.2-4.2,47.6l-6.8,6.8
			c-3.9,3.9-3.9,10.2,0,14.1c2,2,4.5,2.9,7.1,2.9c2.6,0,5.1-1,7.1-2.9l6.8-6.8c6.7,4.1,14.3,6.3,21.7,6.3c9.5,0,18.9-3.5,25.9-10.5
			c14.7-14.7,13.8-39.6-2-55.5c0,0,0,0,0,0c-4-4-6.4-9.2-6.6-14.5c-0.2-5,1.4-9.5,4.6-12.7c6.9-6.9,19.1-6,27.2,2c0,0,0,0,0,0
			s0,0,0,0c8,8,8.9,20.2,2,27.2c-3.9,3.9-3.9,10.2,0,14.1c2,2,4.5,2.9,7.1,2.9s5.1-1,7.1-2.9c12.5-12.5,13.7-32.2,4.2-47.6
			L326.1,200.1z"/>
	</g>
</g>
<g>
	<g>
		<path class="st0" d="M224.9,365.9l-51.4-51.4c-3.9-3.9-10.2-3.9-14.1,0c-3.9,3.9-3.9,10.2,0,14.1l51.4,51.4c2,2,4.5,2.9,7.1,2.9
			s5.1-1,7.1-2.9C228.8,376.1,228.8,369.8,224.9,365.9z"/>
	</g>
</g>
<g>
	<g>
		<path class="st0" d="M146.1,287.1c-1.9-1.9-4.4-2.9-7.1-2.9c-2.6,0-5.2,1.1-7.1,2.9c-1.9,1.9-2.9,4.4-2.9,7.1
			c0,2.6,1.1,5.2,2.9,7.1c1.9,1.9,4.4,2.9,7.1,2.9c2.6,0,5.2-1.1,7.1-2.9c1.9-1.9,2.9-4.4,2.9-7.1C149,291.5,148,289,146.1,287.1z"
			/>
	</g>
</g>
</svg>
