<?xml version="1.0" encoding="utf-8"?>
<!-- Generator: Adobe Illustrator 25.1.0, SVG Export Plug-In . SVG Version: 6.00 Build 0)  -->
<svg version="1.1" id="outline" xmlns="http://www.w3.org/2000/svg" xmlns:xlink="http://www.w3.org/1999/xlink" x="0px" y="0px"
	 viewBox="0 0 512 512" style="enable-background:new 0 0 512 512;" xml:space="preserve">
<style type="text/css">
	.st0{fill:#FFFFFF;}
</style>
<path class="st0" d="M308.4,201.1l-4.4-4.4v-11.5c0-9.5-7.7-17.2-17.2-17.2c-7.6,0-14.2,4.9-16.4,12.1L241,275.4L189,320H183
	c0.7-2.6,1-5.3,1-8v-26.9c5.2-5.8,8-13.3,8-21.1v-8c0-4.4-3.6-8-8-8h-39.9c-16.7,0-30.3,13.6-30.3,30.3c0,4.7,1.1,9.3,3.2,13.5l3,6
	V312c0,2.7,0.3,5.4,1,8H81.7c-13.8,0-26.6,7.1-33.9,18.8L27,372.1c-15.9,25.4-14.5,58,3.5,81.9l35.1,46.8l12.8-9.6l-35.1-46.8
	c-14-18.7-15.1-44-2.7-63.8l1.3-2.1l28.3,17l-5.1,8.4c-1.5,2.4-1.5,5.5-0.2,7.9l48,88l14-7.7L111.7,464H200v32h16V379.6l68.5-61.6
	c7.1-6.4,11.7-15.2,12.9-24.8l6.3-50.3l7.7-11.5C317.7,221.8,316.4,209.2,308.4,201.1z M159.5,413.2l-7.5,7.5l-7.5-7.5l6.5-45.2h2.1
	L159.5,413.2z M155.1,352h-6.1l-3.6-7.3l1.7-1.1c3.3,0.5,6.7,0.5,10,0l1.7,1.1L155.1,352z M136,299.3l8.3-8.3c4.6,3.2,10.1,5,15.7,5
	c2.7,0,5.4-0.3,8-1v17c0,8.8-7.2,16-16,16s-16-7.2-16-16V299.3z M130.5,273.8c1.9-5.8,7.4-9.8,13.6-9.8H176c0,8.8-7.2,16-16,16
	c-3,0-5.9-1.2-8-3.3l-2.3-2.3c-3.1-3.1-8.2-3.1-11.3,0l-8,8C129.5,279.5,129.6,276.5,130.5,273.8L130.5,273.8z M88,420.6l-6.8-12.4
	l6.8-11.3V420.6z M202.6,370.1c-1.7,1.5-2.6,3.7-2.6,5.9v72h-96v-80c0-4.4-3.6-8-8-8c-2.8,0-5.4,1.5-6.9,3.9l-10.7,17.8l-28.1-16.8
	l11-17.6c4.4-7,12.1-11.3,20.4-11.3h47.8l-14,9.3l8.9,13.3l7.5-5l3.8,7.7l-7.6,53.5c-0.4,2.5,0.5,5,2.3,6.8l16,16
	c3.1,3.1,8.2,3.1,11.3,0l16-16c1.8-1.8,2.6-4.3,2.3-6.8l-7.6-53.5l3.8-7.7l7.5,5l8.9-13.3l-14-9.3H192c1.9,0,3.8-0.7,5.2-1.9
	l10.8-9.3l18.8,23.5L202.6,370.1z M298.1,222.5l-8.7,13.1c-0.7,1-1.1,2.2-1.3,3.4l-6.5,52.2c-0.7,5.7-3.5,11-7.8,14.9l-35.1,31.6
	l-18.6-23.2l33-28.3c1.1-1,2-2.3,2.4-3.7l30-97.5c0.2-0.6,0.9-1,1.5-0.8c0.5,0.2,0.8,0.6,0.8,1.1V200c0,2.1,0.8,4.2,2.3,5.7l6.7,6.7
	C299.8,215.1,300.2,219.3,298.1,222.5L298.1,222.5z"/>
<path class="st0" d="M216,160c1.5,0,3-0.1,4.5-0.2l29.8,29.8l11.3-11.3l-22.3-22.3c26.3-9.1,45-32.4,48.2-60.1H312V80h-24.5
	c-4.4-39.5-40-68-79.6-63.5s-68,40-63.5,79.6C148.5,132.4,179.3,160,216,160z M216,144c-19.7,0-37.9-10.3-48-27.2V112
	c0-4.4,3.6-8,8-8h16v12c0,11,9,20,20,20s20-9,20-20v-10.1c0.7-0.6,1.3-1.2,1.9-1.9H248c4.4,0,8,3.6,8,8v15.1
	C245.5,137.9,231.1,144,216,144z M208,110.6c2.6,0.9,5.3,1.4,8,1.4v4c0,2.2-1.8,4-4,4s-4-1.8-4-4V110.6z M231,61.7l-2.3,2.3H216
	c-1.2,0-2.5,0.3-3.6,0.8l-4.4,2.2V64c0-4.4,3.6-8,8-8h12.7c1.8,0,3.3,1.5,3.3,3.3C232,60.2,231.7,61,231,61.7z M208,84.9l9.9-4.9
	h6.1v8c0,4.4-3.6,8-8,8s-8-3.6-8-8V84.9z M216,32c30.9,0,56,25,56,56c0,4.9-0.6,9.8-1.9,14.6C266.3,93.7,257.6,88,248,88h-8V75.3
	l2.3-2.3c7.5-7.5,7.5-19.8,0-27.3c-3.6-3.6-8.5-5.7-13.7-5.7H216c-13.2,0-24,10.8-24,24v24h-16c-5.8,0-11.3,2.1-15.7,5.9
	c-3.2-30.8,19.1-58.3,49.8-61.6C212.1,32.1,214,32,216,32z"/>
<path class="st0" d="M416,159.5V176h16v-16.5c39.5-4.4,68-40,63.6-79.5s-40-68-79.5-63.6c-33.4,3.7-59.8,30.1-63.6,63.6H328v16h24.5
	C356.2,129.4,382.6,155.8,416,159.5z M424,144c-19.7,0-37.9-10.3-48-27.2V112c0-4.4,3.6-8,8-8h16v12c0,11,9,20,20,20s20-9,20-20
	v-10.1c0.7-0.6,1.3-1.2,1.9-1.9H456c4.4,0,8,3.6,8,8v15.1C453.5,137.9,439.1,144,424,144z M416,110.6c2.6,0.9,5.3,1.4,8,1.4v4
	c0,2.2-1.8,4-4,4s-4-1.8-4-4V110.6z M439,61.7l-2.3,2.3H424c-1.2,0-2.5,0.3-3.6,0.8l-4.4,2.2V64c0-4.4,3.6-8,8-8h12.7
	c1.8,0,3.3,1.5,3.3,3.3C440,60.2,439.7,61,439,61.7z M416,84.9l9.9-4.9h6.1v8c0,4.4-3.6,8-8,8s-8-3.6-8-8V84.9z M424,32
	c30.9,0,56,25,56,56c0,4.9-0.6,9.8-1.9,14.6C474.3,93.7,465.6,88,456,88h-8V75.3l2.3-2.3c7.5-7.5,7.5-19.8,0-27.3
	c-3.6-3.6-8.5-5.7-13.7-5.7H424c-13.2,0-24,10.8-24,24v24h-16c-5.8,0-11.3,2.1-15.7,5.9c-3.2-30.8,19.1-58.3,49.8-61.6
	C420.1,32.1,422,32,424,32z"/>
<path class="st0" d="M432,216.5V192h-16v24.5c-30,3.4-54.6,25.1-61.9,54.3l-28.4-28.4l-11.3,11.3l37.7,37.7
	c1.9,39.7,35.6,70.4,75.3,68.5s70.4-35.6,68.5-75.3C494.3,249.3,467.2,220.4,432,216.5z M424,344c-19.7,0-37.9-10.3-48-27.2V312
	c0-4.4,3.6-8,8-8h16v12c0,11,9,20,20,20s20-9,20-20v-10.1c0.7-0.6,1.3-1.2,1.9-1.9H456c4.4,0,8,3.6,8,8v15.1
	C453.5,337.9,439.1,344,424,344z M416,310.6c2.6,0.9,5.3,1.4,8,1.4v4c0,2.2-1.8,4-4,4s-4-1.8-4-4V310.6z M439,261.7l-2.3,2.3H424
	c-1.2,0-2.5,0.3-3.6,0.8l-4.4,2.2V264c0-4.4,3.6-8,8-8h12.7c1.8,0,3.3,1.5,3.3,3.3C440,260.2,439.7,261,439,261.7z M416,284.9
	l9.9-4.9h6.1v8c0,4.4-3.6,8-8,8s-8-3.6-8-8V284.9z M478.1,302.6c-3.8-8.8-12.5-14.6-22.1-14.6h-8v-12.7l2.3-2.3
	c7.5-7.5,7.5-19.8,0-27.3c-3.6-3.6-8.5-5.7-13.7-5.7H424c-13.2,0-24,10.8-24,24v24h-16c-5.8,0-11.3,2.1-15.7,5.9
	c-3.3-30.8,19-58.3,49.8-61.6c30.8-3.3,58.3,19,61.6,49.8C480.4,289,479.9,295.9,478.1,302.6L478.1,302.6z"/>
</svg>
