<svg xmlns="http://www.w3.org/2000/svg" width="69" height="68" viewBox="0 0 69 68"><g><g><g><path fill="#fff" d="M64.116 62.455l-.69.698a6.538 6.538 0 0 1-9.222 0l-14.372-14.41 3.033-3.034 3.868-3.86 3.034-3.034 14.41 14.41a6.507 6.507 0 0 1-.061 9.23zm-43.45-40.802l.137-.122 1.73-1.729.12-.136L43.89 40.9l-1.987 1.987zm4.111 27.484a1.29 1.29 0 0 0-.387.865c-.121 2.184-.356 7.03-.258 8.775-.819 1.016-4.55 4.02-7.872 6.507h-.758s2.578-4.346 2.624-4.421c.645-1.593.842-5.31-3.034-8.024-2.465-1.73-6.067-3.034-9.184.614a41.482 41.482 0 0 0-2.829 4.255 14.228 14.228 0 0 1 1.009-7.987C5.817 45.24 7.804 44.413 8 44.3l9.473-1.343c.286-.036.553-.167.758-.371l9.799-9.814 2.389 2.381-9.579 9.587a1.312 1.312 0 0 0 0 1.873 1.312 1.312 0 0 0 1.873 0l9.579-9.579 2.275 2.275zm-9.055-28.16a4.475 4.475 0 0 1-3.102-1.228L4.74 7.668l3.928-3.93 12.082 7.904a4.55 4.55 0 0 1-.091 6.31l-1.737 1.736c-.848.85-2 1.325-3.2 1.32zm27.045-2.934c.201-.207.331-.473.371-.759l1.343-9.434c.083-.213.97-2.192 5.415-3.914a14.281 14.281 0 0 1 7.986-1.001 41.083 41.083 0 0 0-4.255 2.829c-3.648 3.125-2.343 6.712-.614 9.177 2.707 3.845 6.439 3.655 8.024 3.033.06 0 4.421-2.601 4.421-2.601v.758c-2.487 3.337-5.483 7.046-6.5 7.865-1.744-.09-6.597.144-8.774.266a1.32 1.32 0 0 0-.872.386l-8.98 8.934-2.275-2.275 8.661-8.699a1.327 1.327 0 1 0-1.873-1.865l-8.684 8.676-2.382-2.39zm23.222 33.286L50.692 36.01c-.527-.5-1.354-.5-1.88 0l-3.034 3.034-3.573-3.565 8.624-8.668c3.602-.19 8.403-.175 8.615-.205.895-.136 2.61-1.517 8.411-9.32.161-.221.251-.486.258-.76v-3.51a1.335 1.335 0 0 0-.668-1.153 1.312 1.312 0 0 0-1.334 0l-6.136 3.64c-.523.167-2.821.705-4.786-2.093-2.123-3.034-1.175-4.49.167-5.635a67.716 67.716 0 0 1 6.234-3.96 1.35 1.35 0 0 0 .668-1.099c.017-.455-.2-.888-.577-1.145-.19-.13-4.808-3.216-12.74-.144-6.129 2.366-6.986 5.483-7.062 5.832l-1.304 9.215-8.676 8.683-7.751-7.773a7.144 7.144 0 0 0-1.593-7.736 1.13 1.13 0 0 0-.212-.174L9.215.933a1.32 1.32 0 0 0-1.661.167L2.1 6.553a1.32 1.32 0 0 0-.167 1.66l8.562 13.106c.052.076.11.147.175.212a7.106 7.106 0 0 0 5.073 2.101 7.167 7.167 0 0 0 2.662-.508l7.751 7.774-9.495 9.495-9.1 1.29h-.1c-.348.083-3.458.932-5.832 7.068-3.033 7.933 0 12.544.152 12.741.255.372.68.591 1.13.584a1.312 1.312 0 0 0 1.092-.66 68.302 68.302 0 0 1 3.96-6.234c1.144-1.342 2.623-2.275 5.642-.174 2.806 1.98 2.275 4.292 2.093 4.785l-3.64 6.136a1.32 1.32 0 0 0 1.137 2.002h3.512c.274-.005.54-.098.758-.266 7.963-5.885 9.23-7.584 9.336-8.44 0-.183 0-4.983.19-8.578l9.472-9.427 3.61 3.557-3.033 3.033a1.335 1.335 0 0 0 0 1.881l15.32 15.312a9.177 9.177 0 0 0 12.968 0l.69-.69a9.154 9.154 0 0 0 0-12.969z"/></g><g><path fill="#fff" d="M48.933 46.058a1.312 1.312 0 0 0-1.874 0 1.327 1.327 0 0 0 0 1.874l11.376 11.376a1.33 1.33 0 1 0 1.881-1.881z"/></g></g></g></svg>