<svg xmlns="http://www.w3.org/2000/svg" width="72" height="72" viewBox="0 0 72 72"><g><g><g><path fill="#fff" d="M23.3 35.086a1.374 1.374 0 0 0 0 1.945 1.377 1.377 0 0 0 1.944 0 1.374 1.374 0 0 0 0-1.945 1.374 1.374 0 0 0-1.945 0z"/></g><g><path fill="#fff" d="M19.682 41.194l11.124 11.124-2.916 4.862-13.07-13.07zm-.615-17.438l8.755-.973-11.33 11.33-6.809-.974zm21.591-9.92c2.956-2.956 7.095-5.357 12.305-7.146L65.31 19.037c-1.79 5.21-4.19 9.349-7.146 12.305l-18.331 18.33-10.697-10.697a1.377 1.377 0 0 0-1.946 1.946l10.698 10.697-1.946 1.946-17.506-17.506L32.54 21.956zm25.572 2.232L55.932 5.77c5.253-1.46 10.091-1.97 12.442-2.144-.173 2.351-.685 7.189-2.144 12.442zM38.86 62.316l-.972-6.808 11.33-11.328-.974 8.753zm-9.518-2.21l3.469-5.783 2.158 2.158c.095.095.2.172.312.233l1.246 8.715c.16 1.127 1.537 1.573 2.334.778l11.67-11.67c.22-.221.36-.51.394-.821l1.406-12.65 7.778-7.78c3.416-3.415 6.135-8.19 8.084-14.194C70.974 10.525 71.201 2.536 71.21 2.2A1.376 1.376 0 0 0 69.8.791c-.335.008-8.325.235-16.892 3.015-6.004 1.95-10.78 4.67-14.195 8.085l-7.777 7.778-12.652 1.406c-.31.034-.6.173-.82.394l-11.67 11.67a1.374 1.374 0 0 0 .777 2.334l8.714 1.246c.17.309.184.235 2.392 2.47l-5.783 3.469a1.375 1.375 0 0 0-.265 2.152L27.19 60.37c.63.63 1.69.506 2.152-.265z"/></g><g><path fill="#fff" d="M3.137 70.807l14.326-14.326a1.375 1.375 0 1 0-1.944-1.945L1.193 68.862a1.376 1.376 0 1 0 1.944 1.945z"/></g><g><path fill="#fff" d="M21.355 58.426a1.376 1.376 0 0 0-1.946 0l-8.491 8.492a1.376 1.376 0 0 0 1.945 1.945l8.492-8.492a1.376 1.376 0 0 0 0-1.945z"/></g><g><path fill="#fff" d="M11.629 50.646l-8.492 8.491a1.376 1.376 0 0 0 1.945 1.945l8.492-8.492a1.376 1.376 0 0 0-1.945-1.944z"/></g><g><path fill="#fff" d="M41.63 22.59a5.509 5.509 0 0 1 7.78 0 5.508 5.508 0 0 1 0 7.78 5.497 5.497 0 0 1-7.78 0 5.497 5.497 0 0 1 0-7.78zm9.726 9.725c3.217-3.217 3.217-8.453 0-11.671-3.219-3.217-8.454-3.216-11.67 0a8.248 8.248 0 0 0 0 11.67 8.248 8.248 0 0 0 11.67 0z"/></g></g></g></svg>