<svg xmlns="http://www.w3.org/2000/svg" width="65" height="65" viewBox="0 0 65 65"><g><g><g><path fill="#fff" d="M54.385 52.83a1.547 1.547 0 1 0 1.07 2.642 1.547 1.547 0 0 0-1.07-2.641zM60.37 9.969c.39 0 .78.156 1.092.468.625.625.625 1.563 0 2.188L33.026 41.063c-.625.625-1.563.625-2.188 0l-8.753-8.747a1.518 1.518 0 0 1 0-2.193c.625-.625 1.567-.625 2.192 0 2.188 2.188 6.561 6.567 6.561 6.567a1.547 1.547 0 0 0 2.188 0l26.252-26.254a1.542 1.542 0 0 1 1.093-.468zM32.485.016C14.562.012 0 14.578 0 32.5c0 17.922 14.562 32.485 32.485 32.485a32.35 32.35 0 0 0 18.61-5.866c1.74-1.174-.074-3.766-1.773-2.535a29.23 29.23 0 0 1-16.837 5.307c-16.25 0-29.391-13.14-29.391-29.391 0-16.25 13.14-29.394 29.39-29.391a29.368 29.368 0 0 1 20.946 8.8l-2.19 2.19a26.28 26.28 0 0 0-18.755-7.897c-3.487 0-6.816.686-9.862 1.919-1.983.742-.781 3.713 1.16 2.867a23.099 23.099 0 0 1 8.702-1.692 23.18 23.18 0 0 1 16.568 6.99L31.935 33.406l-5.47-5.469c-1.8-1.799-4.768-1.799-6.567 0-1.799 1.799-1.799 4.766 0 6.565l8.753 8.747c1.799 1.799 4.761 1.799 6.56 0l18.95-18.95a23.05 23.05 0 0 1 1.527 8.203c.007 12.832-10.37 23.202-23.203 23.202-12.834 0-23.204-10.37-23.204-23.203 0-3.08.605-6.013 1.694-8.702.846-1.941-2.125-3.143-2.868-1.16a26.23 26.23 0 0 0-1.92 9.862c0 14.505 11.792 26.297 26.298 26.297 14.505 0 26.305-11.793 26.297-26.299a26.154 26.154 0 0 0-2.255-10.565l2.337-2.336a29.324 29.324 0 0 1 3.012 12.903 29.216 29.216 0 0 1-5.307 16.837c-1.231 1.699 1.361 3.513 2.535 1.774A32.334 32.334 0 0 0 64.97 32.5a32.438 32.438 0 0 0-3.798-15.212l2.479-2.478c1.799-1.799 1.799-4.762 0-6.56a4.623 4.623 0 0 0-3.278-1.354A4.634 4.634 0 0 0 57.09 8.25l-1.473 1.473A32.47 32.47 0 0 0 32.485.016z"/></g></g></g></svg>