<svg xmlns="http://www.w3.org/2000/svg" width="75" height="75" viewBox="0 0 75 75"><g><g><g><path fill="#fff" d="M3.238 61.973h17.131v9.789H3.238zm9.789-12.237h17.131v9.79H13.027zm-9.79-7.341h2.448a1.224 1.224 0 1 0 0-2.448H3.238V37.5h17.131v9.79H3.238zm26.054-1.143a2.801 2.801 0 0 0 2.855 1.091l7.801-1.66v6.606h-17.13V37.5h6.604l-.38.706a2.813 2.813 0 0 0 .25 3.047zm13.657-23.75a.256.256 0 0 1 .223-.143l.024-.001c.13.002.25.066.324.173l5.53 7.37L44 28.688a1.224 1.224 0 0 0 1.469 1.959l5.048-3.788 5.529 7.37a.395.395 0 0 1 .067.384.257.257 0 0 1-.2.174L31.637 39.95a.398.398 0 0 1-.389-.166.39.39 0 0 1-.05-.419zM59.526 47.29H42.395v-7.126L54.92 37.5h4.606zm9.79 12.237H52.183v-9.79h17.131zm-9.79 12.236H42.395v-9.79h17.131zm-26.92-22.026h17.13v9.79h-17.13zm-9.79 12.237h17.131v9.789h-17.13zM69.125 3.482a1.224 1.224 0 0 1 1.713.244l.68.907c.405.54.295 1.307-.245 1.713l-9.117 6.84-2.149-2.865zM2.015 74.209H60.75c.676 0 1.224-.548 1.224-1.223V61.973h8.565c.676 0 1.224-.548 1.224-1.224V48.512c0-.675-.548-1.223-1.224-1.223h-8.565V36.276c0-.676-.548-1.224-1.224-1.224h-2.246a2.83 2.83 0 0 0-.5-2.29l-5.53-7.371 2.554-1.916a4.23 4.23 0 0 0 1.687-3.625l-.122-2.203a1.789 1.789 0 0 1 .713-1.532l2.552-1.914 1.075 1.431a1.223 1.223 0 0 0 1.713.245l10.096-7.574a3.67 3.67 0 0 0 .734-5.138l-.68-.908a3.675 3.675 0 0 0-5.14-.733L57.561 9.098a1.224 1.224 0 0 0-.245 1.713l1.074 1.432-2.552 1.915a4.227 4.227 0 0 0-1.688 3.625l.122 2.203a1.786 1.786 0 0 1-.712 1.532l-2.553 1.915-5.53-7.37a2.838 2.838 0 0 0-2.49-1.145 2.715 2.715 0 0 0-2.195 1.425l-10.055 18.71H2.014c-.676 0-1.224.547-1.224 1.223v12.236c0 .677.548 1.224 1.224 1.224h8.565v9.79H2.014c-.676 0-1.224.547-1.224 1.223v12.237c0 .675.548 1.223 1.224 1.223z"/></g><g><path fill="#fff" d="M16.698 41.17c0-.675-.548-1.223-1.224-1.223h-4.895a1.224 1.224 0 0 0 0 2.447h4.895c.676 0 1.224-.547 1.224-1.223z"/></g></g></g></svg>