<svg xmlns="http://www.w3.org/2000/svg" width="226" height="226" viewBox="0 0 226 226"><g><g><g><path fill="#f5f5f5" d="M79.662 220.743L5.185 146.265l1.497-1.497 74.477 74.478z"/></g><g><path fill="#f5f5f5" d="M115.605 225.572L.355 110.322l1.497-1.496 115.25 115.25z"/></g><g><path fill="#f5f5f5" d="M142.636 221.49L4.439 83.291l1.497-1.497 138.197 138.197z"/></g><g><path fill="#f5f5f5" d="M164.885 212.624L13.303 61.044l1.497-1.498 151.582 151.581z"/></g><g><path fill="#f5f5f5" d="M99.332 224.855l-98.26-98.258L2.57 125.1l98.26 98.258z"/></g><g><path fill="#f5f5f5" d="M129.85 224.26L1.668 96.078l1.497-1.497 128.182 128.182z"/></g><g><path fill="#f5f5f5" d="M154.258 217.554L8.374 71.67l1.497-1.497 145.884 145.884z"/></g><g><path fill="#f5f5f5" d="M174.625 206.809L19.119 51.302l1.497-1.497 155.506 155.507z"/></g><g><path fill="#f5f5f5" d="M183.554 200.18L25.748 42.374l1.497-1.497L185.05 198.683z"/></g><g><path fill="#f5f5f5" d="M191.713 192.782L33.146 34.215l1.497-1.497L193.21 191.285z"/></g><g><path fill="#f5f5f5" d="M199.11 184.623L41.306 26.817l1.497-1.497 157.806 157.806z"/></g><g><path fill="#f5f5f5" d="M205.74 175.695L50.232 20.188l1.497-1.497 155.506 155.507z"/></g><g><path fill="#f5f5f5" d="M211.555 165.954L59.975 14.374l1.496-1.498 151.581 151.58z"/></g><g><path fill="#f5f5f5" d="M216.485 155.327L70.601 9.443l1.496-1.497L217.982 153.83z"/></g><g><path fill="#f5f5f5" d="M220.42 143.706L82.222 5.507 83.72 4.01l138.197 138.197z"/></g><g><path fill="#f5f5f5" d="M223.191 130.919L95.01 2.737l1.496-1.497 128.183 128.182z"/></g><g><path fill="#f5f5f5" d="M224.503 116.674L109.253 1.424l1.497-1.496L226 115.178z"/></g><g><path fill="#f5f5f5" d="M223.786 100.4l-98.26-98.258 1.498-1.497 98.259 98.259z"/></g><g><path fill="#f5f5f5" d="M219.673 80.731L145.197 6.254l1.496-1.497 74.477 74.478z"/></g><g><path fill="#f5f5f5" d="M50.04 206.679l-30.79-30.793 1.496-1.497 30.792 30.793z"/></g><g><path fill="#f5f5f5" d="M205.61 51.11l-30.793-30.792 1.497-1.497 30.793 30.793z"/></g></g></g></svg>