<svg xmlns="http://www.w3.org/2000/svg" width="25" height="25" viewBox="0 0 25 25"><g><g><path fill="#129393" d="M12.736 14.491a1.991 1.991 0 1 1 0-3.982 1.991 1.991 0 0 1 0 3.982zm.022-10.329zm-3.507 7.84v.996c0 1.83 3.518 7.964 3.518 7.964s3.452-6.006 3.452-7.837V12c0-1.83-3.457-7.827-3.463-7.837-.003.005-3.507 6.01-3.507 7.84zm13.44.498c0 5.49-4.465 9.956-9.955 9.956S2.78 17.99 2.78 12.5c0-5.49 4.466-9.956 9.956-9.956 5.49 0 9.956 4.466 9.956 9.956zm1.992 0c0-6.588-5.36-11.947-11.947-11.947C6.148.553.789 5.913.789 12.5c0 6.587 5.36 11.947 11.947 11.947 6.587 0 11.947-5.36 11.947-11.947z"/></g></g></svg>