<svg xmlns="http://www.w3.org/2000/svg" width="99" height="100" viewBox="0 0 99 100"><defs><style>.a{fill:#129393;}.b{fill:#fff;}</style></defs><g transform="translate(-1075 -5733)"><ellipse class="a" cx="49.5" cy="50" rx="49.5" ry="50" transform="translate(1075 5733)"/><g transform="translate(1101.051 5759.549)"><path class="b" d="M338.256,155.148a.916.916,0,1,0,.916.916A.916.916,0,0,0,338.256,155.148Zm0,0" transform="translate(-306.485 -140.937)"/><path class="b" d="M156.561,336.84a.916.916,0,1,0,.916.916A.916.916,0,0,0,156.561,336.84Zm0,0" transform="translate(-141.433 -305.985)"/><path class="b" d="M46.261,5.634a.915.915,0,0,0-.857.247l-3.8,3.828H39.785l-2-2.076V5.786l3.743-3.8a.916.916,0,0,0-.36-1.511A9.167,9.167,0,0,0,29.389,11.533L22.642,18.28,11.4,7.013V4.8a.916.916,0,0,0-.445-.785L4.479.13A.915.915,0,0,0,3.36.268L.769,2.858A.917.917,0,0,0,.631,3.977l3.886,6.477A.916.916,0,0,0,5.3,10.9H7.513L18.755,22.166l-6.722,6.722A9.166,9.166,0,0,0,.978,40.663a.916.916,0,0,0,1.518.353l3.8-3.827H8.124l2.086,2.086V41.1L6.382,44.9a.916.916,0,0,0,.353,1.518,9.162,9.162,0,0,0,10.36-3.337,9.058,9.058,0,0,0,1.416-7.719l5.4-5.4,1.237,1.343-.568.567a.916.916,0,1,0,1.3,1.3l.514-.514,11.6,12.6.026.027a5.5,5.5,0,0,0,7.773-7.773l-.029-.027L33.138,25.908l.508-.508a.916.916,0,0,0-1.3-1.3l-.564.564-1.346-1.235,5.425-5.425A9.165,9.165,0,0,0,46.921,6.234.915.915,0,0,0,46.261,5.634ZM8.541,9.336a.907.907,0,0,0-.648-.26H5.822L2.57,3.648,4.149,2.069,9.568,5.321V7.392a.916.916,0,0,0,.268.647l11.51,11.536-1.3,1.3ZM31.842,27.2,44.507,38.824a3.665,3.665,0,0,1-5.183,5.182L27.684,31.361Zm-1.351-1.24-4.049,4.048-1.237-1.343,3.94-3.94Zm7.749-9.478a7.321,7.321,0,0,1-2.341-.382.918.918,0,0,0-.94.22L16.827,34.457a.916.916,0,0,0-.22.94A7.335,7.335,0,0,1,9.66,45.066a7.5,7.5,0,0,1-.8-.043l2.909-2.887a.916.916,0,0,0,.271-.65V38.895a.916.916,0,0,0-.268-.648L9.151,35.625a.916.916,0,0,0-.648-.268H5.912a.917.917,0,0,0-.651.271L2.375,38.536a7.41,7.41,0,0,1-.043-.8A7.336,7.336,0,0,1,12,30.791a.915.915,0,0,0,.94-.22L31.072,12.44a.916.916,0,0,0,.22-.94,7.335,7.335,0,0,1,6.946-9.669,7.486,7.486,0,0,1,.823.045L36.212,4.768a.915.915,0,0,0-.263.643V8a.915.915,0,0,0,.257.636l2.531,2.622a.915.915,0,0,0,.659.28h2.591a.915.915,0,0,0,.65-.271l2.887-2.909a7.41,7.41,0,0,1,.043.8A7.336,7.336,0,0,1,38.239,16.487Zm0,0" transform="translate(-0.5 0.001)"/><path class="b" d="M195.656,183.694l-11.463,11.463a.916.916,0,0,0,1.3,1.3l11.463-11.463a.916.916,0,0,0-1.3-1.3Zm0,0" transform="translate(-167.123 -166.624)"/><path class="b" d="M353.805,354.867a.916.916,0,1,0,1.294-1.3l-8.257-8.23a.916.916,0,0,0-1.294,1.3Zm0,0" transform="translate(-313.697 -313.463)"/></g></g></svg>