<svg xmlns="http://www.w3.org/2000/svg" width="99" height="99" viewBox="0 0 99 99"><defs><style>.a{fill:#129393;}.b{fill:#fff;}</style></defs><g transform="translate(-200 -5595)"><circle class="a" cx="49.5" cy="49.5" r="49.5" transform="translate(200 5595)"/><g transform="translate(226.434 5621.43)"><path class="b" d="M49.281,14.323c-1.538-1.5-2.983-.346-3.844.346-1.107.853-1.384.93-1.838.469-.769-.769.853-2.745,2.037-2.46a.769.769,0,0,0,.407-1.476,3.145,3.145,0,0,0-2.545.6l-.323-.323a.775.775,0,0,0-1.1,1.092l.331.331a2.583,2.583,0,0,0,.077,3.337c1.538,1.538,2.983.346,3.844-.338,1.107-.861,1.384-.93,1.845-.477s.123,1.238-.407,1.768a3.237,3.237,0,0,1-1.5,1,.769.769,0,1,0,0,1.538,3.468,3.468,0,0,0,2.007-.938c.315.315.477.531.846.531a.769.769,0,0,0,.546-1.315L49.35,17.7A2.46,2.46,0,0,0,49.281,14.323Z" transform="translate(-9.67 -3.332)"/><path class="b" d="M45.4,2.054C43.651.3,41.1.924,39.438,2.6L25.975,16.048l-4.106,1.1a1.3,1.3,0,0,0-.5,2.214l2.391,2.4a1.307,1.307,0,0,0,2.222-.5l1.023-3.883,5.451-1.538a2.307,2.307,0,0,1,2.268.584l5.782,5.789a2.307,2.307,0,0,0,3.268,0l6.52-6.528a2.307,2.307,0,0,0,0-3.26l-3.26-3.26c-1.861-1.907.331-5.144-1.63-7.112ZM24.645,20.407,22.739,18.5l2.591-.684Zm24.6-5.843-6.528,6.52a.769.769,0,0,1-1.084,0L35.809,15.3a3.844,3.844,0,0,0-2.722-1.13c-.769,0-.961.123-4.075,1.007L39.969,4.23l9.226,9.226a.769.769,0,0,1,.015,1.107ZM41.1,3.192c1.069-.769,2.307-.976,3.214-.046.7.7.354,2.114.361,3.621Z" transform="translate(-4.839 -0.989)"/><path class="b" d="M18.768,31.074c.415,0,.438-.115,2.084-1.761a.772.772,0,0,0-1.092-1.092L18.222,29.76a.769.769,0,0,0,.546,1.315Z" transform="translate(-4.159 -7.228)"/><path class="b" d="M23,30.769v.769a.769.769,0,0,0,1.538,0v-.769a.769.769,0,0,0-1.538,0Z" transform="translate(-5.316 -7.691)"/><path class="b" d="M19.307,25.769A.769.769,0,0,0,18.538,25h-.769a.769.769,0,1,0,0,1.538h.769A.769.769,0,0,0,19.307,25.769Z" transform="translate(-3.929 -6.536)"/><path class="b" d="M46.131,38.855a.976.976,0,0,0-1.469-.823,9.826,9.826,0,0,0-3.145,3.029V36.833a5.853,5.853,0,0,0,1.538-4.313v-.769a1.415,1.415,0,0,0-1.284-1.538H39.727a1.415,1.415,0,0,0-1.284,1.538v.769a5.853,5.853,0,0,0,1.538,4.313v4.229a9.826,9.826,0,0,0-3.145-3.029.976.976,0,0,0-1.469.823c.062,3.552,1.107,5.574,2.26,6.735H30.9c1.445-1.384,2.852-4.006,2.929-8.988a1.007,1.007,0,0,0-1.538-.846,11.74,11.74,0,0,0-3.844,4.259V33.1a5.021,5.021,0,0,0,2.307-4.421V25.6a1.538,1.538,0,0,0-1.538-1.538H26.141A1.538,1.538,0,0,0,24.6,25.6v3.075a5.021,5.021,0,0,0,2.307,4.406V40a11.74,11.74,0,0,0-3.844-4.259,1.007,1.007,0,0,0-1.538.846c.077,4.982,1.484,7.6,2.929,8.988H12.924c2.5-1.907,5.382-6.151,5.5-15.754a1.146,1.146,0,0,0-1.791-.961A19.383,19.383,0,0,0,10,37.74V19.287a3.07,3.07,0,0,0,1.722-3.075,3.737,3.737,0,0,0,2.453,1.169,2.253,2.253,0,0,0,2.2-2.691,4.106,4.106,0,0,0-1.13-2.007,4.021,4.021,0,0,0,2.214-.607c1.753-1.215,1.346-4.283-2.214-4.367,2.422-2.545.607-5.036-1.538-4.613a4.083,4.083,0,0,0-2,1.13,4.152,4.152,0,0,0-.615-2.214C9.887.228,6.82.65,6.735,4.21,4.183,1.781,1.7,3.618,2.122,5.748a4.083,4.083,0,0,0,1.13,2,4.152,4.152,0,0,0-2.214.615c-1.73,1.192-1.384,4.275,2.214,4.359a4.106,4.106,0,0,0-1.13,2.007c-.384,2.1,2.068,3.983,4.652,1.538A3.034,3.034,0,0,0,8.5,19.341V37.794a19.383,19.383,0,0,0-6.7-8.919A1.146,1.146,0,0,0,0,29.836c.131,9.6,3,13.847,5.5,15.754H.769a.769.769,0,1,0,0,1.538H45.363a.769.769,0,1,0,0-1.538H43.871c1.153-1.161,2.2-3.183,2.26-6.735Zm-1.6,1.13c-.338,3.683-1.938,4.951-2.96,5.382A7.965,7.965,0,0,1,44.532,39.985Zm-4.552-8.234h1.538v.769a5.251,5.251,0,0,1-.769,2.922,5.251,5.251,0,0,1-.769-2.922Zm-3.014,8.234a8,8,0,0,1,2.96,5.382C38.912,44.929,37.3,43.66,36.967,39.985Zm-4.713-2.307c-.346,5.513-2.537,7.181-3.767,7.689a10.9,10.9,0,0,1,3.806-7.681Zm-6.112-9V25.6h3.075v3.075a3.375,3.375,0,0,1-1.538,3.075A3.375,3.375,0,0,1,26.141,28.675ZM23.1,37.686a10.9,10.9,0,0,1,3.767,7.689C25.641,44.867,23.45,43.2,23.1,37.686ZM16.915,30.62c-.384,11.64-4.982,14.2-6.92,14.808C10.326,36.756,14.947,32.173,16.915,30.62ZM14.662,15.658a.677.677,0,0,1-.669.192A3.706,3.706,0,0,1,11.887,14,5.113,5.113,0,0,0,13,12.883a3.706,3.706,0,0,1,1.853,2.107A.684.684,0,0,1,14.662,15.658Zm1.914-6.043a.715.715,0,0,1,0,1.215,3.752,3.752,0,0,1-2.806.185,4.567,4.567,0,0,0,0-1.584A3.752,3.752,0,0,1,16.577,9.615ZM13.993,4.595a.715.715,0,0,1,.861.861A3.706,3.706,0,0,1,13,7.562a5.113,5.113,0,0,0-1.115-1.115,3.706,3.706,0,0,1,2.107-1.853ZM8.611,2.872a.715.715,0,0,1,1.215,0A3.752,3.752,0,0,1,10,5.679a4.567,4.567,0,0,0-1.584,0,3.752,3.752,0,0,1,.208-2.806ZM3.79,4.787a.692.692,0,0,1,.669-.192A3.706,3.706,0,0,1,6.566,6.448,5.113,5.113,0,0,0,5.451,7.562,3.706,3.706,0,0,1,3.6,5.456a.684.684,0,0,1,.192-.669ZM3.36,9.262a5.62,5.62,0,0,1,1.322.192,4.567,4.567,0,0,0,0,1.584,3.752,3.752,0,0,1-2.806-.185c-.661-.477-.484-1.592,1.484-1.592Zm1.1,6.589A.715.715,0,0,1,3.6,14.99a3.706,3.706,0,0,1,1.853-2.107A5.113,5.113,0,0,0,6.566,14,3.706,3.706,0,0,1,4.459,15.851Zm1.984-4.313a.769.769,0,0,0-.092-.123.531.531,0,0,0,0-.154,3.152,3.152,0,0,1,0-2.076.938.938,0,0,0,0-.131A3.414,3.414,0,0,1,7.888,7.439.638.638,0,0,0,8,7.355a3.514,3.514,0,0,1,2.237,0,.53.53,0,0,0,.154,0,4.728,4.728,0,0,1,.984.7,4.09,4.09,0,0,1,.7,1.007,4.275,4.275,0,0,1,.223,1.161,5.067,5.067,0,0,1-.2,1.192,4.728,4.728,0,0,1-.7.984,4.944,4.944,0,0,1-.984.7.53.53,0,0,0-.154,0,3.075,3.075,0,0,1-2.076,0,.53.53,0,0,0-.154,0,.769.769,0,0,0-.123-.092A3.129,3.129,0,0,1,6.443,11.537Zm2.014,3.229a4.567,4.567,0,0,0,1.584,0,3.752,3.752,0,0,1-.185,2.806.715.715,0,0,1-1.215,0,3.752,3.752,0,0,1-.185-2.806ZM1.538,30.62c1.945,1.538,6.574,6.151,6.92,14.8C6.535,44.821,1.922,42.176,1.538,30.62Z" transform="translate(0 -0.985)"/></g></g></svg>