<svg xmlns="http://www.w3.org/2000/svg" width="99" height="99" viewBox="0 0 99 99"><defs><style>.a{fill:#129393;}.b{fill:#fff;}</style></defs><g transform="translate(-1075 -5596)"><circle class="a" cx="49.5" cy="49.5" r="49.5" transform="translate(1075 5596)"/><g transform="translate(1100.775 5621.43)"><path class="b" d="M29.679,49.4H28.1v-7.75a.791.791,0,0,0-1.582,0V49.4H5.954V33.582h6.58a.791.791,0,1,0,0-1.582H5.163a.791.791,0,0,0-.791.791V49.4H2.791A.791.791,0,0,0,2,50.189V51.77a3.954,3.954,0,0,0,3.954,3.954H26.516A3.954,3.954,0,0,0,30.47,51.77V50.189A.791.791,0,0,0,29.679,49.4Zm-.791,2.372a2.372,2.372,0,0,1-2.372,2.372H24.934v-.791a.791.791,0,0,0-1.582,0v.791H9.117v-.791a.791.791,0,0,0-1.582,0v.791H5.954A2.372,2.372,0,0,1,3.582,51.77V50.98H28.888Z" transform="translate(-2 -7.485)"/><path class="b" d="M52.954,7.582h1.582a.791.791,0,1,0,0-1.582H52.954a2.372,2.372,0,0,0-2.372,2.372v.791h-.791a.791.791,0,0,0,0,1.582h.791v2.372a.791.791,0,0,0,1.582,0V10.745h.791a.791.791,0,1,0,0-1.582h-.791V8.372A.791.791,0,0,1,52.954,7.582Z" transform="translate(-11.831 -2.046)"/><path class="b" d="M55.862,2h-9.49A2.372,2.372,0,0,0,44,4.372V5.954a.791.791,0,0,0,1.582,0V4.372a.791.791,0,0,1,.791-.791h9.49a.791.791,0,0,1,.791.791v9.49a.791.791,0,0,1-.791.791h-9.49a.791.791,0,0,1-.791-.791V9.117a.791.791,0,0,0-1.582,0v4.745a2.372,2.372,0,0,0,2.372,2.372h9.49a2.372,2.372,0,0,0,2.372-2.372V4.372A2.372,2.372,0,0,0,55.862,2Z" transform="translate(-10.785 -1.209)"/><path class="b" d="M49,41.163A3.163,3.163,0,1,0,52.163,38,3.163,3.163,0,0,0,49,41.163Zm4.745,0a1.582,1.582,0,1,1-1.582-1.582A1.582,1.582,0,0,1,53.745,41.163Z" transform="translate(-11.831 -8.74)"/><path class="b" d="M55.862,33h-9.49A2.372,2.372,0,0,0,44,35.372v9.49a2.372,2.372,0,0,0,2.372,2.372h9.49a2.372,2.372,0,0,0,2.372-2.372V43.281a.791.791,0,1,0-1.582,0v1.582a.791.791,0,0,1-.791.791h-9.49a.791.791,0,0,1-.791-.791v-9.49a.791.791,0,0,1,.791-.791h9.49a.791.791,0,0,1,.791.791v4.745a.791.791,0,0,0,1.582,0V35.372A2.372,2.372,0,0,0,55.862,33Z" transform="translate(-10.785 -7.694)"/><path class="b" d="M24.372,12.209a.787.787,0,0,0,.775.032l4.745-2.372a.791.791,0,0,0,0-1.408L25.147,6.088a.791.791,0,0,0-1.147.7v4.745A.791.791,0,0,0,24.372,12.209Zm1.21-4.136,2.183,1.091-2.183,1.091Z" transform="translate(-6.602 -2.047)"/><path class="b" d="M25.117,15.235A7.117,7.117,0,1,0,18,8.117a7.117,7.117,0,0,0,7.117,7.117Zm0-12.653a5.536,5.536,0,1,1-5.536,5.536A5.536,5.536,0,0,1,25.117,2.582Z" transform="translate(-5.347 -1)"/><path class="b" d="M36.791,21.745a.791.791,0,0,0,.633-.316L39.8,18.265a.791.791,0,0,0-1.265-.949L36.158,20.48a.791.791,0,0,0,.633,1.265Z" transform="translate(-9.112 -4.347)"/><path class="b" d="M39.158,25.638a.791.791,0,0,0,1.107.158l3.163-2.372a.791.791,0,0,0-.949-1.265l-3.163,2.372a.791.791,0,0,0-.158,1.107Z" transform="translate(-9.74 -5.393)"/><path class="b" d="M47.514,28.628A.791.791,0,0,0,46.565,28l-3.954.791a.795.795,0,1,0,.158,1.582h.158l3.954-.791a.791.791,0,0,0,.633-.949Z" transform="translate(-10.345 -6.643)"/><path class="b" d="M2.791,25.235h9.49a.791.791,0,0,0,.791-.791V11.791A.791.791,0,0,0,12.281,11H2.791A.791.791,0,0,0,2,11.791V24.444a.791.791,0,0,0,.791.791Zm.791-12.653H11.49V23.653H3.582Z" transform="translate(-2 -3.092)"/><path class="b" d="M10.372,15H8.791a.791.791,0,1,0,0,1.582h1.582a.791.791,0,1,0,0-1.582Z" transform="translate(-3.255 -3.929)"/><path class="b" d="M9.954,19H6.791a.791.791,0,1,0,0,1.582H9.954a.791.791,0,1,0,0-1.582Z" transform="translate(-2.837 -4.765)"/><path class="b" d="M9.954,23H6.791a.791.791,0,1,0,0,1.582H9.954a.791.791,0,1,0,0-1.582Z" transform="translate(-2.837 -5.602)"/><path class="b" d="M30.454,27.508a.794.794,0,0,0-1.376.791l3.488,6.034L19.913,39.078h-.119l-2.056,1.186-1.368.791a1.579,1.579,0,0,1-2.159-.577l-1.582-2.736a1.582,1.582,0,0,1,.593-2.088l2.736-1.582L17.935,37.5a.794.794,0,0,0,1.376-.791l-2.04-3.527L27.2,24.993l.324.561a.794.794,0,0,0,1.376-.791L28.105,23.4a.8.8,0,0,0-1.194-.214L15.84,32.308l-3.369,1.945a3.163,3.163,0,0,0-1.455,3.582l-.791.451a2.371,2.371,0,0,0,1.186,4.429A2.42,2.42,0,0,0,12.6,42.4l.791-.451a3.068,3.068,0,0,0,1.384.822,3,3,0,0,0,.83.111,3.116,3.116,0,0,0,1.582-.427l.688-.4L19.454,44.8a2.37,2.37,0,1,0,4.1-2.372l-1.439-2.507,11.862-4.452a.793.793,0,0,0,.411-1.131ZM11.775,41.023a.79.79,0,1,1-.791-1.368l.688-.4.791,1.368Zm10.407,2.214a.79.79,0,0,1-1.368.791l-1.582-2.744,1.313-.751h.063Z" transform="translate(-3.471 -5.603)"/></g></g></svg>