<svg xmlns="http://www.w3.org/2000/svg" width="101" height="100" viewBox="0 0 101 100"><defs><style>.a{fill:#129393;}.b{fill:#fff;}</style></defs><g transform="translate(-579 -5734)"><ellipse class="a" cx="50.5" cy="50" rx="50.5" ry="50" transform="translate(579 5734)"/><g transform="translate(605 5760)"><path class="b" d="M164.618,219.433a4.9,4.9,0,0,0,1.266-3.267v-.351A4.083,4.083,0,0,0,164.25,208H155.1a1.478,1.478,0,0,0-1.47,1.47v2.613a4.083,4.083,0,0,0,2.45,3.732v.351a4.9,4.9,0,0,0,1.266,3.267A5.717,5.717,0,0,0,152,225.15v9.8a.817.817,0,1,0,1.633,0v-9.8a4.084,4.084,0,0,1,4.083-4.083h.955a2.451,2.451,0,0,0,.563,2.532l-.7,5.537a.814.814,0,0,0,.131.547l1.633,2.45a.816.816,0,0,0,1.355,0l1.633-2.45a.814.814,0,0,0,.131-.547l-.694-5.545a2.449,2.449,0,0,0,.572-2.523h.955a4.084,4.084,0,0,1,4.083,4.083v9.8a.817.817,0,1,0,1.633,0v-9.8A5.717,5.717,0,0,0,164.618,219.433Zm-6.9-3.267V212.9h6.533v3.267a3.267,3.267,0,0,1-6.533,0Zm-2.45-4.083v-2.45h8.983a2.441,2.441,0,0,1,1.633,4.263v-1.813a.817.817,0,0,0-.817-.817H156.9a.817.817,0,0,0-.817.817V213.9A2.449,2.449,0,0,1,155.267,212.083Zm5.717,18.13-.817-1.184.62-4.7h.392l.62,4.7Zm.817-8.33a.817.817,0,1,1-.817-.817A.816.816,0,0,1,161.8,221.883Zm0,0" transform="translate(-136.483 -186.767)"/><path class="b" d="M184.817,376a.817.817,0,0,0-.817.817V385.8a.817.817,0,1,0,1.633,0v-8.983A.817.817,0,0,0,184.817,376Zm0,0" transform="translate(-165.216 -337.617)"/><path class="b" d="M280.817,376a.817.817,0,0,0-.817.817V385.8a.817.817,0,1,0,1.633,0v-8.983A.817.817,0,0,0,280.817,376Zm0,0" transform="translate(-251.416 -337.617)"/><path class="b" d="M330.55,226.053a4.084,4.084,0,0,0,1.029-2.7v-3.267A4.084,4.084,0,0,0,327.5,216h-3.267a.817.817,0,0,0-.817.817v6.533a4.084,4.084,0,0,0,1.029,2.7,3.993,3.993,0,0,0-1.274.768.816.816,0,1,0,1.078,1.225,2.247,2.247,0,0,1,.5-.343l1.936,3.267v7.08a.817.817,0,1,0,1.633,0v-7.122l1.936-3.267a2.45,2.45,0,0,1,1.331,2.222v8.167a.817.817,0,0,0,1.633,0v-8.167A4.083,4.083,0,0,0,330.55,226.053Zm-5.5-2.7V220.9h4.9v2.45a2.45,2.45,0,0,1-4.9,0Zm0-5.717h2.45a2.45,2.45,0,0,1,2.311,1.633h-4.761Zm2.45,11.482-1-1.682H328.5Zm0,0" transform="translate(-289.928 -193.95)"/><path class="b" d="M66.241,226.992a4.192,4.192,0,0,0-1.47-.939,4.084,4.084,0,0,0,1.029-2.7v-4.9A2.45,2.45,0,0,0,63.35,216H60.083a2.45,2.45,0,0,0-2.45,2.45v4.9a4.083,4.083,0,0,0,1.029,2.7A4.083,4.083,0,0,0,56,229.883v8.167a.817.817,0,1,0,1.633,0v-8.167a2.449,2.449,0,0,1,1.331-2.18L60.9,230.97v7.08a.817.817,0,1,0,1.633,0v-7.122l1.936-3.267a2.333,2.333,0,0,1,.613.449.82.82,0,1,0,1.16-1.16Zm-6.974-3.642V220.9h4.9v2.45a2.45,2.45,0,0,1-4.9,0Zm0-4.9a.817.817,0,0,1,.817-.817H63.35a.817.817,0,0,1,.817.817v.817h-4.9Zm2.45,10.666-1-1.682h2.009Zm0,0" transform="translate(-50.283 -193.95)"/><path class="b" d="M104.817,20.417a.817.817,0,0,0,.817-.817V1.633h24.5V19.6a.817.817,0,0,0,1.633,0V.817A.817.817,0,0,0,130.95,0H104.817A.817.817,0,0,0,104,.817V19.6A.817.817,0,0,0,104.817,20.417Zm0,0" transform="translate(-93.383)"/><path class="b" d="M176.334,36.083a.817.817,0,0,0-.817-.817H161.633V33.633h13.884a.817.817,0,1,0,0-1.633h-14.7a.817.817,0,0,0-.817.817v3.267a.817.817,0,0,0,.817.817h14.7A.817.817,0,0,0,176.334,36.083Zm0,0" transform="translate(-143.666 -28.733)"/><path class="b" d="M140.817,120a.817.817,0,0,0-.817.817V124.9a.817.817,0,0,0,.817.817H144.9a.817.817,0,0,0,.817-.817v-4.083A.817.817,0,0,0,144.9,120Zm3.267,4.083h-2.45v-2.45h2.45Zm0,0" transform="translate(-125.708 -107.75)"/><path class="b" d="M216.9,121.633a.817.817,0,1,0,0-1.633h-4.083a.817.817,0,0,0-.817.817V124.9a.817.817,0,0,0,.817.817H216.9a.817.817,0,1,0,0-1.633h-3.267v-2.45Zm0,0" transform="translate(-190.358 -107.75)"/><path class="b" d="M284.817,125.717H288.9a.817.817,0,0,0,.817-.817v-4.083A.817.817,0,0,0,288.9,120h-4.083a.817.817,0,0,0-.817.817V124.9A.817.817,0,0,0,284.817,125.717Zm.817-4.083h2.45v2.45h-2.45Zm0,0" transform="translate(-255.008 -107.75)"/><path class="b" d="M400.167,88h-7.35a.817.817,0,1,0,0,1.633h6.533v1.633h-6.533a.817.817,0,1,0,0,1.633h6.533v1.633h-6.533a.817.817,0,1,0,0,1.633h6.533V97.8h-6.533a.817.817,0,1,0,0,1.633h6.533v1.633h-4.083a.817.817,0,1,0,0,1.633h4.083v1.633h-3.267a.817.817,0,1,0,0,1.633h3.267v17.15a.817.817,0,0,0,1.633,0v-34.3A.817.817,0,0,0,400.167,88Zm0,0" transform="translate(-351.983 -79.017)"/><path class="b" d="M8.983,32.817A.817.817,0,0,0,8.167,32H.817A.817.817,0,0,0,0,32.817V72.833a.817.817,0,0,0,1.633,0v-39.2H8.167A.817.817,0,0,0,8.983,32.817Zm0,0" transform="translate(0 -28.733)"/><path class="b" d="M36.9,73.633A.817.817,0,1,0,36.9,72H32.817a.817.817,0,0,0-.817.817v3.267a.817.817,0,0,0,.817.817H36.9a.817.817,0,1,0,0-1.633H33.633V73.633Zm0,0" transform="translate(-28.733 -64.65)"/><path class="b" d="M36.9,145.633a.817.817,0,1,0,0-1.633H32.817a.817.817,0,0,0-.817.817v3.267a.817.817,0,0,0,.817.817H36.9a.817.817,0,1,0,0-1.633H33.633v-1.633Zm0,0" transform="translate(-28.733 -129.3)"/><path class="b" d="M33.633,219.267v-1.633h.817a.817.817,0,1,0,0-1.633H32.817a.817.817,0,0,0-.817.817v3.267a.817.817,0,0,0,.817.817h.817a.817.817,0,1,0,0-1.633Zm0,0" transform="translate(-28.733 -193.95)"/></g></g></svg>