<svg xmlns="http://www.w3.org/2000/svg" width="101" height="99" viewBox="0 0 101 99"><defs><style>.a{fill:#129393;}.b{fill:#fff;}</style></defs><g transform="translate(-579 -5595)"><ellipse class="a" cx="50.5" cy="49.5" rx="50.5" ry="49.5" transform="translate(579 5595)"/><g transform="translate(603.991 5619)"><g transform="translate(0 0)"><rect class="b" width="5.2" height="1.733" transform="translate(37.269 34.558)"/><rect class="b" width="5.2" height="1.733" transform="translate(30.335 34.558)"/><rect class="b" width="5.2" height="1.733" transform="translate(23.402 34.558)"/><path class="b" d="M51.125,18.435,33.976,1.283A2.589,2.589,0,0,0,32.133.516h-.008a2.565,2.565,0,0,0-1.828.767L12.1,19.473H2.6a2.6,2.6,0,0,0-2.6,2.6V46.341a2.6,2.6,0,0,0,2.6,2.6H15.442l2.586,2.589a2.589,2.589,0,0,0,1.843.767h.007a2.566,2.566,0,0,0,1.829-.767L24.3,48.941H44.2a2.6,2.6,0,0,0,2.6-2.6v-19.9l4.318-4.318a2.586,2.586,0,0,0,0-3.683ZM40.1,9.861l-9.612,9.612h-7.36L36.42,6.181ZM31.525,2.505a.855.855,0,0,1,1.209-.014l.014.014,2.447,2.45L20.676,19.473h-6.12Zm-11.046,47.8a.843.843,0,0,1-.607.26.867.867,0,0,1-.617-.26l-1.362-1.367h3.953ZM45.07,46.341a.867.867,0,0,1-.867.867H2.6a.867.867,0,0,1-.867-.867V34.207H45.07Zm0-13.867H1.733v-5.2H45.07Zm0-6.934H1.733V22.073a.867.867,0,0,1,.867-.867H44.2a.867.867,0,0,1,.867.867Zm4.83-4.652h0l-3.1,3.1V22.073a2.6,2.6,0,0,0-2.6-2.6H32.936l8.386-8.386L49.9,19.661a.866.866,0,0,1,.26.62A.85.85,0,0,1,49.9,20.888Z" transform="translate(0 -0.516)"/><path class="b" d="M29.53,365.58a3.468,3.468,0,0,0,.354-.354,3.437,3.437,0,0,0,4.562.588,3.524,3.524,0,0,0,1.5-2.857,3.467,3.467,0,0,0-3.467-3.467,2.625,2.625,0,0,0-.513.043l-.023.006h-.025a3.422,3.422,0,0,0-2.039,1.151,3.467,3.467,0,1,0-.354,4.89Zm2.735-4.339a1.048,1.048,0,0,1,.219-.018,1.733,1.733,0,0,1,1.733,1.733,1.7,1.7,0,0,1-.341,1.017c-.031.042-.055.087-.091.131-.006.007-.015.011-.022.018a1.723,1.723,0,1,1-1.5-2.881Zm-4.981-.018a1.733,1.733,0,1,1-1.733,1.733A1.733,1.733,0,0,1,27.284,361.223Z" transform="translate(-21.217 -320.599)"/></g></g></g></svg>