<svg xmlns="http://www.w3.org/2000/svg" width="101" height="99" viewBox="0 0 101 99"><defs><style>.a{fill:#129393;}.b{fill:#fff;}</style></defs><g transform="translate(-579 -5874)"><ellipse class="a" cx="50.5" cy="49.5" rx="50.5" ry="49.5" transform="translate(579 5874)"/><g transform="translate(606.05 5899.051)"><g transform="translate(0)"><path class="b" d="M35.751,138.969l-5.784-5.784a3.271,3.271,0,0,0-2.593-.8,2.75,2.75,0,0,0-2.06,1.385c-1.352,2.342-2.634,3.615-3.919,3.891-1.022.22-2.172-.16-3.617-1.2a.916.916,0,0,0-1.068,1.488c1.9,1.361,3.507,1.838,5.071,1.5a6.592,6.592,0,0,0,3.715-2.653l7.1,7.1c-.083.056-.168.111-.255.167-4.375,2.781-13.244,5.922-23.489-4.276-10.2-10.247-7.06-19.116-4.279-23.491.056-.087.111-.172.167-.255l7.1,7.1a6.591,6.591,0,0,0-2.653,3.714c-.337,1.564.14,3.175,1.5,5.071a.916.916,0,1,0,1.488-1.068c-1.037-1.445-1.418-2.594-1.2-3.616.277-1.285,1.55-2.567,3.892-3.919a2.75,2.75,0,0,0,1.385-2.06,3.272,3.272,0,0,0-.8-2.593l-5.784-5.784a3.118,3.118,0,0,0-2.475-.876c-1.457.135-2.86,1.248-4.168,3.307A18.66,18.66,0,0,0,.011,125.929c.187,5.217,2.724,10.315,7.543,15.156,4.838,4.816,9.936,7.353,15.153,7.54.207.007.412.011.615.011a18.776,18.776,0,0,0,10-3.024c2.059-1.309,3.171-2.711,3.307-4.168A3.121,3.121,0,0,0,35.751,138.969ZM7.334,113.836a1.315,1.315,0,0,1,1.014.322c.007.009,0,0,.017.017l5.791,5.791a1.486,1.486,0,0,1,.278,1.059.909.909,0,0,1-.485.713c-.2.116-.393.231-.58.347l-7.459-7.459A2.654,2.654,0,0,1,7.334,113.836ZM26.9,134.687a.909.909,0,0,1,.713-.485,1.484,1.484,0,0,1,1.059.278l5.79,5.79c.013.013.008.009.017.017A1.314,1.314,0,0,1,34.8,141.3a2.655,2.655,0,0,1-.788,1.426l-7.459-7.459q.173-.281.347-.58Z" transform="translate(0 -101.736)"/><path class="b" d="M225.741,0a13.743,13.743,0,0,0-11.775,20.825l-.828,3.09a1.98,1.98,0,0,0,2.443,2.424l3.075-.824A13.741,13.741,0,1,0,225.741,0Zm0,25.648a11.865,11.865,0,0,1-6.441-1.891.915.915,0,0,0-.733-.115l-3.465.928-.013,0a.142.142,0,0,1-.078,0,.149.149,0,0,1-.1-.183l.931-3.476a.916.916,0,0,0-.115-.733,11.909,11.909,0,1,1,10.017,5.467Z" transform="translate(-192.581)"/><path class="b" d="M280.245,60a8.244,8.244,0,1,0,8.244,8.244A8.254,8.254,0,0,0,280.245,60Zm0,14.656a6.412,6.412,0,1,1,6.412-6.412A6.419,6.419,0,0,1,280.245,74.656Z" transform="translate(-247.085 -54.504)"/><path class="b" d="M329.166,163.555a2.748,2.748,0,0,1-3.886,0,.916.916,0,1,0-1.3,1.3,4.58,4.58,0,0,0,6.477,0,.916.916,0,0,0-1.3-1.3Z" transform="translate(-294.063 -148.33)"/><path class="b" d="M322.916,126.83a.916.916,0,1,0-.916-.916h0A.916.916,0,0,0,322.916,126.83Z" transform="translate(-292.504 -113.548)"/><path class="b" d="M382.918,125a.916.916,0,0,0-.916.916h0a.916.916,0,1,0,.916-.917Z" transform="translate(-347.01 -113.548)"/><path class="b" d="M145.371,347.542h0a.916.916,0,1,0,.917.916A.916.916,0,0,0,145.371,347.542Z" transform="translate(-131.223 -315.707)"/></g></g></g></svg>