<svg xmlns="http://www.w3.org/2000/svg" width="35" height="35" viewBox="0 0 35 35"><g><g opacity=".5"><path fill="#fff" d="M31.972 17.668c0-2.522.209-7.936-.696-10.218a5.85 5.85 0 0 0-3.295-3.295c-2.274-.897-7.697-.696-10.218-.696-2.522 0-7.936-.209-10.218.696A5.85 5.85 0 0 0 4.25 7.45c-.897 2.274-.696 7.696-.696 10.218 0 2.522-.21 7.936.696 10.218a5.85 5.85 0 0 0 3.295 3.295c2.274.897 7.696.696 10.218.696 2.521 0 7.936.209 10.218-.696a5.85 5.85 0 0 0 3.295-3.295c.905-2.274.696-7.696.696-10.218zm3.001 7.147c-.14 2.777-.774 5.237-2.8 7.263-2.027 2.034-4.486 2.669-7.263 2.8-2.862.163-11.44.163-14.302 0-2.777-.139-5.229-.773-7.263-2.8-2.034-2.026-2.669-4.486-2.8-7.263-.163-2.862-.163-11.44 0-14.302.139-2.777.766-5.236 2.8-7.263C5.379 1.224 7.839.59 10.608.458c2.862-.163 11.44-.163 14.302 0 2.777.139 5.236.773 7.263 2.8 2.034 2.026 2.668 4.486 2.8 7.263.162 2.862.162 11.432 0 14.294zM29.087 8.417a2.068 2.068 0 0 1-2.073 2.073 2.073 2.073 0 1 1 2.073-2.073zm-5.546 9.251a5.784 5.784 0 0 0-5.778-5.778 5.784 5.784 0 0 0-5.778 5.778 5.788 5.788 0 0 0 5.778 5.778 5.788 5.788 0 0 0 5.778-5.778zm3.11 0a8.873 8.873 0 0 1-8.888 8.887 8.873 8.873 0 0 1-8.888-8.887 8.873 8.873 0 0 1 8.888-8.887 8.873 8.873 0 0 1 8.887 8.887z"/></g></g></svg>