<svg xmlns="http://www.w3.org/2000/svg" width="35" height="35" viewBox="0 0 35 35"><g><g opacity=".5"><path fill="#fff" d="M29.735 30.048h-5.137v-8.047c0-1.919-.04-4.387-2.67-4.387-2.677 0-3.087 2.089-3.087 4.248v8.186h-5.138V13.505h4.929v2.26h.07c.688-1.3 2.367-2.67 4.866-2.67 5.2 0 6.167 3.428 6.167 7.885zM7.908 11.246a2.98 2.98 0 0 1-2.98-2.98 2.98 2.98 0 0 1 2.98-2.978 2.985 2.985 0 0 1 2.979 2.979 2.975 2.975 0 0 1-2.98 2.979zm-2.57 18.802V13.505h5.146v16.543zM32.189.336H2.468C1.106.336 0 1.458 0 2.836V32.5C0 33.878 1.106 35 2.468 35h29.72c1.362 0 2.476-1.122 2.476-2.5V2.836c0-1.377-1.114-2.5-2.476-2.5z"/></g></g></svg>