<svg xmlns="http://www.w3.org/2000/svg" width="206.079" height="60.042" viewBox="0 0 206.079 60.042"><defs><style>.a{fill:#fff;}</style></defs><g transform="translate(0 0.004)"><g transform="translate(0 -0.004)"><path class="a" d="M44.894,51l1.374,5.526H43.52Z" transform="translate(-22.387 -26.233)"/><path class="a" d="M49.044,2.785,44.189,7.641H9.464A9.464,9.464,0,0,0,0,17.11V39.044a9.464,9.464,0,0,0,9.464,9.469H55.731A9.464,9.464,0,0,0,65.2,39.044V9.467A9.46,9.46,0,0,0,49.044,2.785ZM33.02,38.845H27.387a.971.971,0,0,1-.971-.641l-.792-2.515h-6.25L18.588,38.2a.971.971,0,0,1-.971.641H12.038q-.612,0-.408-.641l7.25-20.395a.9.9,0,0,1,.277-.437.66.66,0,0,1,.456-.2H25.4a.66.66,0,0,1,.452.2.9.9,0,0,1,.277.437L33.384,38.2C33.506,38.612,33.394,38.845,33.02,38.845Zm21.987-6.517a10.654,10.654,0,0,1-2.384,3.433,10.93,10.93,0,0,1-3.535,2.268,11.542,11.542,0,0,1-4.361.816h-7.4a.568.568,0,0,1-.641-.641V17.809a.675.675,0,0,1,.16-.452.592.592,0,0,1,.486-.189h7.4a11.363,11.363,0,0,1,4.341.8,11,11,0,0,1,3.535,2.3,10.824,10.824,0,0,1,2.384,3.448,10.96,10.96,0,0,1,0,8.6Zm-7.182-7.667a4.662,4.662,0,0,0-1.457-.971,4.37,4.37,0,0,0-1.758-.384H43.557v9.323h1.054a4.37,4.37,0,0,0,1.768-.364,4.54,4.54,0,0,0,1.457-1.01,4.9,4.9,0,0,0,.971-1.491,4.744,4.744,0,0,0-.971-5.1Z" transform="translate(0 0.004)"/><path class="a" d="M180.935,33.94a4.648,4.648,0,0,0-.971-1.4,4.6,4.6,0,0,0-3.215-1.3,4.438,4.438,0,0,0-1.758.35,4.647,4.647,0,0,0-1.457.971,4.55,4.55,0,0,0-.971,1.4,4.089,4.089,0,0,0-.369,1.738,4.191,4.191,0,0,0,.369,1.753,4.5,4.5,0,0,0,.971,1.418,4.438,4.438,0,0,0,1.457.937,4.6,4.6,0,0,0,1.758.335,4.691,4.691,0,0,0,1.768-.335,4.37,4.37,0,0,0,1.457-.937,4.6,4.6,0,0,0,.971-1.418,4.263,4.263,0,0,0,.364-1.753,4.161,4.161,0,0,0-.374-1.758Zm0,0a4.648,4.648,0,0,0-.971-1.4,4.6,4.6,0,0,0-3.215-1.3,4.438,4.438,0,0,0-1.758.35,4.647,4.647,0,0,0-1.457.971,4.55,4.55,0,0,0-.971,1.4,4.089,4.089,0,0,0-.369,1.738,4.191,4.191,0,0,0,.369,1.753,4.5,4.5,0,0,0,.971,1.418,4.438,4.438,0,0,0,1.457.937,4.6,4.6,0,0,0,1.758.335,4.691,4.691,0,0,0,1.768-.335,4.37,4.37,0,0,0,1.457-.937,4.6,4.6,0,0,0,.971-1.418,4.263,4.263,0,0,0,.364-1.753,4.161,4.161,0,0,0-.374-1.758Zm0,0a4.648,4.648,0,0,0-.971-1.4,4.6,4.6,0,0,0-3.215-1.3,4.438,4.438,0,0,0-1.758.35,4.647,4.647,0,0,0-1.457.971,4.55,4.55,0,0,0-.971,1.4,4.089,4.089,0,0,0-.369,1.738,4.191,4.191,0,0,0,.369,1.753,4.5,4.5,0,0,0,.971,1.418,4.438,4.438,0,0,0,1.457.937,4.6,4.6,0,0,0,1.758.335,4.691,4.691,0,0,0,1.768-.335,4.37,4.37,0,0,0,1.457-.937,4.6,4.6,0,0,0,.971-1.418,4.263,4.263,0,0,0,.364-1.753,4.161,4.161,0,0,0-.374-1.758Zm53.051-1.457-1.374,5.536h2.748Zm0,0-1.374,5.536h2.748ZM180.935,33.94a4.648,4.648,0,0,0-.971-1.4,4.6,4.6,0,0,0-3.215-1.3,4.438,4.438,0,0,0-1.758.35,4.647,4.647,0,0,0-1.457.971,4.55,4.55,0,0,0-.971,1.4,4.089,4.089,0,0,0-.369,1.738,4.191,4.191,0,0,0,.369,1.753,4.5,4.5,0,0,0,.971,1.418,4.438,4.438,0,0,0,1.457.937,4.6,4.6,0,0,0,1.758.335,4.691,4.691,0,0,0,1.768-.335,4.37,4.37,0,0,0,1.457-.937,4.6,4.6,0,0,0,.971-1.418,4.263,4.263,0,0,0,.364-1.753,4.161,4.161,0,0,0-.374-1.758Zm84.74-18.2H143.724a9.469,9.469,0,0,0-9.464,9.469V54.786A9.456,9.456,0,0,0,150.4,61.468l4.856-4.856H265.675a9.469,9.469,0,0,0,9.469-9.469V25.209a9.469,9.469,0,0,0-9.469-9.469ZM161.987,42.71a6.686,6.686,0,0,1-1.884,2.253,8.469,8.469,0,0,1-2.821,1.389,12.737,12.737,0,0,1-3.525.486,9.08,9.08,0,0,1-2.253-.291,12.3,12.3,0,0,1-2.2-.792,13.348,13.348,0,0,1-2.02-1.156,13.2,13.2,0,0,1-1.68-1.36,1.738,1.738,0,0,1-.524-.714,1.069,1.069,0,0,1,.35-.631l2.952-3.4a1.214,1.214,0,0,1,.6-.32,1.942,1.942,0,0,1,.743.35c.388.272.762.544,1.112.821s.69.52,1.025.743a5.652,5.652,0,0,0,1.005.544,2.807,2.807,0,0,0,1.039.2c.971,0,1.432-.384,1.432-1.141a1.253,1.253,0,0,0-.486-.835,4.686,4.686,0,0,0-1.855-.83h.078a14.534,14.534,0,0,1-3.453-1.331,7.284,7.284,0,0,1-2.1-1.729,5.448,5.448,0,0,1-1.054-2.044,9.032,9.032,0,0,1-.291-2.326,5.618,5.618,0,0,1,.583-2.559,5.827,5.827,0,0,1,1.622-1.976,7.818,7.818,0,0,1,2.544-1.272,11.358,11.358,0,0,1,3.3-.452,13.9,13.9,0,0,1,4.094.583,8.6,8.6,0,0,1,3.569,2.282.971.971,0,0,1,.131.772,2.073,2.073,0,0,1-.452.777l-2.457,2.807a.68.68,0,0,1-.733.291,2.181,2.181,0,0,1-.758-.437,6.225,6.225,0,0,0-1.52-.971,3.758,3.758,0,0,0-1.491-.379,2.477,2.477,0,0,0-1.039.219.855.855,0,0,0-.486.864.84.84,0,0,0,.233.6,1.84,1.84,0,0,0,.583.408,4.564,4.564,0,0,0,.792.282l.845.233q1.578.486,2.88,1.025a8.643,8.643,0,0,1,2.253,1.3,5.342,5.342,0,0,1,1.457,1.9,6.585,6.585,0,0,1,.529,2.792,6.517,6.517,0,0,1-.665,3.025Zm25.251-2.632a11.236,11.236,0,0,1-2.5,3.54A11.892,11.892,0,0,1,181.085,46a11.1,11.1,0,0,1-4.37.879,11.232,11.232,0,0,1-4.4-.879,11.722,11.722,0,0,1-3.652-2.379,11.348,11.348,0,0,1-2.476-3.54,10.741,10.741,0,0,1,0-8.711,11.528,11.528,0,0,1,2.486-3.555,11.654,11.654,0,0,1,3.652-2.394,11.232,11.232,0,0,1,4.4-.879,11.1,11.1,0,0,1,4.37.879,11.848,11.848,0,0,1,3.652,2.394,11.406,11.406,0,0,1,2.5,3.555,10.741,10.741,0,0,1,0,8.711Zm22.648,3.2a.845.845,0,0,1-.311.413,10.479,10.479,0,0,1-3.622,2.428,10.945,10.945,0,0,1-3.977.758,12.111,12.111,0,0,1-4.414-.816,11.761,11.761,0,0,1-3.7-2.3,11.227,11.227,0,0,1-2.574-3.54,10.552,10.552,0,0,1-.971-4.516,10.352,10.352,0,0,1,.879-4.152,11.557,11.557,0,0,1,2.428-3.569,12.1,12.1,0,0,1,3.608-2.5,10.513,10.513,0,0,1,4.448-.971,11.926,11.926,0,0,1,2.554.248,9.847,9.847,0,0,1,2.049.675,10.2,10.2,0,0,1,1.709.971c.529.384,1.044.8,1.549,1.243a1.122,1.122,0,0,1,.325.456.549.549,0,0,1-.151.539l-4.2,3.87a.422.422,0,0,1-.612,0,3.962,3.962,0,0,0-3.156-1.287,4.215,4.215,0,0,0-1.729.364,4.73,4.73,0,0,0-2.428,2.4,3.948,3.948,0,0,0,0,3.3,4.856,4.856,0,0,0,.947,1.457,4.686,4.686,0,0,0,1.4,1.01,4.05,4.05,0,0,0,1.743.379,4.482,4.482,0,0,0,1.782-.364,4.681,4.681,0,0,0,1.491-1.01.422.422,0,0,1,.612,0l4.152,4.006a.563.563,0,0,1,.165.5Zm10.042,2.632c0,.432-.243.646-.733.646h-5.706a.568.568,0,0,1-.641-.646V25.515a.68.68,0,0,1,.16-.456.592.592,0,0,1,.486-.189h5.7a.864.864,0,0,1,.486.175.554.554,0,0,1,.248.486Zm24.561.646h-5.623a.971.971,0,0,1-.971-.646L237.1,43.4h-6.245l-.792,2.51a.971.971,0,0,1-.971.646h-5.584c-.408,0-.544-.214-.408-.646l7.25-20.395a.913.913,0,0,1,.277-.442.68.68,0,0,1,.456-.2h5.788a.66.66,0,0,1,.452.2.971.971,0,0,1,.282.442l7.25,20.395c.141.432.015.646-.374.646Zm20.2-.7a.786.786,0,0,1-.175.486.554.554,0,0,1-.486.233H248.81a.568.568,0,0,1-.646-.646V25.529a.68.68,0,0,1,.16-.456.6.6,0,0,1,.486-.189h5.375a.777.777,0,0,1,.486.175.563.563,0,0,1,.233.486V40.325h9.153a.675.675,0,0,1,.452.16.612.612,0,0,1,.189.486Zm-32.078-7.833h2.748l-1.374-5.526Zm-52.657-5.482a4.6,4.6,0,0,0-3.215-1.3,4.438,4.438,0,0,0-1.758.35,4.647,4.647,0,0,0-1.457.971,4.55,4.55,0,0,0-.971,1.4,4.088,4.088,0,0,0-.369,1.738,4.191,4.191,0,0,0,.369,1.753,4.5,4.5,0,0,0,.971,1.418,4.438,4.438,0,0,0,1.457.937,4.6,4.6,0,0,0,1.758.335,4.691,4.691,0,0,0,1.768-.335,4.37,4.37,0,0,0,1.457-.937,4.6,4.6,0,0,0,.971-1.418A4.264,4.264,0,0,0,181.3,35.7a4.162,4.162,0,0,0-.364-1.738,4.648,4.648,0,0,0-.981-1.423Zm.971,1.4a4.647,4.647,0,0,0-.971-1.4,4.6,4.6,0,0,0-3.215-1.3,4.438,4.438,0,0,0-1.758.35,4.647,4.647,0,0,0-1.457.971,4.55,4.55,0,0,0-.971,1.4,4.088,4.088,0,0,0-.369,1.738,4.191,4.191,0,0,0,.369,1.753,4.5,4.5,0,0,0,.971,1.418,4.438,4.438,0,0,0,1.457.937,4.6,4.6,0,0,0,1.758.335,4.691,4.691,0,0,0,1.768-.335,4.37,4.37,0,0,0,1.457-.937,4.6,4.6,0,0,0,.971-1.418A4.264,4.264,0,0,0,181.3,35.7a4.161,4.161,0,0,0-.364-1.758Zm0,0a4.647,4.647,0,0,0-.971-1.4,4.6,4.6,0,0,0-3.215-1.3,4.438,4.438,0,0,0-1.758.35,4.647,4.647,0,0,0-1.457.971,4.55,4.55,0,0,0-.971,1.4,4.088,4.088,0,0,0-.369,1.738,4.191,4.191,0,0,0,.369,1.753,4.5,4.5,0,0,0,.971,1.418,4.438,4.438,0,0,0,1.457.937,4.6,4.6,0,0,0,1.758.335,4.691,4.691,0,0,0,1.768-.335,4.37,4.37,0,0,0,1.457-.937,4.6,4.6,0,0,0,.971-1.418A4.264,4.264,0,0,0,181.3,35.7a4.161,4.161,0,0,0-.364-1.758Zm0,0a4.647,4.647,0,0,0-.971-1.4,4.6,4.6,0,0,0-3.215-1.3,4.438,4.438,0,0,0-1.758.35,4.647,4.647,0,0,0-1.457.971,4.55,4.55,0,0,0-.971,1.4,4.088,4.088,0,0,0-.369,1.738,4.191,4.191,0,0,0,.369,1.753,4.5,4.5,0,0,0,.971,1.418,4.438,4.438,0,0,0,1.457.937,4.6,4.6,0,0,0,1.758.335,4.691,4.691,0,0,0,1.768-.335,4.37,4.37,0,0,0,1.457-.937,4.6,4.6,0,0,0,.971-1.418A4.264,4.264,0,0,0,181.3,35.7a4.161,4.161,0,0,0-.364-1.758Zm0,0a4.647,4.647,0,0,0-.971-1.4,4.6,4.6,0,0,0-3.215-1.3,4.438,4.438,0,0,0-1.758.35,4.647,4.647,0,0,0-1.457.971,4.55,4.55,0,0,0-.971,1.4,4.088,4.088,0,0,0-.369,1.738,4.191,4.191,0,0,0,.369,1.753,4.5,4.5,0,0,0,.971,1.418,4.438,4.438,0,0,0,1.457.937,4.6,4.6,0,0,0,1.758.335,4.691,4.691,0,0,0,1.768-.335,4.37,4.37,0,0,0,1.457-.937,4.6,4.6,0,0,0,.971-1.418A4.264,4.264,0,0,0,181.3,35.7a4.161,4.161,0,0,0-.364-1.758Z" transform="translate(-69.065 -8.095)"/><path class="a" d="M293.35,111.87a.175.175,0,0,1,.044-.117.155.155,0,0,1,.126-.053h2.71a1.578,1.578,0,0,1,.641.136,1.636,1.636,0,0,1,.529.374,1.763,1.763,0,0,1,.359.549,1.665,1.665,0,0,1,.131.656,1.457,1.457,0,0,1-.35.971,2.063,2.063,0,0,1,.437.612,1.719,1.719,0,0,1,.17.748,1.691,1.691,0,0,1-.136.66,1.768,1.768,0,0,1-.369.544,1.7,1.7,0,0,1-.539.364,1.656,1.656,0,0,1-.651.131h-2.914a.15.15,0,0,1-.17-.17Zm2.71,1.583a.393.393,0,0,0-.117-.287.413.413,0,0,0-.306-.117h-.515v.792h.534a.432.432,0,0,0,.3-.107.369.369,0,0,0,.1-.282Zm.146,2.166a.486.486,0,0,0-.126-.311.379.379,0,0,0-.3-.146h-.656v.918h.675a.388.388,0,0,0,.3-.141A.485.485,0,0,0,296.205,115.618Z" transform="translate(-150.902 -57.457)"/><path class="a" d="M306.276,113.816l.879-2.01c.034-.058.058-.087.073-.092h1.787c.044,0,.063,0,.063.053a.2.2,0,0,1-.053.1l-1.831,3.4v2.049c0,.112-.063.17-.189.17h-1.5a.151.151,0,0,1-.17-.17v-2.083l-1.826-3.4a.179.179,0,0,1-.044-.1.049.049,0,0,1,.053-.053h1.787a.4.4,0,0,1,.073.092Z" transform="translate(-156.108 -57.447)"/><path class="a" d="M326.158,117.289c.034.112,0,.17-.1.17h-1.5a.262.262,0,0,1-.257-.17l-.209-.665h-1.661l-.209.665a.257.257,0,0,1-.257.17h-1.481c-.107,0-.146-.058-.107-.17l1.942-5.419a.257.257,0,0,1,.073-.117.185.185,0,0,1,.121-.053h1.534a.184.184,0,0,1,.121.053.257.257,0,0,1,.073.117Zm-3.253-2.1h.728l-.364-1.457Z" transform="translate(-164.797 -57.458)"/><path class="a" d="M334.1,111.869a.175.175,0,0,1,.044-.117.16.16,0,0,1,.126-.053h1.967a2.89,2.89,0,0,1,2.724,4.03,2.952,2.952,0,0,1-.631.913,2.914,2.914,0,0,1-.942.6,3.036,3.036,0,0,1-1.151.219h-1.967a.151.151,0,0,1-.17-.17Zm2.1,3.943a1.093,1.093,0,0,0,.486-.1,1.074,1.074,0,0,0,.384-.267,1.2,1.2,0,0,0,.257-.393,1.286,1.286,0,0,0-.257-1.36,1.209,1.209,0,0,0-.384-.267,1.166,1.166,0,0,0-.486-.1h-.277v2.477Z" transform="translate(-171.863 -57.457)"/><path class="a" d="M356.388,117.289c.034.112,0,.17-.1.17H354.8a.253.253,0,0,1-.252-.17l-.214-.665h-1.661l-.209.665a.252.252,0,0,1-.253.17h-1.486c-.107,0-.146-.058-.107-.17l1.942-5.419a.257.257,0,0,1,.073-.117.194.194,0,0,1,.121-.053h1.539a.179.179,0,0,1,.117.053.324.324,0,0,1,.078.117Zm-3.253-2.1h.733l-.369-1.457Z" transform="translate(-180.352 -57.458)"/><path class="a" d="M367.636,117.34a.257.257,0,0,1-.1.141.141.141,0,0,1-.092.029h-1.593a.112.112,0,0,1-.049,0,.2.2,0,0,1-.058-.087.311.311,0,0,1-.034-.092l-.354-.971-.369,1a.257.257,0,0,1-.1.141.141.141,0,0,1-.092.029h-1.593a.112.112,0,0,1-.049,0,.238.238,0,0,1-.092-.141l-1.942-5.419c-.039-.112,0-.17.1-.17h1.486a.253.253,0,0,1,.257.17l1.039,3.176.971-3.176a.252.252,0,0,1,.257-.17h1.486c.107,0,.141.058.1.17l-.558,1.8.4,1.369,1.039-3.166a.262.262,0,0,1,.257-.17h1.491c.1,0,.136.058.1.17Z" transform="translate(-185.759 -57.508)"/><path class="a" d="M382.74,117.289c.039.112,0,.17-.1.17h-1.491a.257.257,0,0,1-.257-.17l-.209-.665h-1.661l-.209.665a.257.257,0,0,1-.257.17h-1.481c-.112,0-.146-.058-.112-.17l1.942-5.419a.257.257,0,0,1,.073-.117.184.184,0,0,1,.121-.053h1.534a.184.184,0,0,1,.121.053.257.257,0,0,1,.073.117Zm-3.249-2.1h.728l-.364-1.457Z" transform="translate(-193.909 -57.458)"/><path class="a" d="M390.649,111.87a.174.174,0,0,1,.044-.117.165.165,0,0,1,.131-.053h2.588a1.845,1.845,0,0,1,1.34.558,1.942,1.942,0,0,1,.3,2.287,1.8,1.8,0,0,1-.665.685l1.112,2.059a.126.126,0,0,1-.024.126.151.151,0,0,1-.107.044h-1.578a.233.233,0,0,1-.15-.049.2.2,0,0,1-.083-.121l-.8-1.646h-.228v1.646c0,.112-.058.17-.184.17h-1.53a.155.155,0,0,1-.175-.17Zm2.865,1.758a.486.486,0,0,0-.121-.316.388.388,0,0,0-.306-.146h-.6v.918h.6a.4.4,0,0,0,.306-.141A.486.486,0,0,0,393.514,113.628Z" transform="translate(-200.949 -57.457)"/><path class="a" d="M402.439,111.87a.175.175,0,0,1,.044-.117.165.165,0,0,1,.131-.053h1.942a3.03,3.03,0,0,1,2.093.83,2.878,2.878,0,0,1,.631,3.2,2.87,2.87,0,0,1-.631.913,2.913,2.913,0,0,1-.942.6,3.035,3.035,0,0,1-1.151.219h-1.942a.155.155,0,0,1-.175-.17Zm2.107,3.943a1.18,1.18,0,0,0,.869-.364,1.2,1.2,0,0,0,.257-.393,1.285,1.285,0,0,0-.257-1.36,1.209,1.209,0,0,0-.384-.267,1.16,1.16,0,0,0-.486-.1h-.282v2.477Z" transform="translate(-207.019 -57.457)"/><path class="a" d="M415.179,115.152c.1.073.2.141.291.214s.185.141.272.2a1.811,1.811,0,0,0,.267.146.8.8,0,0,0,.277.053c.253,0,.384-.1.384-.3a.335.335,0,0,0-.131-.223,1.254,1.254,0,0,0-.486-.223h0a3.783,3.783,0,0,1-.918-.35,1.941,1.941,0,0,1-.558-.486,1.427,1.427,0,0,1-.277-.539,2.334,2.334,0,0,1-.078-.617,1.458,1.458,0,0,1,.155-.68,1.544,1.544,0,0,1,.432-.524,2.1,2.1,0,0,1,.675-.34,3.127,3.127,0,0,1,.879-.121,3.748,3.748,0,0,1,1.088.155,2.316,2.316,0,0,1,.947.607.286.286,0,0,1,.034.2.553.553,0,0,1-.121.209l-.651.743a.18.18,0,0,1-.194.078.549.549,0,0,1-.2-.117,1.49,1.49,0,0,0-.4-.253.971.971,0,0,0-.393-.1.641.641,0,0,0-.277.058.223.223,0,0,0-.131.228.238.238,0,0,0,.063.16.52.52,0,0,0,.155.107,1.169,1.169,0,0,0,.209.073l.228.063c.277.087.534.18.762.272a2.22,2.22,0,0,1,.6.345,1.385,1.385,0,0,1,.393.486,1.762,1.762,0,0,1,.141.743,1.724,1.724,0,0,1-.185.8,1.7,1.7,0,0,1-.486.6,2.2,2.2,0,0,1-.748.369,3.4,3.4,0,0,1-.937.126,2.589,2.589,0,0,1-.6-.078,3.279,3.279,0,0,1-.588-.214,3.883,3.883,0,0,1-.534-.306,3.8,3.8,0,0,1-.447-.359.436.436,0,0,1-.136-.189.279.279,0,0,1,.092-.17l.782-.9a.326.326,0,0,1,.16-.087A.559.559,0,0,1,415.179,115.152Z" transform="translate(-212.94 -57.283)"/></g></g></svg>