<svg xmlns="http://www.w3.org/2000/svg" width="24" height="25" viewBox="0 0 24 25"><g><g><path fill="#129393" d="M19.164 9.472l-3.517 5.567a1.8 1.8 0 0 1-2.597.479l-2.798-2.094a.723.723 0 0 0-.867 0l-3.776 2.863c-.504.382-1.164-.221-.824-.755l3.517-5.567a1.8 1.8 0 0 1 2.597-.479l2.797 2.094c.257.193.61.193.867 0l3.778-2.86c.503-.385 1.163.218.823.752zM11.974.553C5.228.553 0 5.483 0 12.143c0 3.483 1.431 6.493 3.761 8.572.402.362.32.571.388 2.805a.96.96 0 0 0 1.343.847c2.549-1.123 2.582-1.211 3.014-1.094 7.385 2.033 15.39-2.693 15.39-11.13 0-6.66-5.175-11.59-11.922-11.59z"/></g></g></svg>