<svg xmlns="http://www.w3.org/2000/svg" width="69" height="69" viewBox="0 0 69 69"><g><g><g><g><g><path d="M35.277 66.435a1.352 1.352 0 0 0-.949-.393c-.353 0-.699.144-.949.393-.25.25-.393.596-.393.95 0 .352.144.699.393.948.25.25.596.394.95.394.353 0 .699-.144.948-.394.25-.25.394-.596.394-.949s-.144-.7-.394-.949z"/></g></g></g><g><g><g><path d="M66.042 60.673h-2.685v-5.964a1.342 1.342 0 0 0-2.684 0v5.964h-4.05v-.68c0-2.94-1.012-5.672-2.744-7.827l2.785-6.67 4.266 1.018a6.638 6.638 0 0 1 5.112 6.478zM50.322 44.03a1.341 1.341 0 0 0 .01-.184v-1.658a8.845 8.845 0 0 0 4.06-.002v1.707c-.001.024 0 .048.002.073l-2.05 4.907zm-3.285 3.816l-4.245-1.014c.319-.132.648-.24.987-.321l4.245-1.017 1.313 3.144a12.62 12.62 0 0 0-2.3-.792zm-6.642-4.752a11.897 11.897 0 0 0 4.493-4.773 8.928 8.928 0 0 0 2.759 2.742v1.76L43.154 43.9a9.323 9.323 0 0 0-2.76 1.154zm-6.018-1.033c-5.033 0-9.128-4.095-9.128-9.128v-3.105h3.777a12.81 12.81 0 0 0 9.072-3.75l5.4 3.171v4c-.168 4.887-4.193 8.812-9.12 8.812zm3.333 4.975l-3.352 7.623-3.357-7.637v-2.769c1.07.32 2.203.492 3.376.492 1.157 0 2.276-.168 3.333-.48v2.771zm-9.393-1.992a9.32 9.32 0 0 0-2.744-1.144l-4.493-1.076v-1.76a8.923 8.923 0 0 0 2.774-2.767 11.897 11.897 0 0 0 4.463 4.772zm-6.663 2.798c-.793.19-1.55.454-2.27.78l1.308-3.13 4.256 1.019c.33.079.651.184.963.31zm-5.284 1.03l-2.038-4.882a1.36 1.36 0 0 0 .004-.097v-1.707a8.852 8.852 0 0 0 2.034.238c.697 0 1.374-.083 2.025-.236v1.62l-.002.076c0 .042.004.084.008.126zm-4.294 11.114v.687H8.054v-5.964a1.342 1.342 0 0 0-2.685 0v5.964H2.685v-7.681a6.638 6.638 0 0 1 5.112-6.478l4.255-1.016 2.777 6.652a12.461 12.461 0 0 0-2.753 7.836zm-1.88-26.421v-1.85h3.839c2.957 0 5.87-.682 8.51-1.982v3.832a6.182 6.182 0 0 1-6.175 6.175 6.182 6.182 0 0 1-6.175-6.175zm0-4.67v-.333a6.182 6.182 0 0 1 6.174-6.174 6.186 6.186 0 0 1 5.926 4.437 16.586 16.586 0 0 1-8.262 2.205h-3.839zm15.053-2.93c0-5.033 4.095-9.127 9.128-9.127s9.128 4.094 9.128 9.127v.176l-4.982-2.927a1.342 1.342 0 0 0-1.709.295 10.137 10.137 0 0 1-7.788 3.635H25.25zm20.933 7.38c.005-.136.008-3.608.008-3.608a19.27 19.27 0 0 0 8.502 1.977h3.84v1.851a6.182 6.182 0 0 1-6.175 6.175 6.182 6.182 0 0 1-6.175-6.175v-.22zm6.175-10.957a6.182 6.182 0 0 1 6.175 6.174v.468h-3.84c-2.9 0-5.75-.762-8.261-2.205a6.186 6.186 0 0 1 5.926-4.437zm9.196 21.515l-4.477-1.07v-1.776a8.859 8.859 0 0 0 4.14-7.492v-5.003c0-4.885-3.974-8.859-8.86-8.859a8.839 8.839 0 0 0-6.627 2.99c-1.423-4.927-5.973-8.54-11.352-8.54-5.387 0-9.943 3.625-11.358 8.564a8.839 8.839 0 0 0-6.649-3.014c-4.885 0-8.86 3.975-8.86 8.86v5.002a8.859 8.859 0 0 0 4.142 7.492v1.777l-4.478 1.07A9.314 9.314 0 0 0 0 52.991v9.023c0 .741.601 1.342 1.342 1.342h10.734v4.027c0 .742.601 1.343 1.342 1.343h14.726a1.342 1.342 0 0 0 0-2.685h-5.992v-5.908a1.342 1.342 0 0 0-2.685 0v5.908H14.76v-6.056a9.773 9.773 0 0 1 7.518-9.534l6.602-1.582 4.248 9.664a1.342 1.342 0 1 0 2.458 0l4.243-9.65 6.583 1.573a9.771 9.771 0 0 1 7.526 9.535v1.498a1.338 1.338 0 0 0 0 1.05v3.502h-4.68v-5.908a1.342 1.342 0 0 0-2.684 0v5.908h-6.574a1.342 1.342 0 0 0 0 2.685h15.28c.741 0 1.342-.601 1.342-1.343v-4.027h10.761c.742 0 1.343-.6 1.343-1.342v-9.023c0-4.342-2.95-8.08-7.174-9.089z"/></g></g></g><g><g><g><path d="M30.81 31.434a1.352 1.352 0 0 0-.949-.393c-.353 0-.7.144-.949.393-.25.25-.393.596-.393.95 0 .352.143.699.393.948.25.25.596.394.95.394s.699-.144.948-.394c.251-.25.394-.596.394-.949s-.143-.699-.394-.949z"/></g></g></g><g><g><g><path d="M39.786 31.434a1.352 1.352 0 0 0-.949-.393c-.353 0-.699.144-.949.393-.25.25-.393.596-.393.95 0 .352.143.699.393.948.25.25.596.394.95.394a1.347 1.347 0 0 0 1.342-1.342c0-.354-.143-.7-.394-.95z"/></g></g></g><g><g><g><path d="M36.947 35.953a1.343 1.343 0 0 0-1.898 0 1.02 1.02 0 0 1-1.44 0 1.343 1.343 0 0 0-1.899 1.898 3.692 3.692 0 0 0 2.619 1.083 3.69 3.69 0 0 0 2.618-1.083 1.342 1.342 0 0 0 0-1.898z"/></g></g></g><g><g><g><path d="M55.502 7.248h-.92a1.342 1.342 0 0 0 0 2.685h.92a1.342 1.342 0 0 0 0-2.684z"/></g></g></g><g><g><g><path d="M62.015 7.248h-.92a1.342 1.342 0 0 0 0 2.685h.92a1.342 1.342 0 0 0 0-2.684z"/></g></g></g><g><g><g><path d="M58.298 10.045c-.74 0-1.342.6-1.342 1.342v.92a1.342 1.342 0 1 0 2.685 0v-.92c0-.741-.601-1.342-1.343-1.342z"/></g></g></g><g><g><g><path d="M58.298 3.532c-.74 0-1.342.6-1.342 1.342v.92a1.342 1.342 0 1 0 2.685 0v-.92c0-.741-.601-1.342-1.343-1.342z"/></g></g></g><g><g><g><path d="M7.558 7.248h-.92a1.342 1.342 0 0 0 0 2.685h.92a1.342 1.342 0 0 0 0-2.684z"/></g></g></g><g><g><g><path d="M14.07 7.248h-.92a1.342 1.342 0 0 0 0 2.685h.92a1.342 1.342 0 0 0 0-2.684z"/></g></g></g><g><g><g><path d="M10.354 10.045c-.741 0-1.342.6-1.342 1.342v.92a1.342 1.342 0 1 0 2.684 0v-.92c0-.741-.6-1.342-1.342-1.342z"/></g></g></g><g><g><g><path d="M10.354 3.532c-.741 0-1.342.6-1.342 1.342v.92a1.342 1.342 0 1 0 2.684 0v-.92c0-.741-.6-1.342-1.342-1.342z"/></g></g></g><g><g><g><path d="M34.363 5.112c-.74 0-1.342.601-1.342 1.343v3.531a1.342 1.342 0 0 0 2.685 0V6.455c0-.742-.601-1.343-1.343-1.343z"/></g></g></g><g><g><g><path d="M35.312.393A1.352 1.352 0 0 0 34.363 0c-.353 0-.699.144-.949.393-.25.25-.393.596-.393.95 0 .352.144.699.393.948.25.25.596.394.95.394.352 0 .699-.144.948-.394.25-.25.394-.596.394-.949s-.144-.699-.394-.949z"/></g></g></g><g><g><g><path d="M29.66 5.385l-1.965-1.964a1.343 1.343 0 0 0-1.899 1.898l1.965 1.965c.262.262.606.393.95.393a1.342 1.342 0 0 0 .95-2.292z"/></g></g></g><g><g><g><path d="M42.93 3.347a1.343 1.343 0 0 0-1.898 0l-2.03 2.03A1.343 1.343 0 0 0 40.9 7.275l2.03-2.03a1.343 1.343 0 0 0 0-1.898z"/></g></g></g></g></g></svg>