<svg xmlns="http://www.w3.org/2000/svg" width="24" height="24" viewBox="0 0 24 24"><g><g><path fill="#129393" d="M22.779 18.918c-.898-.897-3.053-2.247-4.116-2.753-1.233-.593-1.685-.58-2.558.048-.727.526-1.197 1.014-2.034.83-.836-.176-2.485-1.428-4.085-3.022-1.6-1.6-2.845-3.248-3.022-4.085-.177-.843.311-1.307.83-2.033.63-.873.647-1.325.049-2.559-.507-1.068-1.85-3.218-2.754-4.115C4.191.33 3.99.526 3.495.703c0 0-.732.294-1.459.776-.898.598-1.398 1.1-1.753 1.85-.348.751-.75 2.15 1.301 5.801 1.655 2.95 3.28 5.184 5.691 7.59l.006.006.006.006c2.412 2.412 4.641 4.037 7.59 5.691 3.652 2.052 5.05 1.65 5.801 1.301.751-.348 1.252-.849 1.85-1.752.483-.727.776-1.46.776-1.46.177-.494.379-.696-.525-1.594z"/></g></g></svg>