<svg xmlns="http://www.w3.org/2000/svg" width="106" height="106" viewBox="0 0 106 106"><g><g><g><g><g><path fill="#fff" d="M98.41 32.111a3.5 3.5 0 0 1-3.496-3.496 3.5 3.5 0 0 1 3.497-3.497 3.5 3.5 0 0 1 3.496 3.497 3.5 3.5 0 0 1-3.496 3.496zm0-10.49a7 7 0 0 0-6.992 6.994 7 7 0 0 0 6.993 6.992 7 7 0 0 0 6.992-6.992 7 7 0 0 0-6.992-6.993z"/></g></g></g><g><g><g><path fill="#fff" d="M7.504 89.801a3.5 3.5 0 0 1-3.496-3.496 3.5 3.5 0 0 1 3.496-3.496 3.5 3.5 0 0 1 3.497 3.496 3.5 3.5 0 0 1-3.497 3.496zm0-10.489a7 7 0 0 0-6.992 6.993 7 7 0 0 0 6.992 6.993 7 7 0 0 0 6.993-6.993 7 7 0 0 0-6.993-6.993z"/></g></g></g><g><g><g><path fill="#fff" d="M95.021 23.832L79.939 16.55a1.748 1.748 0 0 0-1.52 3.149l15.083 7.281a1.745 1.745 0 0 0 2.334-.815 1.749 1.749 0 0 0-.815-2.333z"/></g></g></g><g><g><g><path fill="#fff" d="M79.18 102.039a3.5 3.5 0 0 1-3.496-3.497 3.5 3.5 0 0 1 3.497-3.496 3.5 3.5 0 0 1 3.496 3.497 3.5 3.5 0 0 1-3.496 3.496zm0-10.49a7 7 0 0 0-6.992 6.993 7 7 0 0 0 6.993 6.993 7 7 0 0 0 6.992-6.992 7 7 0 0 0-6.992-6.993z"/></g></g></g><g><g><g><path fill="#fff" d="M75.79 93.76l-15.08-7.282a1.748 1.748 0 0 0-1.519 3.149l15.08 7.281a1.745 1.745 0 0 0 2.334-.815 1.749 1.749 0 0 0-.814-2.334z"/></g></g></g><g><g><g><path fill="#fff" d="M52.958 58.334a3.5 3.5 0 0 1-3.497-3.496 3.5 3.5 0 0 1 3.497-3.497 3.5 3.5 0 0 1 3.496 3.497 3.5 3.5 0 0 1-3.496 3.496zm0-10.49a7 7 0 0 0-6.993 6.994 7 7 0 0 0 6.993 6.992 7 7 0 0 0 6.992-6.992 7 7 0 0 0-6.992-6.993z"/></g></g></g><g><g><g><path fill="#fff" d="M49.884 50.25L38.3 41.22a1.75 1.75 0 0 0-2.15 2.759l11.585 9.03a1.747 1.747 0 0 0 2.15-2.759z"/></g></g></g><g><g><g><path fill="#fff" d="M84.425 81.06c-8.676 0-15.734-7.057-15.734-15.733 0-8.677 7.058-15.734 15.734-15.734s15.734 7.057 15.734 15.734c0 8.676-7.058 15.733-15.734 15.733zm0-34.963c-10.603 0-19.23 8.627-19.23 19.23s8.627 19.23 19.23 19.23 19.23-8.627 19.23-19.23-8.627-19.23-19.23-19.23z"/></g></g></g><g><g><g><path fill="#fff" d="M84.425 63.579a3.5 3.5 0 0 1-3.496-3.497 3.5 3.5 0 0 1 3.496-3.496 3.5 3.5 0 0 1 3.497 3.496 3.5 3.5 0 0 1-3.497 3.497zm0-10.49a7 7 0 0 0-6.993 6.993 7 7 0 0 0 6.993 6.993 7 7 0 0 0 6.993-6.993 7 7 0 0 0-6.993-6.993z"/></g></g></g><g><g><g><path fill="#fff" d="M91.418 79.408c-4.351 2.168-9.635 2.168-13.986 0v-3.564c0-.98.862-1.776 1.921-1.776h10.143c1.06 0 1.922.797 1.922 1.776v3.564zm-1.921-8.837H79.354c-2.988 0-5.418 2.366-5.418 5.271v4.608c0 .624.332 1.201.872 1.514a19.228 19.228 0 0 0 9.617 2.593c3.362 0 6.687-.897 9.617-2.593.54-.31.872-.89.872-1.512v-4.608c0-2.907-2.43-5.273-5.417-5.273z"/></g></g></g><g><g><g><path fill="#fff" d="M42.468 102.039c-8.676 0-15.733-7.058-15.733-15.734s7.057-15.734 15.733-15.734c8.677 0 15.734 7.058 15.734 15.734s-7.057 15.734-15.734 15.734zm0-34.964c-10.602 0-19.23 8.627-19.23 19.23s8.628 19.23 19.23 19.23c10.603 0 19.23-8.627 19.23-19.23s-8.627-19.23-19.23-19.23z"/></g></g></g><g><g><g><path fill="#fff" d="M42.468 84.557a3.5 3.5 0 0 1-3.496-3.497 3.5 3.5 0 0 1 3.496-3.496 3.5 3.5 0 0 1 3.497 3.496 3.5 3.5 0 0 1-3.497 3.497zm0-10.49a7 7 0 0 0-6.992 6.993 7 7 0 0 0 6.992 6.993 7 7 0 0 0 6.993-6.993 7 7 0 0 0-6.993-6.992z"/></g></g></g><g><g><g><path fill="#fff" d="M49.461 100.387c-4.351 2.167-9.634 2.167-13.986 0v-3.565c0-.979.862-1.776 1.922-1.776H47.54c1.059 0 1.92.797 1.92 1.776v3.565zM47.54 91.55H37.397c-2.988 0-5.418 2.365-5.418 5.27v4.609c0 .624.332 1.2.873 1.514a19.228 19.228 0 0 0 9.616 2.592c3.362 0 6.687-.897 9.617-2.592.54-.312.873-.89.873-1.512v-4.609c0-2.907-2.43-5.272-5.418-5.272z"/></g></g></g><g><g><g><path fill="#fff" d="M19.742 58.334c-8.676 0-15.734-7.057-15.734-15.734 0-8.676 7.058-15.734 15.734-15.734S35.476 33.924 35.476 42.6c0 8.677-7.058 15.734-15.734 15.734zm0-34.964C9.139 23.37.512 31.997.512 42.6s8.627 19.23 19.23 19.23 19.23-8.627 19.23-19.23-8.627-19.23-19.23-19.23z"/></g></g></g><g><g><g><path fill="#fff" d="M19.742 40.852a3.5 3.5 0 0 1-3.497-3.496 3.5 3.5 0 0 1 3.497-3.497 3.5 3.5 0 0 1 3.496 3.497 3.5 3.5 0 0 1-3.496 3.496zm0-10.49a7 7 0 0 0-6.993 6.994 7 7 0 0 0 6.993 6.992 7 7 0 0 0 6.993-6.992 7 7 0 0 0-6.993-6.993z"/></g></g></g><g><g><g><path fill="#fff" d="M26.735 56.682c-4.352 2.168-9.635 2.168-13.986 0v-3.565c0-.979.862-1.776 1.921-1.776h10.143c1.06 0 1.921.797 1.921 1.776v3.565zm-1.922-8.837H14.67c-2.987 0-5.417 2.365-5.417 5.27v4.609c0 .624.332 1.2.872 1.514a19.228 19.228 0 0 0 9.617 2.592c3.362 0 6.687-.896 9.617-2.592.54-.311.872-.89.872-1.512v-4.609c0-2.907-2.43-5.272-5.418-5.272z"/></g></g></g><g><g><g><path fill="#fff" d="M61.699 35.608c-8.677 0-15.734-7.058-15.734-15.734 0-8.677 7.057-15.734 15.734-15.734 8.676 0 15.733 7.057 15.733 15.734 0 8.676-7.057 15.734-15.733 15.734zm0-34.964c-10.603 0-19.23 8.627-19.23 19.23s8.627 19.23 19.23 19.23c10.602 0 19.23-8.627 19.23-19.23S72.3.644 61.699.644z"/></g></g></g><g><g><g><path fill="#fff" d="M61.699 18.125a3.5 3.5 0 0 1-3.497-3.496 3.5 3.5 0 0 1 3.497-3.496 3.5 3.5 0 0 1 3.496 3.496 3.5 3.5 0 0 1-3.496 3.496zm0-10.489a7 7 0 0 0-6.993 6.993 7 7 0 0 0 6.993 6.993 7 7 0 0 0 6.992-6.993A7 7 0 0 0 61.7 7.636z"/></g></g></g><g><g><g><path fill="#fff" d="M68.691 33.955c-4.35 2.168-9.634 2.168-13.985 0v-3.564c0-.979.862-1.776 1.92-1.776H66.77c1.06 0 1.921.797 1.921 1.776v3.564zm-1.92-8.837H56.626c-2.987 0-5.418 2.366-5.418 5.271v4.608c0 .624.333 1.201.873 1.514a19.228 19.228 0 0 0 9.617 2.593c3.361 0 6.686-.897 9.616-2.593.54-.31.873-.89.873-1.512v-4.608c0-2.907-2.43-5.273-5.418-5.273z"/></g></g></g><g><g><g><path fill="#fff" d="M45.547 18.736a1.75 1.75 0 0 0-2.465-.191L30.967 28.912a1.748 1.748 0 1 0 2.273 2.655L45.355 21.2c.734-.627.82-1.73.192-2.464z"/></g></g></g><g><g><g><path fill="#fff" d="M84.075 46.798L73.586 32.812a1.749 1.749 0 0 0-2.797 2.096l10.49 13.986a1.747 1.747 0 0 0 2.796-2.096z"/></g></g></g><g><g><g><path fill="#fff" d="M69.728 71.108a1.749 1.749 0 0 0-2.448-.35l-9.765 7.324a1.747 1.747 0 1 0 2.098 2.795l9.765-7.323a1.746 1.746 0 0 0 .35-2.446z"/></g></g></g><g><g><g><path fill="#fff" d="M24.987 84.557H12.749a1.748 1.748 0 1 0 0 3.496h12.237a1.748 1.748 0 1 0 0-3.496z"/></g></g></g><g><g><g><path fill="#fff" d="M19.742 11.133a3.5 3.5 0 0 1-3.497-3.497 3.5 3.5 0 0 1 3.497-3.496 3.5 3.5 0 0 1 3.496 3.496 3.5 3.5 0 0 1-3.496 3.497zm0-10.49a7 7 0 0 0-6.993 6.993 7 7 0 0 0 6.993 6.993 7 7 0 0 0 6.992-6.993A7 7 0 0 0 19.742.644z"/></g></g></g><g><g><g><path fill="#fff" d="M19.742 11.133c-.965 0-1.748.781-1.748 1.748v12.237a1.748 1.748 0 1 0 3.496 0V12.881c0-.967-.783-1.748-1.748-1.748z"/></g></g></g></g></g></svg>