<svg xmlns="http://www.w3.org/2000/svg" width="104" height="94" viewBox="0 0 104 94"><g><g><g><path fill="#fff" d="M81.316 57.281a3.384 3.384 0 0 0-3.541.794 3.38 3.38 0 0 0-.81 3.545l1.304 3.533H60.294a2.028 2.028 0 1 0 0 4.056h19.471l1.497 4.056H11.624a2.03 2.03 0 0 1-2.028-2.028V69.21h32.447a2.028 2.028 0 1 0 0-4.056H9.596v-32.52a8.257 8.257 0 0 0 5.172-2.775 8.247 8.247 0 0 0 6.236 2.847 8.247 8.247 0 0 0 6.236-2.847 8.247 8.247 0 0 0 6.236 2.847 8.247 8.247 0 0 0 6.236-2.847 8.247 8.247 0 0 0 6.236 2.847 8.247 8.247 0 0 0 6.236-2.847 8.247 8.247 0 0 0 6.236 2.847 8.247 8.247 0 0 0 6.236-2.847 8.247 8.247 0 0 0 6.236 2.847 8.247 8.247 0 0 0 6.236-2.847 8.247 8.247 0 0 0 6.236 2.847 8.247 8.247 0 0 0 6.236-2.847 8.257 8.257 0 0 0 5.171 2.776v29.608zm18.46 19.816l-2.992 2.991-4.425-4.425a2.021 2.021 0 0 0-1.434-.594c-.52 0-1.038.198-1.434.594l-2.207 2.207-6.006-16.28 16.282 6.003-2.21 2.21a2.028 2.028 0 0 0 0 2.868zM59.03 89.49H43.31l1.476-12.168h12.767zM4.324 18.877L9.785 4.313h6.869L12.816 17.96c-.05.179-.076.364-.076.55v5.93a4.213 4.213 0 0 1-4.208 4.209 4.213 4.213 0 0 1-4.208-4.208zm74.797-.741L76.529 4.313H83.5l4.072 14.476v5.652a4.213 4.213 0 0 1-4.208 4.208 4.213 4.213 0 0 1-4.208-4.208v-5.932c0-.125-.012-.25-.035-.373zm-12.446.184L65.362 4.313h7.04L75.1 18.698v5.743a4.213 4.213 0 0 1-4.208 4.208 4.213 4.213 0 0 1-4.208-4.208v-5.932c0-.063-.003-.126-.01-.19zM54.212 4.313h7.076l1.34 14.291v5.837a4.213 4.213 0 0 1-4.208 4.208 4.213 4.213 0 0 1-4.208-4.208zM41.74 18.604l1.34-14.291h7.076V24.44a4.213 4.213 0 0 1-4.208 4.208 4.213 4.213 0 0 1-4.208-4.208zm-12.472.094l2.697-14.385h7.04L37.694 18.32a2.035 2.035 0 0 0-.01.19v5.93a4.213 4.213 0 0 1-4.207 4.209 4.213 4.213 0 0 1-4.208-4.208zm-12.472.091l4.071-14.476h6.971l-2.591 13.823a2.026 2.026 0 0 0-.035.374v5.931a4.213 4.213 0 0 1-4.208 4.208 4.213 4.213 0 0 1-4.208-4.208v-5.652zm83.248.088v5.564a4.213 4.213 0 0 1-4.208 4.208 4.213 4.213 0 0 1-4.208-4.208v-5.932c0-.186-.026-.37-.076-.549L87.713 4.313h6.87zm4.056-.368c0-.243-.044-.484-.13-.712L97.886 1.573A2.028 2.028 0 0 0 95.988.257H8.38c-.845 0-1.602.524-1.899 1.316L.397 17.797c-.085.228-.13.47-.13.712v5.932c0 3.502 2.191 6.5 5.273 7.7v39.096a6.09 6.09 0 0 0 6.084 6.084H40.7L39.223 89.49h-6.305a2.028 2.028 0 1 0 0 4.056h36.503a2.028 2.028 0 1 0 0-4.056h-6.305l-1.477-12.168h21.12l.99 2.683c.361 1.172 1.253 2.046 2.401 2.345a3.428 3.428 0 0 0 3.279-.889l1.496-1.495 3.449 3.449c.644.644 1.5.998 2.41.998.91 0 1.767-.354 2.41-.998l3.907-3.907a3.413 3.413 0 0 0 0-4.82l-3.45-3.45 1.496-1.494a3.38 3.38 0 0 0 .903-3.192 3.385 3.385 0 0 0-2.204-2.437l-1.02-.376V32.142c3.083-1.201 5.274-4.2 5.274-7.701z"/></g><g><path fill="#fff" d="M55.226 38.789c-1.12 0-2.028.908-2.028 2.028v12.168a2.03 2.03 0 0 1-2.028 2.028 2.03 2.03 0 0 1-2.028-2.028V40.817a2.028 2.028 0 1 0-4.056 0v12.168a6.09 6.09 0 0 0 6.084 6.084 6.09 6.09 0 0 0 6.084-6.084V40.817c0-1.12-.909-2.028-2.028-2.028z"/></g><g><path fill="#fff" d="M35.96 55.013h-2.028v-4.056h2.028a2.03 2.03 0 0 1 2.028 2.028 2.03 2.03 0 0 1-2.028 2.028zm0-12.168a2.03 2.03 0 0 1 2.028 2.028A2.03 2.03 0 0 1 35.96 46.9h-2.028v-4.056zm0-4.056h-4.056c-1.12 0-2.028.908-2.028 2.028v16.224c0 1.12.908 2.028 2.028 2.028h4.056a6.09 6.09 0 0 0 6.084-6.084 6.06 6.06 0 0 0-1.553-4.056 6.06 6.06 0 0 0 1.553-4.056 6.09 6.09 0 0 0-6.084-6.084z"/></g><g><path fill="#fff" d="M70.436 38.789c-1.12 0-2.028.908-2.028 2.028v5.805a2.03 2.03 0 0 1-2.028 2.028 2.03 2.03 0 0 1-2.028-2.028v-5.805a2.028 2.028 0 1 0-4.056 0v5.805a6.094 6.094 0 0 0 4.056 5.735v4.684a2.028 2.028 0 1 0 4.056 0v-4.684a6.094 6.094 0 0 0 4.056-5.735v-5.805c0-1.12-.908-2.028-2.028-2.028z"/></g><g><path fill="#fff" d="M51.17 65.153h-.002a2.027 2.027 0 1 0 .002 4.056 2.028 2.028 0 1 0 0-4.056z"/></g></g></g></svg>