<svg xmlns="http://www.w3.org/2000/svg" width="100" height="101" viewBox="0 0 100 101"><defs><style>.a{fill:#f5ce34;}</style></defs><g transform="translate(-1139 -4740)"><ellipse class="a" cx="50" cy="50.5" rx="50" ry="50.5" transform="translate(1139 4740)"/><g transform="translate(1161.626 4763.125)"><path d="M216.915,433.825h3.65a.912.912,0,0,0,0-1.825h-3.65a.912.912,0,1,0,0,1.825Z" transform="translate(-191.365 -382.726)"/><path d="M96.914,13.687a.913.913,0,0,0,.912-.912V7.3h29.2v7.3a.912.912,0,0,0,1.825,0V3.65c0-1.642-2.106-3.65-4.562-3.65H100.564A4.568,4.568,0,0,0,96,4.562v8.212A.913.913,0,0,0,96.914,13.687Zm.912-9.125a2.737,2.737,0,0,1,2.737-2.737h23.725a2.839,2.839,0,0,1,2.737,1.825V5.475h-29.2Z" transform="translate(-85.052)"/><path d="M127.939,352a.913.913,0,0,0-.912.912v4.562h-29.2v-3.65a.912.912,0,0,0-1.825,0v8.212a4.568,4.568,0,0,0,4.562,4.562h23.725a4.568,4.568,0,0,0,4.562-4.562v-9.125A.913.913,0,0,0,127.939,352Zm-.912,10.037a2.737,2.737,0,0,1-2.737,2.737H100.564a2.737,2.737,0,0,1-2.737-2.737V359.3h29.2Z" transform="translate(-85.052 -311.851)"/><path d="M202.739,24h-1.825a.912.912,0,1,0,0,1.825h1.825a.912.912,0,0,0,0-1.825Z" transform="translate(-177.19 -21.263)"/><path d="M250.739,24h-1.825a.912.912,0,0,0,0,1.825h1.825a.912.912,0,1,0,0-1.825Z" transform="translate(-219.715 -21.263)"/><path d="M231.729,109.8h0a.912.912,0,0,0-.7-.329H207.076l-.465-3.138A2.755,2.755,0,0,0,203.9,104H200v1.825h3.9a.912.912,0,0,1,.9.779l3.188,21.521a2.755,2.755,0,0,0,2.708,2.337h2.243a2.721,2.721,0,0,0,5.139,0h3.986a2.737,2.737,0,1,0,0-1.825h-3.986a2.721,2.721,0,0,0-5.139,0H210.7a.919.919,0,0,1-.9-.779l-.29-1.958h18.781a.912.912,0,0,0,.9-.744l2.737-14.6A.913.913,0,0,0,231.729,109.8Zm-7.09,18.833a.912.912,0,1,1-.912.912A.913.913,0,0,1,224.639,128.637Zm-9.125,0a.912.912,0,1,1-.912.912A.913.913,0,0,1,215.514,128.637Zm12.017-4.562H209.238L207.347,111.3h22.585Z" transform="translate(-177.19 -92.138)"/><path d="M23.727,147.862a11.862,11.862,0,1,0-11.862,11.862A11.862,11.862,0,0,0,23.727,147.862Zm-21.9,0A10.037,10.037,0,1,1,11.864,157.9,10.037,10.037,0,0,1,1.827,147.862Z" transform="translate(-0.002 -120.488)"/><path d="M76.564,183.512V182.47a3.643,3.643,0,0,0-.912-7.17,1.825,1.825,0,1,1,1.825-1.825.912.912,0,0,0,1.825,0,3.65,3.65,0,0,0-2.737-3.52v-1.042a.912.912,0,1,0-1.825,0v1.042a3.643,3.643,0,0,0,.912,7.17,1.825,1.825,0,1,1-1.825,1.825.912.912,0,1,0-1.825,0,3.65,3.65,0,0,0,2.737,3.52v1.042a.912.912,0,1,0,1.825,0Z" transform="translate(-63.79 -148.838)"/><path d="M280.914,177.825h12.775a.912.912,0,1,0,0-1.825H280.914a.912.912,0,0,0,0,1.825Z" transform="translate(-248.065 -155.925)"/><path d="M416.915,177.825h1.825a.912.912,0,0,0,0-1.825h-1.825a.912.912,0,1,0,0,1.825Z" transform="translate(-368.553 -155.925)"/></g></g></svg>