<svg xmlns="http://www.w3.org/2000/svg" width="101" height="101" viewBox="0 0 101 101"><defs><style>.a{fill:#f5ce34;}</style></defs><g transform="translate(-200 -4598)"><circle class="a" cx="50.5" cy="50.5" r="50.5" transform="translate(200 4598)"/><g transform="translate(227.5 4623)"><path d="M48,23.852a6.312,6.312,0,0,0-3.664-1.792l-2.1-.263a1.486,1.486,0,0,1-1.3-1.472V20a5.948,5.948,0,0,0,2.851-3.965l1.2-.864A4.747,4.747,0,0,0,46.871,11.4,5.328,5.328,0,0,0,44.5,6.958,6.609,6.609,0,0,0,38.424,3h-.912a6.609,6.609,0,0,0-6.077,3.958A5.327,5.327,0,0,0,29.065,11.4a4.753,4.753,0,0,0,1.9,3.787l1.184.855A5.948,5.948,0,0,0,35,20v.243a1.475,1.475,0,0,1-1.252,1.465,15.342,15.342,0,0,0-2.693.617,13.455,13.455,0,0,0-4.2,2.641L20.9,19.016,19.092,17.2a2.9,2.9,0,0,0-4.579.635h-.286A2.229,2.229,0,0,0,12,20.065v1.484a2.229,2.229,0,0,0,2.226,2.226h3.4l5.9,5.9a5.175,5.175,0,0,0,6.138.884l.878-.479V47.517H45.387v-5.33a2.2,2.2,0,0,0,.742.137h1.484A2.229,2.229,0,0,0,49.839,40.1V28.3A6.243,6.243,0,0,0,48,23.852Zm-7.309-1.128a2.964,2.964,0,0,0,.569.319L40.5,27.232l-1.6-2ZM30.549,11.4a3.85,3.85,0,0,1,1.717-3.209l.37-.247.086-.214a5.134,5.134,0,0,1,4.79-3.243h.912a5.135,5.135,0,0,1,4.791,3.244l.086.214.37.247A3.847,3.847,0,0,1,45.387,11.4,3.248,3.248,0,0,1,44.1,13.98l-.2.144V11.368l-.742-.247a8.2,8.2,0,0,1-3.184-1.968L39.522,8.7l-.516.386a10.457,10.457,0,0,1-6.232,2.077h-.742v2.963l-.188-.136a3.254,3.254,0,0,1-1.3-2.592Zm2.968,3.475v-2.25a11.977,11.977,0,0,0,5.871-1.989,9.705,9.705,0,0,0,3.032,1.8v2.437a4.452,4.452,0,1,1-8.9,0Zm4.452,5.936a5.93,5.93,0,0,0,1.51-.2,2.941,2.941,0,0,0,.241.925l-1.751,2.451L36.194,21.5a2.937,2.937,0,0,0,.257-.9,5.88,5.88,0,0,0,1.517.2Zm-.93,4.426-1.6,2-.775-4.258a2.909,2.909,0,0,0,.545-.3ZM13.484,21.549V20.065a.743.743,0,0,1,.742-.742h1.2l.351-.7a1.407,1.407,0,0,1,1.265-.782,1.428,1.428,0,0,1,1,.414l1.812,1.812-2.226,2.226h-3.4a.743.743,0,0,1-.742-.742Zm15.476,7.71a3.692,3.692,0,0,1-4.38-.631l-5.6-5.6L20.9,21.114l5.326,5.326.688,1.376,1.327-.664-.494-.989a12.265,12.265,0,0,1,3.775-2.427,13.287,13.287,0,0,1,1.693-.421L34.562,30.7l3.406-4.257L41.374,30.7l1.336-7.351,1.44.18a4.826,4.826,0,0,1,2.8,1.369A4.769,4.769,0,0,1,48.355,28.3V34.9H45.387v-6.37a1.8,1.8,0,0,1,.525-1.267l-1.049-1.049a3.252,3.252,0,0,0-.959,2.316v6.805l-.846.846a2.16,2.16,0,0,0-.546.945H32.032v-8.6a3.252,3.252,0,0,0-.959-2.316l-1.049,1.049a1.8,1.8,0,0,1,.511,1.134ZM43.9,46.033H38.71V43.927a2.51,2.51,0,0,1,1.718-2.384l-.47-1.407a3.991,3.991,0,0,0-1.991,1.473,3.992,3.992,0,0,0-1.991-1.473l-.47,1.407a2.51,2.51,0,0,1,1.72,2.384v2.106H32.032V38.613H42.607a2.169,2.169,0,0,0,1.017,1.061l.279.139v6.219Zm3.71-5.194H46.129a.743.743,0,0,1-.742-.742V38.9l-1.1-.55a.7.7,0,0,1-.181-1.114l.846-.846h3.4V40.1A.743.743,0,0,1,47.613,40.839Z" transform="translate(-3.839 -1.516)"/><path d="M15.831,45.889l-.51-.1a5.9,5.9,0,0,0,.518-2.4V38.936a5.936,5.936,0,1,0-11.871,0v4.452a5.9,5.9,0,0,0,.518,2.4l-.51.1A3.721,3.721,0,0,0,1,49.525v5.733H18.807V49.525A3.721,3.721,0,0,0,15.831,45.889ZM13.2,45.361a1.477,1.477,0,0,1-.868-.68,3.716,3.716,0,0,0,.962-1.293h.315a2.2,2.2,0,0,0,.742-.137v.137a4.418,4.418,0,0,1-.536,2.1ZM12.129,41.9a2.226,2.226,0,1,1-4.452,0V39.637A7.065,7.065,0,0,0,9.9,39.019a7.085,7.085,0,0,0,2.226.618Zm-.905,6.677H8.582l-.528-2.336a2.972,2.972,0,0,0,.706-.831,3.384,3.384,0,0,0,2.286,0,2.956,2.956,0,0,0,.707.824Zm-.335,1.484-.838,3.71h-.3l-.838-3.71Zm2.724-9.645a.742.742,0,0,1,0,1.484ZM9.9,34.484a4.456,4.456,0,0,1,4.452,4.452v.137a2.2,2.2,0,0,0-.742-.137v-.742h-.742a5.574,5.574,0,0,1-2.48-.585L9.9,37.364l-.488.244a5.574,5.574,0,0,1-2.48.585H6.194v.742a2.2,2.2,0,0,0-.742.137v-.137A4.456,4.456,0,0,1,9.9,34.484ZM6.194,41.9a.742.742,0,0,1,0-1.484Zm-.742,1.484v-.137a2.2,2.2,0,0,0,.742.137h.315a3.714,3.714,0,0,0,.962,1.294,1.424,1.424,0,0,1-.812.666l-.671.136a4.414,4.414,0,0,1-.536-2.1ZM2.484,49.525a2.233,2.233,0,0,1,1.785-2.182l2.4-.487,1.562,6.919H2.484Zm14.839,4.249H11.573l1.561-6.916,2.4.485a2.233,2.233,0,0,1,1.785,2.182Z" transform="translate(-1 -9.258)"/><path d="M7,5H17.387V6.484H7Z" transform="translate(-2.548 -2.032)"/><path d="M7,9h7.419v1.484H7Z" transform="translate(-2.548 -3.064)"/><path d="M19,9h1.484v1.484H19Z" transform="translate(-5.645 -3.064)"/><path d="M5.845,11.387h5.01L13.3,13.83a1.791,1.791,0,0,0,3.058-1.266V11.387h.123a2.848,2.848,0,0,0,2.845-2.845V3.968A2.971,2.971,0,0,0,16.355,1H5.968A2.971,2.971,0,0,0,3,3.968V8.543A2.848,2.848,0,0,0,5.845,11.387ZM4.484,3.968A1.485,1.485,0,0,1,5.968,2.484H16.355a1.485,1.485,0,0,1,1.484,1.484V8.543A1.363,1.363,0,0,1,16.478,9.9H14.871v2.661a.319.319,0,0,1-.525.217L11.469,9.9H5.845A1.363,1.363,0,0,1,4.484,8.543Z" transform="translate(-1.516 -1)"/></g></g></svg>