<?xml version="1.0" encoding="UTF-8" standalone="no"?>
<svg
   xmlns:dc="http://purl.org/dc/elements/1.1/"
   xmlns:cc="http://creativecommons.org/ns#"
   xmlns:rdf="http://www.w3.org/1999/02/22-rdf-syntax-ns#"
   xmlns:svg="http://www.w3.org/2000/svg"
   xmlns="http://www.w3.org/2000/svg"
   xmlns:sodipodi="http://sodipodi.sourceforge.net/DTD/sodipodi-0.dtd"
   xmlns:inkscape="http://www.inkscape.org/namespaces/inkscape"
   id="outline"
   viewBox="0 0 512 512"
   width="512"
   height="512"
   version="1.1"
   sodipodi:docname="advertising2.svg"
   inkscape:version="1.0.1 (3bc2e813f5, 2020-09-07)">
  <metadata
     id="metadata50">
    <rdf:RDF>
      <cc:Work
         rdf:about="">
        <dc:format>image/svg+xml</dc:format>
        <dc:type
           rdf:resource="http://purl.org/dc/dcmitype/StillImage" />
        <dc:title></dc:title>
      </cc:Work>
    </rdf:RDF>
  </metadata>
  <defs
     id="defs48" />
  <sodipodi:namedview
     pagecolor="#ffffff"
     bordercolor="#666666"
     borderopacity="1"
     objecttolerance="10"
     gridtolerance="10"
     guidetolerance="10"
     inkscape:pageopacity="0"
     inkscape:pageshadow="2"
     inkscape:window-width="2560"
     inkscape:window-height="1361"
     id="namedview46"
     showgrid="false"
     inkscape:zoom="1.96875"
     inkscape:cx="256"
     inkscape:cy="256"
     inkscape:window-x="2551"
     inkscape:window-y="-9"
     inkscape:window-maximized="1"
     inkscape:current-layer="outline" />
  <circle
     cx="248"
     cy="152"
     r="8"
     id="circle31"
     style="fill:#ffffff" />
  <path
     d="M234.34326,181.65674A35.08178,35.08178,0,0,0,259.31348,192H280V176H259.31348a19.18705,19.18705,0,0,1-13.65674-5.65674Z"
     id="path33"
     style="fill:#ffffff" />
  <circle
     cx="280"
     cy="152"
     r="8"
     id="circle35"
     style="fill:#ffffff" />
  <rect
     x="472"
     y="184"
     width="24"
     height="16"
     id="rect37"
     style="fill:#ffffff" />
  <rect
     x="461.45606"
     y="158.54435"
     width="23.99951"
     height="15.99967"
     transform="translate(20.90747 383.56348) rotate(-45)"
     id="rect39"
     style="fill:#ffffff" />
  <rect
     x="465.45597"
     y="205.45606"
     width="15.99967"
     height="23.99951"
     transform="translate(-15.09248 398.47515) rotate(-45)"
     id="rect41"
     style="fill:#ffffff" />
  <path
     d="M40,464H384a24.02687,24.02687,0,0,0,24-24V424a7.99977,7.99977,0,0,0-8-8H280V342.27667A79.36069,79.36069,0,0,0,363.76611,306.669l18.53467-29.65625,15.356-15.356A7.99877,7.99877,0,0,0,400,256V226.606l45.80225,13.08636A8.00047,8.00047,0,0,0,456,232V152a8.00047,8.00047,0,0,0-10.19775-7.69238L390.87891,160H344a7.99977,7.99977,0,0,0-8,8v68.686L304.66309,268.023l-31.08582-38.85761A56.14294,56.14294,0,0,0,312,176V116.94409l.645-.32251A27.777,27.777,0,0,0,300.22314,64H248a48.05436,48.05436,0,0,0-48,48v64a56.135,56.135,0,0,0,2.49927,16.55225,68.267,68.267,0,0,0-50.7312,34.06152L130.63672,264H40a24.02687,24.02687,0,0,0-24,24V440A24.02687,24.02687,0,0,0,40,464Zm0-16a8.00917,8.00917,0,0,1-8-8v-8H184v8a8.00917,8.00917,0,0,1-8,8Zm352-8a8.00917,8.00917,0,0,1-8,8H198.62378A23.88362,23.88362,0,0,0,200,440v-8h68.68652l5.65674,5.65674A7.99877,7.99877,0,0,0,280,440h32a7.99877,7.99877,0,0,0,5.65674-2.34326L323.31348,432H392Zm48-218.606-40-11.42871V174.03467L440,162.606ZM352,176h32v32H352ZM303.55762,287.98779a7.996,7.996,0,0,0,6.09912-2.33105l40-40A7.99877,7.99877,0,0,0,352,240V224h32v28.686l-13.65674,13.65722a8.01082,8.01082,0,0,0-1.12744,1.417L350.19824,298.189a63.428,63.428,0,0,1-101.521,8.15088l-3.595-4.10858,36.921-36.9209,15.74976,19.6872A8.00175,8.00175,0,0,0,303.55762,287.98779ZM296,176a40.0807,40.0807,0,0,1-33.47729,39.47058,67.68571,67.68571,0,0,0-42.929-22.9295A40.03311,40.03311,0,0,1,216,176V155.314L251.314,120H296ZM248,80h52.22314a11.7772,11.7772,0,0,1,5.26661,22.311L302.11182,104H248a7.99877,7.99877,0,0,0-5.65674,2.34326L216,132.68652V112A32.036,32.036,0,0,1,248,80ZM165.69678,234.48682a52.14523,52.14523,0,0,1,86.11426-6.91651l20.13574,25.1695L234.523,290.16351l-20.5025-23.43158-12.041,10.53614L236.63623,316.876a79.44225,79.44225,0,0,0,7.3042,7.32519L211.56592,376H85.71143ZM40,280h81.59326L67.3324,376H48v16H248V376H230.43433L256.98242,333.523q3.41949,1.9551,7.01758,3.56049V416H32V288A8.00917,8.00917,0,0,1,40,280Z"
     id="path43"
     style="fill:#ffffff" />
</svg>
