<?xml version="1.0" encoding="utf-8"?>
<!-- Generator: Adobe Illustrator 25.0.1, SVG Export Plug-In . SVG Version: 6.00 Build 0)  -->
<svg version="1.1" id="Layer_1" xmlns="http://www.w3.org/2000/svg" xmlns:xlink="http://www.w3.org/1999/xlink" x="0px" y="0px"
	 viewBox="0 0 480 480" style="enable-background:new 0 0 480 480;" xml:space="preserve">
<style type="text/css">
	.st0{fill:#FFFFFF;}
</style>
<path class="st0" d="M440,64.1h-8v16h8c13.3,0,24,10.7,24,24v216h-16.1v16H464v16c0,8.6-4.6,16.5-12.1,20.8l8,13.9
	c12.4-7.1,20-20.4,20.1-34.7v-248C480,82,462.1,64.1,440,64.1z"/>
<path class="st0" d="M0.1,352c0,22.1,17.9,40,40,40h148.6l-26.2,72H136v16h208v-16h-26.4l-9.7-26.7l-15,5.5l7.7,21.3H179.5
	l28.1-77.2c0.9-2.5,0.5-5.2-1-7.3c-1.5-2.1-3.9-3.4-6.6-3.4h-160c-13.3,0-24-10.7-24-24L16,336h152.1v-16H16l0.1-216
	c0-13.3,10.7-24,24-24h8v-16h-8c-22.1,0-40,17.9-40,40L0,328L0.1,352z"/>
<path class="st0" d="M416,184v-144c0-22.1-17.9-40-40-40h-272c-22.1,0-40,17.9-40,40v264h16v-264c0-13.3,10.7-24,24-24h272
	c13.3,0,24,10.7,24,24v144H416z"/>
<path class="st0" d="M104.1,32.1h16v16h-16V32.1z"/>
<path class="st0" d="M136.1,32.1h16v16h-16V32.1z"/>
<path class="st0" d="M168.1,32.1h16v16h-16V32.1z"/>
<path class="st0" d="M168.1,256v-64c0-4.4-3.6-8-8-8h-32c-4.4,0-8,3.6-8,8v56h-16v16h64V256z M152.1,248h-16v-48h16V248z"/>
<path class="st0" d="M232,176v-40c0-4.4-3.6-8-8-8h-32c-4.4,0-8,3.6-8,8v72h16v-64h16v32H232z"/>
<path class="st0" d="M296,152.1v-24c0-4.4-3.6-8-8-8h-32c-4.4,0-8,3.6-8,8v32h16v-24h16v16H296z"/>
<path class="st0" d="M360,152.1v-48c0-4.4-3.6-8-8-8h-32c-4.4,0-8,3.6-8,8v48h16v-40h16v40H360z"/>
<path class="st0" d="M415,371.7c38.5-52.3,31.9-125.1-15.4-169.7c-47.3-44.5-120.4-46.8-170.3-5.2c-49.9,41.6-60.9,113.9-25.7,168.4
	c35.3,54.6,105.7,74.2,164.1,45.8l60,60c5.7,5.7,13.5,8.9,21.6,8.9c16.9,0,30.6-13.7,30.6-30.6c0-8.1-3.3-15.9-9-21.7L415,371.7z
	 M312,408c-61.8,0-112-50.1-112-112s50.1-112,112-112c61.8,0,112,50.1,112,112C423.9,357.8,373.8,407.9,312,408z M459.7,459.7
	c-5.8,5.5-14.9,5.5-20.7,0l-56.8-56.8c8.2-5.4,15.7-11.8,22.5-18.9l55,55c2.7,2.7,4.3,6.5,4.3,10.3C464,453.2,462.5,457,459.7,459.7
	z"/>
<path class="st0" d="M312,200c-53,0-96,43-96,96s43,96,96,96c53,0,96-43,96-96C408,243,365,200.1,312,200z M312,376
	c-44.2,0-80-35.8-80-80s35.8-80,80-80c44.2,0,80,35.8,80,80C392,340.2,356.2,376,312,376z"/>
<path class="st0" d="M298.3,250c4.4-1.3,9-2,13.7-2v-16c-6.2,0-12.3,0.9-18.3,2.6L298.3,250z"/>
<path class="st0" d="M248,296h16c0-15.7,7.7-30.4,20.6-39.4l-9.2-13.1C258.3,255.5,248,275.1,248,296z"/>
<path class="st0" d="M104.1,280h32v16h-32V280z"/>
<path class="st0" d="M152.1,280h16v16h-16V280z"/>
<path class="st0" d="M104.1,64.1h272v16h-272V64.1z"/>
<path class="st0" d="M104.1,96.1h32v16h-32V96.1z"/>
</svg>
