<?xml version="1.0" encoding="utf-8"?>
<!-- Generator: Adobe Illustrator 25.0.1, SVG Export Plug-In . SVG Version: 6.00 Build 0)  -->
<svg version="1.1" id="Capa_1" xmlns="http://www.w3.org/2000/svg" xmlns:xlink="http://www.w3.org/1999/xlink" x="0px" y="0px"
	 viewBox="0 0 512 512" style="enable-background:new 0 0 512 512;" xml:space="preserve">
<style type="text/css">
	.st0{fill:#FFFFFF;}
</style>
<g id="XMLID_1631_">
	<g id="XMLID_321_">
		<path id="XMLID_347_" class="st0" d="M462,0H289.2c-5.5,0-10,4.5-10,10v81.4c0,4.2,2.6,7.9,6.5,9.4c3.9,1.5,8.3,0.4,11-2.8
			c5.7-6.6,14-10,22.7-9.5c13.9,0.8,25.2,11.9,26.1,25.9c0.5,7.9-2.1,15.3-7.4,21.1c-5.3,5.7-12.6,8.9-20.4,8.9
			c-8.1,0-15.7-3.5-21-9.6c-2.7-3.1-7.1-4.2-11-2.8c-3.9,1.5-6.5,5.2-6.5,9.4v2.6c-7.1-5.1-15.7-8.4-25-8.9
			c-7.5-0.4-14.8,0.8-21.5,3.6V76.5c0-5.5-4.5-10-10-10H50c-27.6,0-50,22.4-50,50V462c0,27.6,22.4,50,50,50h345.5
			c27.6,0,50-22.4,50-50v-21.4c0-5.5-4.5-10-10-10s-10,4.5-10,10V462c0,16.5-13.5,30-30,30H232.8v-71.4c0-4.2-2.6-7.9-6.5-9.4
			c-3.9-1.5-8.3-0.4-11,2.8c-5.3,6.1-13,9.6-21,9.6c-7.8,0-15.1-3.2-20.4-8.9c-5.3-5.7-8-13.2-7.4-21.1c1-13.9,12.2-25,26.1-25.9
			c8.7-0.5,17,3,22.8,9.5c2.7,3.1,7.1,4.2,11,2.8c3.9-1.5,6.5-5.2,6.5-9.4v-71.4H285c-2.4,5.8-3.7,12.1-3.7,18.6
			c0,13.2,5.6,26,15.2,35c9.8,9.2,22.6,13.7,36.1,12.8c23.9-1.7,43-21,44.4-44.9c0.4-7.5-0.8-14.8-3.6-21.5h52.2v51.4
			c0,5.5,4.5,10,10,10s10-4.5,10-10v-61.4c0-5.5-4.5-10-10-10h-1c5.8-8.1,9-17.9,9-27.9c0-6.4-1.3-12.7-3.7-18.6H502
			c5.5,0,10-4.5,10-10V50C512,22.4,489.6,0,462,0L462,0z M20,116.5c0-16.5,13.5-30,30-30h162.8v71.4c0,4.2,2.6,7.9,6.5,9.4
			c3.9,1.5,8.3,0.4,11-2.8c5.7-6.6,14-10,22.7-9.5c13.9,0.8,25.2,11.9,26.1,25.9c0.5,7.9-2.1,15.3-7.4,21.1
			c-5.3,5.7-12.6,8.9-20.4,8.9c-8.1,0-15.7-3.5-21-9.6c-2.7-3.1-7.1-4.2-11-2.8c-3.9,1.5-6.5,5.2-6.5,9.4v71.4h-52.2
			c2.4-5.8,3.7-12.1,3.7-18.6c0-13.2-5.6-26-15.2-35c-9.8-9.2-22.6-13.7-36.1-12.8c-23.9,1.7-43,21-44.4,44.9
			c-0.4,7.5,0.8,14.8,3.6,21.5H20L20,116.5z M191.3,347.8c-23.9,1.4-43.2,20.5-44.9,44.4c-0.9,13.5,3.6,26.3,12.8,36.1
			c9,9.7,21.8,15.2,35,15.2c6.4,0,12.7-1.3,18.6-3.7V492H50c-16.5,0-30-13.5-30-30V299.2h71.4c4.2,0,7.9-2.6,9.4-6.5s0.4-8.3-2.8-11
			c-6.6-5.7-10-14-9.5-22.7c0.8-13.9,11.9-25.2,25.9-26.1c7.9-0.5,15.3,2.1,21.1,7.4c5.7,5.3,8.9,12.6,8.9,20.4
			c0,8.1-3.5,15.7-9.6,21c-3.1,2.7-4.2,7.1-2.8,11c1.5,3.9,5.2,6.5,9.4,6.5h71.4v52.2C206.1,348.6,198.8,347.3,191.3,347.8
			L191.3,347.8z M347.5,296.8c6.6,5.7,10,14,9.5,22.7c-0.8,13.9-11.9,25.2-25.9,26.1c-7.9,0.5-15.3-2.1-21.1-7.4
			c-5.7-5.3-8.9-12.6-8.9-20.4c0-8.1,3.5-15.7,9.6-21c3.1-2.7,4.2-7.1,2.8-11s-5.2-6.5-9.4-6.5h-71.4V227c5.8,2.4,12.1,3.7,18.6,3.7
			c10.1,0,19.8-3.2,27.9-9v1c0,5.5,4.5,10,10,10h62.2c-2.8,6.7-4.1,14-3.6,21.5c0.6,9.3,3.8,17.9,8.9,25h-2.6
			c-4.2,0-7.9,2.6-9.4,6.5C343.2,289.6,344.4,294,347.5,296.8L347.5,296.8z M492,212.8h-71.4c-4.2,0-7.9,2.6-9.4,6.5
			c-1.5,3.9-0.4,8.3,2.8,11c6.1,5.3,9.6,13,9.6,21c0,7.8-3.2,15.1-8.9,20.4c-5.7,5.3-13.2,8-21.1,7.4c-13.9-1-25-12.2-25.9-26.1
			c-0.5-8.7,3-17,9.5-22.8c3.1-2.7,4.2-7.1,2.8-11s-5.2-6.5-9.4-6.5h-71.4v-52.2c5.8,2.4,12.1,3.7,18.6,3.7c13.2,0,26-5.6,35-15.2
			c9.2-9.8,13.7-22.6,12.8-36.1c-1.7-23.9-21-43-44.9-44.4c-7.5-0.4-14.8,0.8-21.5,3.6V20H462c16.5,0,30,13.5,30,30L492,212.8z"/>
		<path id="XMLID_351_" class="st0" d="M435.5,385.6c-2.6,0-5.2,1.1-7.1,2.9s-2.9,4.4-2.9,7.1s1.1,5.2,2.9,7.1s4.4,2.9,7.1,2.9
			s5.2-1.1,7.1-2.9c1.9-1.9,2.9-4.4,2.9-7.1s-1.1-5.2-2.9-7.1C440.7,386.7,438.2,385.6,435.5,385.6z"/>
	</g>
</g>
</svg>
