<?xml version="1.0" encoding="utf-8"?>
<!-- Generator: Adobe Illustrator 25.0.1, SVG Export Plug-In . SVG Version: 6.00 Build 0)  -->
<svg version="1.1" id="Layer_1" xmlns="http://www.w3.org/2000/svg" xmlns:xlink="http://www.w3.org/1999/xlink" x="0px" y="0px"
	 viewBox="0 0 440 440" style="enable-background:new 0 0 440 440;" xml:space="preserve">
<style type="text/css">
	.st0{fill:#FFFFFF;}
</style>
<path class="st0" d="M64,372h16v16H64V372z"/>
<path class="st0" d="M416,28H80c-13.3,0-24,10.7-24,24v112H24c-13.3,0-24,10.7-24,24v200c0,13.3,10.7,24,24,24h96
	c13.3,0,24-10.7,24-24v-48h56v21.8l-22.9,38.1c-1.5,2.5-1.5,5.6-0.1,8.1c1.4,2.5,4.1,4.1,7,4.1h128c2.9,0,5.5-1.6,7-4.1
	c1.4-2.5,1.4-5.6-0.1-8.1L296,361.8V340h120c13.3,0,24-10.7,24-24V52C440,38.7,429.3,28,416,28z M128,388c0,4.4-3.6,8-8,8H24
	c-4.4,0-8-3.6-8-8v-24h112V388z M128,348H16V212h112V348z M128,196H16v-8c0-4.4,3.6-8,8-8h96c4.4,0,8,3.6,8,8V196z M120,164h-16V76
	h40v112C144,174.7,133.3,164,120,164z M297.9,396h-99.7l16.7-27.9c0.8-1.2,1.1-2.7,1.1-4.1v-24h64v24c0,1.5,0.4,2.9,1.1,4.1
	L297.9,396z M424,316c0,4.4-3.6,8-8,8H144v-48h280V316z M424,260H144v-24h8c4.4,0,8-3.6,8-8V68c0-4.4-3.6-8-8-8H96c-4.4,0-8,3.6-8,8
	v96H72V52c0-4.4,3.6-8,8-8h336c4.4,0,8,3.6,8,8V260z"/>
<path class="st0" d="M240,292h16v16h-16V292z"/>
<path class="st0" d="M72,308c22.1,0,40-17.9,40-40s-17.9-40-40-40s-40,17.9-40,40C32,290.1,49.9,308,72,308z M72,244
	c13.3,0,24,10.7,24,24s-10.7,24-24,24s-24-10.7-24-24S58.7,244,72,244z"/>
<path class="st0" d="M32,316h80v16H32V316z"/>
<path class="st0" d="M248,60c-39.8,0-72,32.2-72,72s32.2,72,72,72s72-32.2,72-72C320,92.3,287.7,60,248,60z M248,188
	c-30.9,0-56-25.1-56-56s25.1-56,56-56s56,25.1,56,56C304,162.9,278.9,188,248,188z"/>
<path class="st0" d="M184,220h128v16H184V220z"/>
<path class="st0" d="M400,60h-56c-4.4,0-8,3.6-8,8v72c0,4.4,3.6,8,8,8h56c4.4,0,8-3.6,8-8V68C408,63.6,404.4,60,400,60z M392,132
	h-40V76h40V132z"/>
<path class="st0" d="M400,164h-56c-4.4,0-8,3.6-8,8v56c0,4.4,3.6,8,8,8h56c4.4,0,8-3.6,8-8v-56C408,167.6,404.4,164,400,164z
	 M392,220h-40v-40h40V220z"/>
</svg>
