<svg xmlns="http://www.w3.org/2000/svg" width="109.746" height="45.106" viewBox="0 0 109.746 45.106"><defs><style>.a{fill:#fff;}</style></defs><path class="a" d="M55.373,16.747c-.988,0-1.226.476-1.226,1.28,0,.9.293,1.317,1.134,1.317a3.54,3.54,0,0,0,2.012-.622V17.058h.018A7.135,7.135,0,0,0,55.373,16.747Zm0,0c-.988,0-1.226.476-1.226,1.28,0,.9.293,1.317,1.134,1.317a3.54,3.54,0,0,0,2.012-.622V17.058h.018A7.135,7.135,0,0,0,55.373,16.747Zm0,0c-.988,0-1.226.476-1.226,1.28,0,.9.293,1.317,1.134,1.317a3.54,3.54,0,0,0,2.012-.622V17.058h.018A7.135,7.135,0,0,0,55.373,16.747Zm18.913-3.091c-1.354-.018-1.646.969-1.664,2.414h3.292v-.256C75.914,14.461,75.493,13.656,74.286,13.656Zm0,0c-1.354-.018-1.646.969-1.664,2.414h3.292v-.256C75.914,14.461,75.493,13.656,74.286,13.656ZM55.373,16.747c-.988,0-1.226.476-1.226,1.28,0,.9.293,1.317,1.134,1.317a3.54,3.54,0,0,0,2.012-.622V17.058h.018A7.135,7.135,0,0,0,55.373,16.747Zm0,0c-.988,0-1.226.476-1.226,1.28,0,.9.293,1.317,1.134,1.317a3.54,3.54,0,0,0,2.012-.622V17.058h.018A7.135,7.135,0,0,0,55.373,16.747Zm18.913-3.091c-1.354-.018-1.646.969-1.664,2.414h3.292v-.256C75.914,14.461,75.493,13.656,74.286,13.656Zm0,0c-1.354-.018-1.646.969-1.664,2.414h3.292v-.256C75.914,14.461,75.493,13.656,74.286,13.656ZM55.373,16.747c-.988,0-1.226.476-1.226,1.28,0,.9.293,1.317,1.134,1.317a3.54,3.54,0,0,0,2.012-.622V17.058h.018A7.135,7.135,0,0,0,55.373,16.747Zm0,0c-.988,0-1.226.476-1.226,1.28,0,.9.293,1.317,1.134,1.317a3.54,3.54,0,0,0,2.012-.622V17.058h.018A7.135,7.135,0,0,0,55.373,16.747Zm18.913-3.091c-1.354-.018-1.646.969-1.664,2.414h3.292v-.256C75.914,14.461,75.493,13.656,74.286,13.656Zm0,0c-1.354-.018-1.646.969-1.664,2.414h3.292v-.256C75.914,14.461,75.493,13.656,74.286,13.656ZM55.373,16.747c-.988,0-1.226.476-1.226,1.28,0,.9.293,1.317,1.134,1.317a3.54,3.54,0,0,0,2.012-.622V17.058h.018A7.135,7.135,0,0,0,55.373,16.747Zm0,0c-.988,0-1.226.476-1.226,1.28,0,.9.293,1.317,1.134,1.317a3.54,3.54,0,0,0,2.012-.622V17.058h.018A7.135,7.135,0,0,0,55.373,16.747Zm18.913-3.091c-1.354-.018-1.646.969-1.664,2.414h3.292v-.256C75.914,14.461,75.493,13.656,74.286,13.656ZM97.369,13.6c-1.043,0-1.536.421-1.536,1.518a1.337,1.337,0,0,0,1.536,1.518,1.373,1.373,0,0,0,1.555-1.518C98.924,14.058,98.375,13.6,97.369,13.6Zm.951,6.091H96.747a2.331,2.331,0,0,1-.585-.055,1.488,1.488,0,0,0-.622,1.207c0,.841.713,1.152,1.811,1.152,1.28,0,2.067-.329,2.067-1.3A.959.959,0,0,0,98.321,19.692Zm0,0H96.747a2.331,2.331,0,0,1-.585-.055,1.488,1.488,0,0,0-.622,1.207c0,.841.713,1.152,1.811,1.152,1.28,0,2.067-.329,2.067-1.3A.959.959,0,0,0,98.321,19.692ZM97.369,13.6c-1.043,0-1.536.421-1.536,1.518a1.337,1.337,0,0,0,1.536,1.518,1.373,1.373,0,0,0,1.555-1.518C98.924,14.058,98.375,13.6,97.369,13.6Zm-23.083.055c-1.354-.018-1.646.969-1.664,2.414h3.292v-.256C75.914,14.461,75.493,13.656,74.286,13.656ZM55.373,16.747c-.988,0-1.226.476-1.226,1.28,0,.9.293,1.317,1.134,1.317a3.54,3.54,0,0,0,2.012-.622V17.058h.018A7.135,7.135,0,0,0,55.373,16.747Zm0,0c-.988,0-1.226.476-1.226,1.28,0,.9.293,1.317,1.134,1.317a3.54,3.54,0,0,0,2.012-.622V17.058h.018A7.135,7.135,0,0,0,55.373,16.747Zm18.913-3.091c-1.354-.018-1.646.969-1.664,2.414h3.292v-.256C75.914,14.461,75.493,13.656,74.286,13.656Zm3.42,14.633c-1.372-.018-1.664.969-1.664,2.414h3.292v-.256C79.334,29.094,78.914,28.289,77.707,28.289ZM97.369,13.6c-1.043,0-1.536.421-1.536,1.518a1.337,1.337,0,0,0,1.536,1.518,1.373,1.373,0,0,0,1.555-1.518C98.924,14.058,98.375,13.6,97.369,13.6Zm.951,6.091H96.747a2.331,2.331,0,0,1-.585-.055,1.488,1.488,0,0,0-.622,1.207c0,.841.713,1.152,1.811,1.152,1.28,0,2.067-.329,2.067-1.3A.959.959,0,0,0,98.321,19.692Zm0,0H96.747a2.331,2.331,0,0,1-.585-.055,1.488,1.488,0,0,0-.622,1.207c0,.841.713,1.152,1.811,1.152,1.28,0,2.067-.329,2.067-1.3A.959.959,0,0,0,98.321,19.692ZM97.369,13.6c-1.043,0-1.536.421-1.536,1.518a1.337,1.337,0,0,0,1.536,1.518,1.373,1.373,0,0,0,1.555-1.518C98.924,14.058,98.375,13.6,97.369,13.6ZM77.707,28.289c-1.372-.018-1.664.969-1.664,2.414h3.292v-.256C79.334,29.094,78.914,28.289,77.707,28.289Zm-3.42-14.633c-1.354-.018-1.646.969-1.664,2.414h3.292v-.256C75.914,14.461,75.493,13.656,74.286,13.656ZM55.373,16.747c-.988,0-1.226.476-1.226,1.28,0,.9.293,1.317,1.134,1.317a3.54,3.54,0,0,0,2.012-.622V17.058h.018A7.135,7.135,0,0,0,55.373,16.747Zm0,0c-.988,0-1.226.476-1.226,1.28,0,.9.293,1.317,1.134,1.317a3.54,3.54,0,0,0,2.012-.622V17.058h.018A7.135,7.135,0,0,0,55.373,16.747Zm18.913-3.091c-1.354-.018-1.646.969-1.664,2.414h3.292v-.256C75.914,14.461,75.493,13.656,74.286,13.656Zm3.42,14.633c-1.372-.018-1.664.969-1.664,2.414h3.292v-.256C79.334,29.094,78.914,28.289,77.707,28.289ZM97.369,13.6c-1.043,0-1.536.421-1.536,1.518a1.337,1.337,0,0,0,1.536,1.518,1.373,1.373,0,0,0,1.555-1.518C98.924,14.058,98.375,13.6,97.369,13.6Zm.951,6.091H96.747a2.331,2.331,0,0,1-.585-.055,1.488,1.488,0,0,0-.622,1.207c0,.841.713,1.152,1.811,1.152,1.28,0,2.067-.329,2.067-1.3A.959.959,0,0,0,98.321,19.692Zm0,0H96.747a2.331,2.331,0,0,1-.585-.055,1.488,1.488,0,0,0-.622,1.207c0,.841.713,1.152,1.811,1.152,1.28,0,2.067-.329,2.067-1.3A.959.959,0,0,0,98.321,19.692ZM97.369,13.6c-1.043,0-1.536.421-1.536,1.518a1.337,1.337,0,0,0,1.536,1.518,1.373,1.373,0,0,0,1.555-1.518C98.924,14.058,98.375,13.6,97.369,13.6ZM77.707,28.289c-1.372-.018-1.664.969-1.664,2.414h3.292v-.256C79.334,29.094,78.914,28.289,77.707,28.289Zm-3.42-14.633c-1.354-.018-1.646.969-1.664,2.414h3.292v-.256C75.914,14.461,75.493,13.656,74.286,13.656ZM55.373,16.747c-.988,0-1.226.476-1.226,1.28,0,.9.293,1.317,1.134,1.317a3.54,3.54,0,0,0,2.012-.622V17.058h.018A7.135,7.135,0,0,0,55.373,16.747ZM46.3,26.039h-1.61V30.1H46.3c1.463,0,1.866-.841,1.866-2.03C48.166,26.862,47.764,26.039,46.3,26.039Zm6.146,5.341c-.988,0-1.226.476-1.226,1.28,0,.9.293,1.317,1.134,1.317a3.54,3.54,0,0,0,2.012-.622V31.691h.018A7.135,7.135,0,0,0,52.447,31.38Zm2.927-14.633c-.988,0-1.226.476-1.226,1.28,0,.9.293,1.317,1.134,1.317a3.54,3.54,0,0,0,2.012-.622V17.058h.018A7.135,7.135,0,0,0,55.373,16.747Zm18.913-3.091c-1.354-.018-1.646.969-1.664,2.414h3.292v-.256C75.914,14.461,75.493,13.656,74.286,13.656Zm3.42,14.633c-1.372-.018-1.664.969-1.664,2.414h3.292v-.256C79.334,29.094,78.914,28.289,77.707,28.289ZM97.369,13.6c-1.043,0-1.536.421-1.536,1.518a1.337,1.337,0,0,0,1.536,1.518,1.373,1.373,0,0,0,1.555-1.518C98.924,14.058,98.375,13.6,97.369,13.6Zm.951,6.091H96.747a2.331,2.331,0,0,1-.585-.055,1.488,1.488,0,0,0-.622,1.207c0,.841.713,1.152,1.811,1.152,1.28,0,2.067-.329,2.067-1.3A.959.959,0,0,0,98.321,19.692Zm0,0H96.747a2.331,2.331,0,0,1-.585-.055,1.488,1.488,0,0,0-.622,1.207c0,.841.713,1.152,1.811,1.152,1.28,0,2.067-.329,2.067-1.3A.959.959,0,0,0,98.321,19.692Zm-.951-3.055a1.373,1.373,0,0,0,1.555-1.518c0-1.061-.549-1.518-1.555-1.518-1.043,0-1.536.421-1.536,1.518A1.337,1.337,0,0,0,97.369,16.638ZM77.707,28.289c-1.372-.018-1.664.969-1.664,2.414h3.292v-.256C79.334,29.094,78.914,28.289,77.707,28.289Zm-3.42-14.633c-1.354-.018-1.646.969-1.664,2.414h3.292v-.256C75.914,14.461,75.493,13.656,74.286,13.656ZM55.373,16.747c-.988,0-1.226.476-1.226,1.28,0,.9.293,1.317,1.134,1.317a3.54,3.54,0,0,0,2.012-.622V17.058h.018A7.135,7.135,0,0,0,55.373,16.747ZM52.447,31.38c-.988,0-1.226.476-1.226,1.28,0,.9.293,1.317,1.134,1.317a3.54,3.54,0,0,0,2.012-.622V31.691h.018A7.135,7.135,0,0,0,52.447,31.38ZM46.3,26.039h-1.61V30.1H46.3c1.463,0,1.866-.841,1.866-2.03C48.166,26.862,47.764,26.039,46.3,26.039ZM108.088-.3H2.658A2.162,2.162,0,0,0,.5,1.858V42.647a2.162,2.162,0,0,0,2.158,2.158h105.43a2.162,2.162,0,0,0,2.158-2.158V1.858A2.162,2.162,0,0,0,108.088-.3ZM84.675,9.925a.8.8,0,0,1,.823.823.787.787,0,0,1-.823.823.8.8,0,0,1-.823-.823A.808.808,0,0,1,84.675,9.925ZM85.3,12.87v7.262H84.072V12.87Zm-24.711,0h1.006l.128.841a3.711,3.711,0,0,1,2.195-.951l.165,1.134a8.7,8.7,0,0,0-2.268.768v5.469H60.586ZM36.46,34.2a1.475,1.475,0,0,1-1.482,1.482H28.138V25.289h3.494l.53-4.042H28.156V18.668c0-1.171.329-1.975,2.012-1.975h2.14V13.071a26.809,26.809,0,0,0-3.128-.165c-3.091,0-5.213,1.9-5.213,5.359v2.981H20.474v4.042h3.494V35.678H11.127A1.475,1.475,0,0,1,9.646,34.2V10.327a1.475,1.475,0,0,1,1.482-1.482H35a1.472,1.472,0,0,1,1.463,1.482Zm9.877-3.091-1.646.018v3.622H43.429V25h2.908a2.729,2.729,0,0,1,3.073,3.055A2.729,2.729,0,0,1,46.337,31.106Zm1.536-13.554H46.721l-2.14-4.9v7.463H43.429V10.382h1.225l2.634,5.981,2.634-5.981h1.244v9.731H50.014V12.65Zm7.737,17.194H54.568l-.073-.6a4.238,4.238,0,0,1-2.3.75c-1.555,0-2.158-.915-2.158-2.268,0-1.427.713-2.177,2.25-2.177a5.817,5.817,0,0,1,2.1.4V29.734c0-.933-.293-1.335-1.372-1.335a7.19,7.19,0,0,0-1.939.274l-.183-1.006a7.952,7.952,0,0,1,2.25-.329c1.683,0,2.469.732,2.469,2.323Zm1.811-15.236a4.238,4.238,0,0,1-2.3.75c-1.555,0-2.158-.915-2.158-2.268,0-1.427.713-2.177,2.25-2.177a5.729,5.729,0,0,1,2.1.4V15.1c0-.933-.293-1.335-1.372-1.335A7.19,7.19,0,0,0,54,14.04l-.183-1.006a7.952,7.952,0,0,1,2.25-.329c1.683,0,2.469.732,2.469,2.323v5.085H57.495Zm1.463,9.786v5.469H57.66V27.5h1.006l.128.841a3.711,3.711,0,0,1,2.195-.951l.165,1.134A8.7,8.7,0,0,0,58.885,29.295Zm6.091,4.591a5.191,5.191,0,0,0,1.1-.146l.091.933a5.778,5.778,0,0,1-1.5.219,1.6,1.6,0,0,1-1.774-1.811V28.49H61.647V27.5h1.262V25.728l1.226-.183v1.939H66.2l-.11.988H64.135v4.536C64.135,33.685,64.3,33.886,64.976,33.886Zm1.61-13.773H65.36V9.8h1.226v6.42L69.11,12.87h1.445l-2.78,3.585,2.89,3.658H69.219l-2.634-3.439v3.439Zm6.6,14.633H71.945V29.46c0-.658-.274-.988-.988-.988a5.537,5.537,0,0,0-2.049.476v5.8H67.683V27.484h.988l.11.64a4.563,4.563,0,0,1,2.488-.787,1.758,1.758,0,0,1,1.921,1.994ZM71.4,16.455c0-2.085.7-3.731,2.908-3.731,1.975,0,2.8,1.39,2.8,3.128V17.04H72.622c.073,1.536.457,2.268,1.939,2.268a6.279,6.279,0,0,0,2.14-.4l.183.933a6.669,6.669,0,0,1-2.341.439C71.927,20.277,71.4,18.485,71.4,16.455Zm9.127,15.218H76.042c.073,1.536.457,2.268,1.939,2.268a6.28,6.28,0,0,0,2.14-.4l.183.933a6.669,6.669,0,0,1-2.341.439c-2.616,0-3.146-1.793-3.146-3.823,0-2.085.7-3.731,2.908-3.731,1.975,0,2.8,1.39,2.8,3.128ZM79.3,18.448V13.857H78.036V12.87H79.3V11.1l1.226-.183v1.939H82.59l-.11.988H80.523v4.536c0,.677.165.878.841.878a5.191,5.191,0,0,0,1.1-.146l.11.933a5.778,5.778,0,0,1-1.5.219A1.6,1.6,0,0,1,79.3,18.448Zm4.17,10.847v5.469H82.243V27.5h1.006l.128.841a3.711,3.711,0,0,1,2.195-.951l.165,1.134A8.7,8.7,0,0,0,83.468,29.295Zm9.548-9.182H91.772V14.827c0-.658-.274-.988-.988-.988a5.537,5.537,0,0,0-2.049.476v5.8H87.511V12.851H88.5l.11.64A4.563,4.563,0,0,1,91.1,12.7,1.758,1.758,0,0,1,93.016,14.7Zm7.755-6.4-.969.183a2.579,2.579,0,0,1,.274,1.225c0,1.5-1.043,2.4-2.707,2.4a3.321,3.321,0,0,1-.768-.073.864.864,0,0,0-.329.677c0,.348.183.512.658.512h1.646a1.889,1.889,0,0,1,2.067,1.939c0,1.555-1.372,2.323-3.329,2.323-1.9,0-2.927-.585-2.927-1.957a1.681,1.681,0,0,1,1.152-1.555,1.125,1.125,0,0,1-.476-.969,1.376,1.376,0,0,1,.841-1.207,2.2,2.2,0,0,1-1.244-2.085c0-1.555.9-2.4,2.689-2.4a4.123,4.123,0,0,1,1.116.146h2.3v.841ZM95.54,20.844c0,.841.713,1.152,1.811,1.152,1.28,0,2.067-.329,2.067-1.3a.959.959,0,0,0-1.1-1.006H96.747a2.331,2.331,0,0,1-.585-.055A1.488,1.488,0,0,0,95.54,20.844Zm.293-5.725a1.337,1.337,0,0,0,1.536,1.518,1.373,1.373,0,0,0,1.555-1.518c0-1.061-.549-1.518-1.555-1.518C96.327,13.6,95.833,14.022,95.833,15.119ZM77.707,28.289c-1.372-.018-1.664.969-1.664,2.414h3.292v-.256C79.334,29.094,78.914,28.289,77.707,28.289ZM75.914,15.814c0-1.354-.421-2.158-1.628-2.158-1.354-.018-1.646.969-1.664,2.414h3.292ZM54.148,18.028c0,.9.293,1.317,1.134,1.317a3.54,3.54,0,0,0,2.012-.622V17.058h.018a7.135,7.135,0,0,0-1.939-.311C54.385,16.747,54.148,17.223,54.148,18.028ZM51.221,32.66c0,.9.293,1.317,1.134,1.317a3.54,3.54,0,0,0,2.012-.622V31.691h.018a7.135,7.135,0,0,0-1.939-.311C51.459,31.38,51.221,31.856,51.221,32.66ZM46.3,26.039h-1.61V30.1H46.3c1.463,0,1.866-.841,1.866-2.03C48.166,26.862,47.764,26.039,46.3,26.039Zm6.146,5.341c-.988,0-1.226.476-1.226,1.28,0,.9.293,1.317,1.134,1.317a3.54,3.54,0,0,0,2.012-.622V31.691h.018A7.135,7.135,0,0,0,52.447,31.38Zm2.927-14.633c-.988,0-1.226.476-1.226,1.28,0,.9.293,1.317,1.134,1.317a3.54,3.54,0,0,0,2.012-.622V17.058h.018A7.135,7.135,0,0,0,55.373,16.747Zm18.913-3.091c-1.354-.018-1.646.969-1.664,2.414h3.292v-.256C75.914,14.461,75.493,13.656,74.286,13.656Zm3.42,14.633c-1.372-.018-1.664.969-1.664,2.414h3.292v-.256C79.334,29.094,78.914,28.289,77.707,28.289ZM97.369,13.6c-1.043,0-1.536.421-1.536,1.518a1.337,1.337,0,0,0,1.536,1.518,1.373,1.373,0,0,0,1.555-1.518C98.924,14.058,98.375,13.6,97.369,13.6Zm.951,6.091H96.747a2.331,2.331,0,0,1-.585-.055,1.488,1.488,0,0,0-.622,1.207c0,.841.713,1.152,1.811,1.152,1.28,0,2.067-.329,2.067-1.3A.959.959,0,0,0,98.321,19.692Zm0,0H96.747a2.331,2.331,0,0,1-.585-.055,1.488,1.488,0,0,0-.622,1.207c0,.841.713,1.152,1.811,1.152,1.28,0,2.067-.329,2.067-1.3A.959.959,0,0,0,98.321,19.692ZM97.369,13.6c-1.043,0-1.536.421-1.536,1.518a1.337,1.337,0,0,0,1.536,1.518,1.373,1.373,0,0,0,1.555-1.518C98.924,14.058,98.375,13.6,97.369,13.6ZM77.707,28.289c-1.372-.018-1.664.969-1.664,2.414h3.292v-.256C79.334,29.094,78.914,28.289,77.707,28.289Zm-3.42-14.633c-1.354-.018-1.646.969-1.664,2.414h3.292v-.256C75.914,14.461,75.493,13.656,74.286,13.656ZM55.373,16.747c-.988,0-1.226.476-1.226,1.28,0,.9.293,1.317,1.134,1.317a3.54,3.54,0,0,0,2.012-.622V17.058h.018A7.135,7.135,0,0,0,55.373,16.747ZM52.447,31.38c-.988,0-1.226.476-1.226,1.28,0,.9.293,1.317,1.134,1.317a3.54,3.54,0,0,0,2.012-.622V31.691h.018A7.135,7.135,0,0,0,52.447,31.38Zm2.927-14.633c-.988,0-1.226.476-1.226,1.28,0,.9.293,1.317,1.134,1.317a3.54,3.54,0,0,0,2.012-.622V17.058h.018A7.135,7.135,0,0,0,55.373,16.747Zm18.913-3.091c-1.354-.018-1.646.969-1.664,2.414h3.292v-.256C75.914,14.461,75.493,13.656,74.286,13.656Zm3.42,14.633c-1.372-.018-1.664.969-1.664,2.414h3.292v-.256C79.334,29.094,78.914,28.289,77.707,28.289ZM97.369,13.6c-1.043,0-1.536.421-1.536,1.518a1.337,1.337,0,0,0,1.536,1.518,1.373,1.373,0,0,0,1.555-1.518C98.924,14.058,98.375,13.6,97.369,13.6Zm.951,6.091H96.747a2.331,2.331,0,0,1-.585-.055,1.488,1.488,0,0,0-.622,1.207c0,.841.713,1.152,1.811,1.152,1.28,0,2.067-.329,2.067-1.3A.959.959,0,0,0,98.321,19.692Zm0,0H96.747a2.331,2.331,0,0,1-.585-.055,1.488,1.488,0,0,0-.622,1.207c0,.841.713,1.152,1.811,1.152,1.28,0,2.067-.329,2.067-1.3A.959.959,0,0,0,98.321,19.692ZM97.369,13.6c-1.043,0-1.536.421-1.536,1.518a1.337,1.337,0,0,0,1.536,1.518,1.373,1.373,0,0,0,1.555-1.518C98.924,14.058,98.375,13.6,97.369,13.6ZM77.707,28.289c-1.372-.018-1.664.969-1.664,2.414h3.292v-.256C79.334,29.094,78.914,28.289,77.707,28.289Zm-3.42-14.633c-1.354-.018-1.646.969-1.664,2.414h3.292v-.256C75.914,14.461,75.493,13.656,74.286,13.656ZM55.373,16.747c-.988,0-1.226.476-1.226,1.28,0,.9.293,1.317,1.134,1.317a3.54,3.54,0,0,0,2.012-.622V17.058h.018A7.135,7.135,0,0,0,55.373,16.747Zm0,0c-.988,0-1.226.476-1.226,1.28,0,.9.293,1.317,1.134,1.317a3.54,3.54,0,0,0,2.012-.622V17.058h.018A7.135,7.135,0,0,0,55.373,16.747Zm18.913-3.091c-1.354-.018-1.646.969-1.664,2.414h3.292v-.256C75.914,14.461,75.493,13.656,74.286,13.656Zm3.42,14.633c-1.372-.018-1.664.969-1.664,2.414h3.292v-.256C79.334,29.094,78.914,28.289,77.707,28.289ZM97.369,13.6c-1.043,0-1.536.421-1.536,1.518a1.337,1.337,0,0,0,1.536,1.518,1.373,1.373,0,0,0,1.555-1.518C98.924,14.058,98.375,13.6,97.369,13.6Zm.951,6.091H96.747a2.331,2.331,0,0,1-.585-.055,1.488,1.488,0,0,0-.622,1.207c0,.841.713,1.152,1.811,1.152,1.28,0,2.067-.329,2.067-1.3A.959.959,0,0,0,98.321,19.692Zm0,0H96.747a2.331,2.331,0,0,1-.585-.055,1.488,1.488,0,0,0-.622,1.207c0,.841.713,1.152,1.811,1.152,1.28,0,2.067-.329,2.067-1.3A.959.959,0,0,0,98.321,19.692ZM97.369,13.6c-1.043,0-1.536.421-1.536,1.518a1.337,1.337,0,0,0,1.536,1.518,1.373,1.373,0,0,0,1.555-1.518C98.924,14.058,98.375,13.6,97.369,13.6ZM77.707,28.289c-1.372-.018-1.664.969-1.664,2.414h3.292v-.256C79.334,29.094,78.914,28.289,77.707,28.289Zm-3.42-14.633c-1.354-.018-1.646.969-1.664,2.414h3.292v-.256C75.914,14.461,75.493,13.656,74.286,13.656ZM55.373,16.747c-.988,0-1.226.476-1.226,1.28,0,.9.293,1.317,1.134,1.317a3.54,3.54,0,0,0,2.012-.622V17.058h.018A7.135,7.135,0,0,0,55.373,16.747Zm0,0c-.988,0-1.226.476-1.226,1.28,0,.9.293,1.317,1.134,1.317a3.54,3.54,0,0,0,2.012-.622V17.058h.018A7.135,7.135,0,0,0,55.373,16.747Zm18.913-3.091c-1.354-.018-1.646.969-1.664,2.414h3.292v-.256C75.914,14.461,75.493,13.656,74.286,13.656ZM97.369,13.6c-1.043,0-1.536.421-1.536,1.518a1.337,1.337,0,0,0,1.536,1.518,1.373,1.373,0,0,0,1.555-1.518C98.924,14.058,98.375,13.6,97.369,13.6Zm.951,6.091H96.747a2.331,2.331,0,0,1-.585-.055,1.488,1.488,0,0,0-.622,1.207c0,.841.713,1.152,1.811,1.152,1.28,0,2.067-.329,2.067-1.3A.959.959,0,0,0,98.321,19.692Zm0,0H96.747a2.331,2.331,0,0,1-.585-.055,1.488,1.488,0,0,0-.622,1.207c0,.841.713,1.152,1.811,1.152,1.28,0,2.067-.329,2.067-1.3A.959.959,0,0,0,98.321,19.692ZM97.369,13.6c-1.043,0-1.536.421-1.536,1.518a1.337,1.337,0,0,0,1.536,1.518,1.373,1.373,0,0,0,1.555-1.518C98.924,14.058,98.375,13.6,97.369,13.6Zm-23.083.055c-1.354-.018-1.646.969-1.664,2.414h3.292v-.256C75.914,14.461,75.493,13.656,74.286,13.656ZM55.373,16.747c-.988,0-1.226.476-1.226,1.28,0,.9.293,1.317,1.134,1.317a3.54,3.54,0,0,0,2.012-.622V17.058h.018A7.135,7.135,0,0,0,55.373,16.747Zm0,0c-.988,0-1.226.476-1.226,1.28,0,.9.293,1.317,1.134,1.317a3.54,3.54,0,0,0,2.012-.622V17.058h.018A7.135,7.135,0,0,0,55.373,16.747Zm18.913-3.091c-1.354-.018-1.646.969-1.664,2.414h3.292v-.256C75.914,14.461,75.493,13.656,74.286,13.656Zm0,0c-1.354-.018-1.646.969-1.664,2.414h3.292v-.256C75.914,14.461,75.493,13.656,74.286,13.656ZM55.373,16.747c-.988,0-1.226.476-1.226,1.28,0,.9.293,1.317,1.134,1.317a3.54,3.54,0,0,0,2.012-.622V17.058h.018A7.135,7.135,0,0,0,55.373,16.747Zm0,0c-.988,0-1.226.476-1.226,1.28,0,.9.293,1.317,1.134,1.317a3.54,3.54,0,0,0,2.012-.622V17.058h.018A7.135,7.135,0,0,0,55.373,16.747Zm18.913-3.091c-1.354-.018-1.646.969-1.664,2.414h3.292v-.256C75.914,14.461,75.493,13.656,74.286,13.656Zm0,0c-1.354-.018-1.646.969-1.664,2.414h3.292v-.256C75.914,14.461,75.493,13.656,74.286,13.656ZM55.373,16.747c-.988,0-1.226.476-1.226,1.28,0,.9.293,1.317,1.134,1.317a3.54,3.54,0,0,0,2.012-.622V17.058h.018A7.135,7.135,0,0,0,55.373,16.747Zm0,0c-.988,0-1.226.476-1.226,1.28,0,.9.293,1.317,1.134,1.317a3.54,3.54,0,0,0,2.012-.622V17.058h.018A7.135,7.135,0,0,0,55.373,16.747Zm0,0c-.988,0-1.226.476-1.226,1.28,0,.9.293,1.317,1.134,1.317a3.54,3.54,0,0,0,2.012-.622V17.058h.018A7.135,7.135,0,0,0,55.373,16.747Zm0,0c-.988,0-1.226.476-1.226,1.28,0,.9.293,1.317,1.134,1.317a3.54,3.54,0,0,0,2.012-.622V17.058h.018A7.135,7.135,0,0,0,55.373,16.747Zm0,0c-.988,0-1.226.476-1.226,1.28,0,.9.293,1.317,1.134,1.317a3.54,3.54,0,0,0,2.012-.622V17.058h.018A7.135,7.135,0,0,0,55.373,16.747Z" transform="translate(-0.5 0.3)"/></svg>