<svg xmlns="http://www.w3.org/2000/svg" width="98.47" height="45.553" viewBox="0 0 98.47 45.553"><defs><style>.a{fill:#fff;}</style></defs><g transform="translate(184 48)"><g transform="translate(-184 -48)"><path class="a" d="M176.705,465.837v.284a1,1,0,0,1,.714-.379.616.616,0,0,1,.379.112.871.871,0,0,1,.275.344,1.39,1.39,0,0,1,.379-.344.741.741,0,0,1,.387-.112.635.635,0,0,1,.482.2.806.806,0,0,1,.232.551v1.953h.241a.243.243,0,0,1,.138.034.116.116,0,0,1,.043.1.159.159,0,0,1-.043.1.2.2,0,0,1-.138.043h-.516v-2.2a.51.51,0,0,0-.129-.353.4.4,0,0,0-.3-.138.675.675,0,0,0-.327.112,1.641,1.641,0,0,0-.387.447v1.85h.232a.3.3,0,0,1,.146.034.142.142,0,0,1,.043.1.159.159,0,0,1-.043.1.211.211,0,0,1-.146.043h-.516v-2.185a.554.554,0,0,0-.129-.37.4.4,0,0,0-.292-.146.537.537,0,0,0-.293.095,1.918,1.918,0,0,0-.43.465v1.85h.241a.3.3,0,0,1,.146.034.143.143,0,0,1,.043.1.159.159,0,0,1-.043.1.211.211,0,0,1-.146.043h-.757a.228.228,0,0,1-.146-.043.145.145,0,0,1,0-.206.215.215,0,0,1,.146-.034h.232v-2.314h-.232a.228.228,0,0,1-.146-.043.145.145,0,0,1,0-.206.211.211,0,0,1,.146-.043h.516Zm8.569,1.505h-2.856a1.326,1.326,0,0,0,.456.869,1.421,1.421,0,0,0,.946.327,2.246,2.246,0,0,0,.654-.1,1.7,1.7,0,0,0,.559-.275.185.185,0,0,1,.112-.052.148.148,0,0,1,.138.138.167.167,0,0,1-.052.112,1.41,1.41,0,0,1-.568.31,2.545,2.545,0,0,1-.835.146,1.648,1.648,0,0,1-1.2-.473,1.541,1.541,0,0,1-.482-1.136,1.394,1.394,0,0,1,.447-1.041,1.538,1.538,0,0,1,1.118-.439,1.5,1.5,0,0,1,1.127.447,1.562,1.562,0,0,1,.439,1.17m-.284-.284a1.161,1.161,0,0,0-.439-.748,1.377,1.377,0,0,0-1.686-.009,1.2,1.2,0,0,0-.439.757Zm5.927-2.512v3.889h.37a.278.278,0,0,1,.146.034.142.142,0,0,1,.043.1.159.159,0,0,1-.043.1.211.211,0,0,1-.146.043h-.654v-.551a1.492,1.492,0,0,1-1.239.662,1.406,1.406,0,0,1-.731-.206,1.457,1.457,0,0,1-.551-.568,1.564,1.564,0,0,1-.2-.766,1.611,1.611,0,0,1,.2-.766,1.492,1.492,0,0,1,1.282-.774,1.489,1.489,0,0,1,1.23.662v-1.574h-.37c-.069,0-.12-.009-.146-.043a.143.143,0,0,1-.043-.1.123.123,0,0,1,.043-.095.211.211,0,0,1,.146-.043h.662Zm-.284,2.736a1.22,1.22,0,0,0-.361-.895,1.195,1.195,0,0,0-1.712,0,1.288,1.288,0,0,0,0,1.789,1.178,1.178,0,0,0,.86.37,1.128,1.128,0,0,0,.852-.37,1.234,1.234,0,0,0,.361-.895m4.826-2.159h-.413V464.4h.413Zm.009.714v2.6h1.1a.278.278,0,0,1,.146.034.143.143,0,0,1,.043.1.159.159,0,0,1-.043.1.211.211,0,0,1-.146.043h-2.478a.228.228,0,0,1-.146-.043.145.145,0,0,1,0-.206.215.215,0,0,1,.146-.034h1.1v-2.314h-.817a.228.228,0,0,1-.146-.043.145.145,0,0,1,0-.206.211.211,0,0,1,.146-.043h1.093Zm6.444,2.873v-.4a1.976,1.976,0,0,1-1.308.508,1.155,1.155,0,0,1-.783-.25.808.808,0,0,1-.284-.619.882.882,0,0,1,.37-.705,1.723,1.723,0,0,1,1.093-.3,3.819,3.819,0,0,1,.422.026q.232.026.49.077v-.447a.48.48,0,0,0-.215-.4,1,1,0,0,0-.637-.172,3.2,3.2,0,0,0-.921.189.432.432,0,0,1-.138.034.133.133,0,0,1-.129-.146.1.1,0,0,1,.034-.086,1.185,1.185,0,0,1,.379-.138,3.22,3.22,0,0,1,.791-.138,1.218,1.218,0,0,1,.826.258.772.772,0,0,1,.3.585v1.85h.37a.278.278,0,0,1,.146.034.142.142,0,0,1,.043.1.159.159,0,0,1-.043.1.212.212,0,0,1-.146.043h-.662Zm0-1.385c-.129-.034-.267-.06-.413-.086a3.978,3.978,0,0,0-.465-.026,1.573,1.573,0,0,0-.955.258.568.568,0,0,0-.258.465.534.534,0,0,0,.2.422.886.886,0,0,0,.576.172,1.664,1.664,0,0,0,.68-.146,2.4,2.4,0,0,0,.645-.465v-.594Zm12.3,1.385v-.4a1.976,1.976,0,0,1-1.308.508,1.179,1.179,0,0,1-.792-.25.808.808,0,0,1-.284-.619.882.882,0,0,1,.37-.705,1.723,1.723,0,0,1,1.093-.3,3.819,3.819,0,0,1,.422.026q.232.026.49.077v-.447a.48.48,0,0,0-.215-.4,1.021,1.021,0,0,0-.637-.172,3.2,3.2,0,0,0-.921.189.432.432,0,0,1-.138.034.133.133,0,0,1-.129-.146.1.1,0,0,1,.034-.086,1.184,1.184,0,0,1,.379-.138,3.22,3.22,0,0,1,.791-.138,1.218,1.218,0,0,1,.826.258.772.772,0,0,1,.3.585v1.85h.37a.278.278,0,0,1,.146.034.142.142,0,0,1,.043.1.159.159,0,0,1-.043.1.228.228,0,0,1-.146.043h-.654Zm0-1.385c-.129-.034-.267-.06-.413-.086a3.978,3.978,0,0,0-.465-.026,1.573,1.573,0,0,0-.955.258.568.568,0,0,0-.258.465.534.534,0,0,0,.2.422.886.886,0,0,0,.576.172,1.664,1.664,0,0,0,.68-.146,2.406,2.406,0,0,0,.645-.465v-.594Zm5.919-.981v-.516h.654a.228.228,0,0,1,.146.043.142.142,0,0,1,.043.1.159.159,0,0,1-.043.1.212.212,0,0,1-.146.043h-.379v2.787a1.043,1.043,0,0,1-.12.5,1.175,1.175,0,0,1-.267.3,1.505,1.505,0,0,1-.336.224,1.084,1.084,0,0,1-.413.069h-.791a.23.23,0,0,1-.146-.034.145.145,0,0,1,0-.206.211.211,0,0,1,.146-.043h.8a.821.821,0,0,0,.447-.129.986.986,0,0,0,.327-.37.715.715,0,0,0,.077-.353v-.835a1.371,1.371,0,0,1-1.161.611,1.33,1.33,0,0,1-1-.43,1.431,1.431,0,0,1-.422-1.024,1.383,1.383,0,0,1,.422-1.024,1.34,1.34,0,0,1,1-.422,1.363,1.363,0,0,1,1.161.6m0,.843a1.122,1.122,0,0,0-.336-.826,1.132,1.132,0,0,0-1.617.009,1.122,1.122,0,0,0-.336.826,1.156,1.156,0,0,0,.336.834,1.106,1.106,0,0,0,.809.344,1.074,1.074,0,0,0,.809-.344,1.19,1.19,0,0,0,.336-.843m6.349.155h-2.856a1.326,1.326,0,0,0,.456.869,1.421,1.421,0,0,0,.946.327,2.246,2.246,0,0,0,.654-.1,1.7,1.7,0,0,0,.559-.275.185.185,0,0,1,.112-.052.148.148,0,0,1,.138.138.167.167,0,0,1-.052.112,1.41,1.41,0,0,1-.568.31,2.545,2.545,0,0,1-.834.146,1.647,1.647,0,0,1-1.2-.473,1.541,1.541,0,0,1-.482-1.136,1.372,1.372,0,0,1,.456-1.041,1.655,1.655,0,0,1,2.254.009,1.62,1.62,0,0,1,.422,1.17m-.284-.284a1.2,1.2,0,0,0-.439-.748,1.321,1.321,0,0,0-.843-.292,1.3,1.3,0,0,0-.843.284,1.235,1.235,0,0,0-.439.757Zm3.648-1.222v.422a1.812,1.812,0,0,1,.533-.4,1.185,1.185,0,0,1,.533-.112,1.2,1.2,0,0,1,.585.138.868.868,0,0,1,.336.327.838.838,0,0,1,.155.473v1.755h.241a.3.3,0,0,1,.146.034.143.143,0,0,1,.043.1.159.159,0,0,1-.043.1.212.212,0,0,1-.146.043h-.748a.212.212,0,0,1-.146-.043.145.145,0,0,1,0-.206.215.215,0,0,1,.146-.034h.232v-1.712a.652.652,0,0,0-.215-.5.8.8,0,0,0-.576-.206.951.951,0,0,0-.482.112,2.6,2.6,0,0,0-.576.551v1.746h.318a.3.3,0,0,1,.146.034.142.142,0,0,1,.043.1.159.159,0,0,1-.043.1.211.211,0,0,1-.146.043h-.912a.228.228,0,0,1-.146-.043.145.145,0,0,1,0-.206.215.215,0,0,1,.146-.034h.318v-2.314h-.241a.228.228,0,0,1-.146-.043.145.145,0,0,1,0-.206.211.211,0,0,1,.146-.043h.5Zm7.855.284v-.095a.211.211,0,0,1,.043-.146.145.145,0,0,1,.206,0,.211.211,0,0,1,.043.146v.628a.211.211,0,0,1-.043.146.142.142,0,0,1-.1.043.129.129,0,0,1-.095-.034.178.178,0,0,1-.043-.129.673.673,0,0,0-.31-.447,1.339,1.339,0,0,0-.783-.215,1.166,1.166,0,0,0-.946.387,1.344,1.344,0,0,0-.327.886,1.206,1.206,0,0,0,.361.895,1.266,1.266,0,0,0,.921.353,2.037,2.037,0,0,0,.662-.12,1.6,1.6,0,0,0,.611-.387.2.2,0,0,1,.12-.069.119.119,0,0,1,.129.129q0,.142-.336.361a2.131,2.131,0,0,1-1.213.353,1.518,1.518,0,0,1-1.11-.43,1.445,1.445,0,0,1-.43-1.093,1.5,1.5,0,0,1,.447-1.118,1.551,1.551,0,0,1,1.127-.447,1.669,1.669,0,0,1,1.067.4m4.628,2.59-1.3-2.59h-.086a.228.228,0,0,1-.146-.043.142.142,0,0,1-.043-.1.139.139,0,0,1,.026-.077.1.1,0,0,1,.052-.052.337.337,0,0,1,.112-.017h.766a.228.228,0,0,1,.146.043.142.142,0,0,1,.043.1.159.159,0,0,1-.043.1.212.212,0,0,1-.146.043h-.379l1.144,2.288,1.127-2.288h-.379a.228.228,0,0,1-.146-.043.145.145,0,0,1,0-.206.211.211,0,0,1,.146-.043h.766a.211.211,0,0,1,.146.043.142.142,0,0,1,.043.1.139.139,0,0,1-.026.077.161.161,0,0,1-.06.052.85.85,0,0,1-.189.009l-1.772,3.6h.439a.215.215,0,0,1,.146.034.142.142,0,0,1,.043.1.159.159,0,0,1-.043.1.215.215,0,0,1-.146.034h-1.617a.23.23,0,0,1-.146-.034.145.145,0,0,1,0-.206.215.215,0,0,1,.146-.034h.878Zm0,0" transform="translate(-160.859 -424.448)"/><path class="a" d="M176.705,465.837v.284a.987.987,0,0,1,.714-.379.616.616,0,0,1,.379.112.871.871,0,0,1,.275.344,1.39,1.39,0,0,1,.379-.344.741.741,0,0,1,.387-.112.635.635,0,0,1,.482.2.806.806,0,0,1,.232.551v1.953h.241a.243.243,0,0,1,.138.034.142.142,0,0,1,.043.1.159.159,0,0,1-.043.1.2.2,0,0,1-.138.043h-.516v-2.2a.51.51,0,0,0-.129-.353.4.4,0,0,0-.3-.138.675.675,0,0,0-.327.112,1.641,1.641,0,0,0-.387.447v1.85h.232a.3.3,0,0,1,.146.034.142.142,0,0,1,.043.1.159.159,0,0,1-.043.1.211.211,0,0,1-.146.043h-.516v-2.185a.554.554,0,0,0-.129-.37.4.4,0,0,0-.292-.146.537.537,0,0,0-.293.095,1.918,1.918,0,0,0-.43.465v1.85h.241a.3.3,0,0,1,.146.034.143.143,0,0,1,.043.1.159.159,0,0,1-.043.1.211.211,0,0,1-.146.043h-.757a.228.228,0,0,1-.146-.043.145.145,0,0,1,0-.206.215.215,0,0,1,.146-.034h.232v-2.314h-.232a.228.228,0,0,1-.146-.043.145.145,0,0,1,0-.206.211.211,0,0,1,.146-.043h.516Zm8.569,1.505h-2.856a1.326,1.326,0,0,0,.456.869,1.421,1.421,0,0,0,.946.327,2.246,2.246,0,0,0,.654-.1,1.7,1.7,0,0,0,.559-.275.185.185,0,0,1,.112-.052.148.148,0,0,1,.138.138.167.167,0,0,1-.052.112,1.475,1.475,0,0,1-.568.31,2.556,2.556,0,0,1-.843.146,1.648,1.648,0,0,1-1.2-.473,1.541,1.541,0,0,1-.482-1.136,1.4,1.4,0,0,1,.456-1.041,1.538,1.538,0,0,1,1.118-.439,1.5,1.5,0,0,1,1.127.447,1.562,1.562,0,0,1,.439,1.17m-.284-.284a1.161,1.161,0,0,0-.439-.748,1.321,1.321,0,0,0-.843-.292,1.3,1.3,0,0,0-.843.284,1.2,1.2,0,0,0-.439.757Zm5.927-2.512v3.889h.37a.278.278,0,0,1,.146.034.142.142,0,0,1,.043.1.159.159,0,0,1-.043.1.211.211,0,0,1-.146.043h-.654v-.551a1.492,1.492,0,0,1-1.239.662,1.406,1.406,0,0,1-.731-.206,1.457,1.457,0,0,1-.551-.568,1.564,1.564,0,0,1-.2-.766,1.611,1.611,0,0,1,.2-.766,1.492,1.492,0,0,1,1.282-.774,1.489,1.489,0,0,1,1.23.662v-1.574h-.37c-.069,0-.12-.009-.146-.043a.143.143,0,0,1-.043-.1.123.123,0,0,1,.043-.095.211.211,0,0,1,.146-.043h.662Zm-.284,2.736a1.22,1.22,0,0,0-.361-.895,1.195,1.195,0,0,0-1.712,0,1.288,1.288,0,0,0,0,1.789,1.178,1.178,0,0,0,.86.37,1.128,1.128,0,0,0,.852-.37,1.234,1.234,0,0,0,.361-.895m4.826-2.159h-.413V464.4h.413Zm.009.714v2.6h1.1a.278.278,0,0,1,.146.034.116.116,0,0,1,.043.1.159.159,0,0,1-.043.1.211.211,0,0,1-.146.043h-2.478a.228.228,0,0,1-.146-.043.116.116,0,0,1-.043-.1.143.143,0,0,1,.043-.1.215.215,0,0,1,.146-.034h1.1v-2.314h-.817a.228.228,0,0,1-.146-.043.145.145,0,0,1,0-.206.211.211,0,0,1,.146-.043h1.093Zm6.444,2.873v-.4a1.976,1.976,0,0,1-1.308.508,1.155,1.155,0,0,1-.783-.25.808.808,0,0,1-.284-.619.882.882,0,0,1,.37-.705,1.723,1.723,0,0,1,1.093-.3,3.819,3.819,0,0,1,.422.026q.232.026.49.077v-.447a.48.48,0,0,0-.215-.4,1.021,1.021,0,0,0-.637-.172,3.148,3.148,0,0,0-.921.189.432.432,0,0,1-.138.034.133.133,0,0,1-.129-.146.1.1,0,0,1,.034-.086,1.185,1.185,0,0,1,.379-.138,3.22,3.22,0,0,1,.791-.138,1.218,1.218,0,0,1,.826.258.772.772,0,0,1,.3.585v1.85h.37a.278.278,0,0,1,.146.034.142.142,0,0,1,.043.1.159.159,0,0,1-.043.1.212.212,0,0,1-.146.043h-.662Zm0-1.385c-.129-.034-.267-.06-.413-.086a3.978,3.978,0,0,0-.465-.026,1.573,1.573,0,0,0-.955.258.568.568,0,0,0-.258.465.534.534,0,0,0,.2.422.87.87,0,0,0,.576.172,1.664,1.664,0,0,0,.68-.146,2.4,2.4,0,0,0,.645-.465v-.594Zm12.3,1.385v-.4a1.976,1.976,0,0,1-1.308.508,1.14,1.14,0,0,1-.783-.25.808.808,0,0,1-.284-.619.882.882,0,0,1,.37-.705,1.722,1.722,0,0,1,1.093-.3,3.819,3.819,0,0,1,.422.026q.232.026.49.077v-.447a.48.48,0,0,0-.215-.4,1.021,1.021,0,0,0-.637-.172,3.2,3.2,0,0,0-.921.189.49.49,0,0,1-.138.034.133.133,0,0,1-.129-.146.1.1,0,0,1,.034-.086,1.185,1.185,0,0,1,.379-.138,3.22,3.22,0,0,1,.791-.138,1.218,1.218,0,0,1,.826.258.772.772,0,0,1,.3.585v1.85h.37a.278.278,0,0,1,.146.034.142.142,0,0,1,.043.1.159.159,0,0,1-.043.1.212.212,0,0,1-.146.043h-.662Zm0-1.385c-.129-.034-.267-.06-.413-.086a3.978,3.978,0,0,0-.465-.026,1.573,1.573,0,0,0-.955.258.568.568,0,0,0-.258.465.534.534,0,0,0,.2.422.886.886,0,0,0,.576.172,1.664,1.664,0,0,0,.68-.146,2.406,2.406,0,0,0,.645-.465v-.594Zm5.919-.981v-.516h.654a.228.228,0,0,1,.146.043.142.142,0,0,1,.043.1.159.159,0,0,1-.043.1.212.212,0,0,1-.146.043h-.379v2.787a1.043,1.043,0,0,1-.12.5,1.175,1.175,0,0,1-.267.3,1.363,1.363,0,0,1-.344.224,1.084,1.084,0,0,1-.413.069h-.791a.23.23,0,0,1-.146-.034.145.145,0,0,1,0-.206.211.211,0,0,1,.146-.043h.8a.8.8,0,0,0,.447-.129.986.986,0,0,0,.327-.37.714.714,0,0,0,.077-.353v-.835a1.371,1.371,0,0,1-1.161.611,1.33,1.33,0,0,1-1-.43,1.431,1.431,0,0,1-.422-1.024,1.383,1.383,0,0,1,.422-1.024,1.34,1.34,0,0,1,1-.422,1.367,1.367,0,0,1,1.17.6m0,.843a1.146,1.146,0,0,0-1.144-1.161,1.087,1.087,0,0,0-.809.344,1.122,1.122,0,0,0-.336.826,1.156,1.156,0,0,0,.336.834,1.106,1.106,0,0,0,.809.344,1.074,1.074,0,0,0,.809-.344,1.228,1.228,0,0,0,.336-.843m6.349.155h-2.856a1.326,1.326,0,0,0,.456.869,1.421,1.421,0,0,0,.946.327,2.246,2.246,0,0,0,.654-.1,1.7,1.7,0,0,0,.559-.275.185.185,0,0,1,.112-.052.148.148,0,0,1,.138.138.167.167,0,0,1-.052.112,1.41,1.41,0,0,1-.568.31,2.545,2.545,0,0,1-.834.146,1.647,1.647,0,0,1-1.2-.473,1.541,1.541,0,0,1-.482-1.136,1.394,1.394,0,0,1,.447-1.041,1.655,1.655,0,0,1,2.254.009,1.59,1.59,0,0,1,.43,1.17m-.284-.284a1.2,1.2,0,0,0-.439-.748,1.321,1.321,0,0,0-.843-.292,1.3,1.3,0,0,0-.843.284,1.235,1.235,0,0,0-.439.757Zm3.648-1.222v.422a1.812,1.812,0,0,1,.533-.4,1.185,1.185,0,0,1,.533-.112,1.2,1.2,0,0,1,.585.138.868.868,0,0,1,.336.327.838.838,0,0,1,.155.473v1.755h.241a.3.3,0,0,1,.146.034.143.143,0,0,1,.043.1.159.159,0,0,1-.043.1.212.212,0,0,1-.146.043h-.748a.212.212,0,0,1-.146-.043.116.116,0,0,1-.043-.1.142.142,0,0,1,.043-.1.215.215,0,0,1,.146-.034h.232v-1.712a.652.652,0,0,0-.215-.5.8.8,0,0,0-.576-.206.951.951,0,0,0-.482.112,2.6,2.6,0,0,0-.576.551v1.746h.318a.3.3,0,0,1,.146.034.142.142,0,0,1,.043.1.159.159,0,0,1-.043.1.211.211,0,0,1-.146.043h-.912a.228.228,0,0,1-.146-.043.145.145,0,0,1,0-.206.215.215,0,0,1,.146-.034h.318v-2.314h-.241a.228.228,0,0,1-.146-.043.145.145,0,0,1,0-.206.211.211,0,0,1,.146-.043h.5Zm7.855.284v-.095a.211.211,0,0,1,.043-.146.145.145,0,0,1,.206,0,.211.211,0,0,1,.043.146v.628a.211.211,0,0,1-.043.146.142.142,0,0,1-.1.043.129.129,0,0,1-.095-.034.178.178,0,0,1-.043-.129.673.673,0,0,0-.31-.447,1.339,1.339,0,0,0-.783-.215,1.166,1.166,0,0,0-.946.387,1.344,1.344,0,0,0-.327.886,1.206,1.206,0,0,0,.361.895,1.266,1.266,0,0,0,.921.353,2.037,2.037,0,0,0,.662-.12,1.6,1.6,0,0,0,.611-.387.2.2,0,0,1,.12-.069.119.119,0,0,1,.129.129q0,.142-.336.361a2.131,2.131,0,0,1-1.213.353,1.518,1.518,0,0,1-1.11-.43,1.452,1.452,0,0,1-.439-1.093,1.5,1.5,0,0,1,.447-1.118,1.551,1.551,0,0,1,1.127-.447,1.674,1.674,0,0,1,1.075.4m4.628,2.59-1.3-2.59h-.086a.228.228,0,0,1-.146-.043.142.142,0,0,1-.043-.1.139.139,0,0,1,.026-.077.1.1,0,0,1,.052-.052.337.337,0,0,1,.112-.017h.766a.228.228,0,0,1,.146.043.142.142,0,0,1,.043.1.159.159,0,0,1-.043.1.212.212,0,0,1-.146.043h-.379l1.144,2.288,1.127-2.288h-.379a.228.228,0,0,1-.146-.043.145.145,0,0,1,0-.206.211.211,0,0,1,.146-.043h.766a.211.211,0,0,1,.146.043.142.142,0,0,1,.043.1.139.139,0,0,1-.026.077.116.116,0,0,1-.06.052.85.85,0,0,1-.189.009l-1.772,3.6h.439a.23.23,0,0,1,.146.034.142.142,0,0,1,.043.1.159.159,0,0,1-.043.1.215.215,0,0,1-.146.034h-1.617a.23.23,0,0,1-.146-.034.145.145,0,0,1,0-.206.215.215,0,0,1,.146-.034h.878Zm0,0" transform="translate(-160.859 -424.448)"/><path class="a" d="M41.965,14.677l-10.126.052a14.494,14.494,0,0,1,4.388-6.375,14.362,14.362,0,0,1,7.115-3.278v14.47h4.843V0H44.968V.017a19.713,19.713,0,0,0-17.387,12.1,19.4,19.4,0,0,0-1.463,7.433ZM56.04,4.869l10.126-.052a14.424,14.424,0,0,1-4.388,6.375,14.362,14.362,0,0,1-7.115,3.278V0H49.811V19.555h3.218v-.017A19.258,19.258,0,0,0,60.4,17.791a19.532,19.532,0,0,0,5.979-4.233,19.25,19.25,0,0,0,4.035-6.125A19.4,19.4,0,0,0,71.878,0ZM98.47,33.208a1.79,1.79,0,0,0-.318-1.127,2.444,2.444,0,0,0-.8-.68,4.94,4.94,0,0,0-1.05-.413,7.871,7.871,0,0,1-1.05-.37,2.68,2.68,0,0,1-.809-.525,1.2,1.2,0,0,1-.327-.886,1.41,1.41,0,0,1,.138-.637,1.569,1.569,0,0,1,.379-.508,1.892,1.892,0,0,1,.568-.344,1.916,1.916,0,0,1,.714-.12,2.711,2.711,0,0,1,.748.1,4.739,4.739,0,0,1,.895.387l.258-.568a4.042,4.042,0,0,0-1.97-.533,2.653,2.653,0,0,0-.955.172,2.4,2.4,0,0,0-.774.482,2.259,2.259,0,0,0-.525.714,2.046,2.046,0,0,0-.2.878,1.873,1.873,0,0,0,.189.886,1.985,1.985,0,0,0,.49.6,3.018,3.018,0,0,0,.688.4c.258.112.525.206.8.3s.542.189.8.275a3.741,3.741,0,0,1,.7.336,1.544,1.544,0,0,1,.49.482,1.324,1.324,0,0,1,.189.723,1.883,1.883,0,0,1-.181.869,1.53,1.53,0,0,1-.482.559,1.982,1.982,0,0,1-.671.3,3.187,3.187,0,0,1-.748.095,2.369,2.369,0,0,1-.878-.163,5.1,5.1,0,0,1-1.024-.568l-.249.594a3.7,3.7,0,0,0,3.261.6,2.466,2.466,0,0,0,.869-.456,2.143,2.143,0,0,0,.594-.774,2.3,2.3,0,0,0,.241-1.093M83.862,27.641a4.382,4.382,0,0,1,1.574.275,3.61,3.61,0,0,1,1.239.757,3.262,3.262,0,0,1,.8,1.161,4.145,4.145,0,0,1-.026,3.08,3.278,3.278,0,0,1-.852,1.153,3.6,3.6,0,0,1-1.239.705,4.383,4.383,0,0,1-1.463.241H81.5V27.633h2.366Zm-.034-.551H80.842v8.465h3.1a5.182,5.182,0,0,0,2.125-.387,4.071,4.071,0,0,0,1.4-.989,3.714,3.714,0,0,0,.766-1.368,4.836,4.836,0,0,0,.026-2.934,3.685,3.685,0,0,0-.748-1.368A3.857,3.857,0,0,0,86.09,27.5a5.6,5.6,0,0,0-2.263-.4m-9.584,2.2a1.5,1.5,0,0,1-.542,1.222,2.589,2.589,0,0,1-1.678.447H70.613V27.641H72a2.594,2.594,0,0,1,1.712.465,1.513,1.513,0,0,1,.533,1.187m1.91,6.134-2.822-4.086a2.111,2.111,0,0,0,1.617-2.065,2.407,2.407,0,0,0-.146-.817,1.848,1.848,0,0,0-.482-.705,2.336,2.336,0,0,0-.869-.482,4.213,4.213,0,0,0-1.325-.181H69.942v8.465H70.6V31.5h2.1l2.908,4.258ZM62.879,32.089H59.223l1.824-4.009Zm2.314,3.476L61.176,26.97l-.327.163-3.932,8.431.576.258,1.488-3.192h4.155l1.471,3.183Zm-12.036-8.4-.637-.232L49.665,34.3,46.8,26.936l-.249.172L43.772,34.3,40.89,26.927l-.611.249,3.321,8.4.249.2,2.873-7.347,2.77,7.123.258.249ZM34.205,32.089H30.549l1.824-4.009Zm2.306,3.476L32.493,26.97l-.327.163-3.932,8.431.576.258L30.3,32.631h4.155l1.471,3.183ZM16.053,27.641a4.382,4.382,0,0,1,1.574.275,3.61,3.61,0,0,1,1.239.757,3.262,3.262,0,0,1,.8,1.161,4.145,4.145,0,0,1-.026,3.08,3.277,3.277,0,0,1-.852,1.153,3.6,3.6,0,0,1-1.239.705,4.383,4.383,0,0,1-1.463.241h-2.4V27.633h2.366Zm-.043-.551H13.025v8.465h3.1a5.182,5.182,0,0,0,2.125-.387,3.954,3.954,0,0,0,1.394-.989,3.714,3.714,0,0,0,.766-1.368,4.836,4.836,0,0,0,.026-2.934,3.685,3.685,0,0,0-.748-1.368A3.857,3.857,0,0,0,18.264,27.5a5.5,5.5,0,0,0-2.254-.4m-10.048,5H2.306l1.824-4.018Zm2.314,3.476L4.258,26.97l-.327.163L0,35.565l.576.258,1.488-3.192H6.22l1.471,3.183Zm0,0"/></g></g></svg>