<svg xmlns="http://www.w3.org/2000/svg" width="101.881" height="45.427" viewBox="0 0 101.881 45.427"><defs><style>.a{fill:#fff;}.b{fill:none;}</style></defs><g transform="translate(21.575 21.215)"><path class="a" d="M20.4,28.487v7.431H18V17.7h6.233a5.8,5.8,0,0,1,4.075,1.558,5.171,5.171,0,0,1,1.678,3.836,4.984,4.984,0,0,1-1.678,3.836,5.419,5.419,0,0,1-4.075,1.558Zm0-8.63V26.21h3.955a3.275,3.275,0,0,0,3.236-3.236,3,3,0,0,0-.959-2.157,3.275,3.275,0,0,0-2.277-.959H20.4Z" transform="translate(-18 -17.7)"/><path class="a" d="M34.114,22.1a5.639,5.639,0,0,1,4.075,1.438,5.133,5.133,0,0,1,1.558,3.836v7.671H37.47V33.367h-.12a4.458,4.458,0,0,1-3.836,2.157,5.12,5.12,0,0,1-3.476-1.2,3.8,3.8,0,0,1-1.438-3,3.865,3.865,0,0,1,1.438-3.116,6.472,6.472,0,0,1,3.955-1.2,7.473,7.473,0,0,1,3.476.719v-.479a2.56,2.56,0,0,0-.959-2.038,3.164,3.164,0,0,0-2.277-.839,3.616,3.616,0,0,0-3.116,1.678l-2.038-1.438A5.833,5.833,0,0,1,34.114,22.1Zm-3,9.109a2.11,2.11,0,0,0,.719,1.558,2.944,2.944,0,0,0,1.8.6,3.718,3.718,0,0,0,2.637-1.079,3.583,3.583,0,0,0,1.2-2.517,4.679,4.679,0,0,0-3-.839,3.8,3.8,0,0,0-2.4.719A1.606,1.606,0,0,0,31.117,31.209Z" transform="translate(-15.895 -16.826)"/><path class="a" d="M40.1,23.155h2.277v2.038h.12c.719-1.558,2.157-2.4,4.315-2.4h.479v2.4l-1.079-.12a3.731,3.731,0,0,0-2.637.959A3.45,3.45,0,0,0,42.5,28.549v6.832H40.1V23.155ZM54.723,35.741a3.64,3.64,0,0,1-2.517-.959,3.8,3.8,0,0,1-1.079-2.637V25.193H48.97V23.036h2.157V19.2h2.4v3.836h3v2.157h-3v6.233c0,.839.12,1.438.479,1.678a2.154,2.154,0,0,0,1.079.479,1.081,1.081,0,0,0,.6-.12c.12,0,.36-.12.479-.12l.719,2.038A5.806,5.806,0,0,1,54.723,35.741Z" transform="translate(-13.611 -17.402)"/><path class="a" d="M55.84,22.579h2.277v1.678h.12A5.3,5.3,0,0,1,59.915,22.7a5.376,5.376,0,0,1,2.277-.6,4.423,4.423,0,0,1,3.476,1.318,5.145,5.145,0,0,1,1.2,3.716v7.791h-2.4V27.254c0-2.038-1.079-3-3.116-3a3.194,3.194,0,0,0-2.4,1.079A4.274,4.274,0,0,0,58,28.093v6.952H55.6V22.579Z" transform="translate(-10.533 -16.826)"/><path class="a" d="M73.053,35.424A5.9,5.9,0,0,1,68.5,33.507a6.607,6.607,0,0,1-1.8-4.794,7.294,7.294,0,0,1,1.678-4.794A5.645,5.645,0,0,1,72.813,22a5.781,5.781,0,0,1,4.435,1.8,7.281,7.281,0,0,1,1.678,5.034v.24H69.1a4.482,4.482,0,0,0,1.2,3,4,4,0,0,0,2.757,1.079,3.821,3.821,0,0,0,3.476-2.277l2.038.959a6.635,6.635,0,0,1-2.277,2.517A4.434,4.434,0,0,1,73.053,35.424Zm-3.836-8.15h7.192a3.719,3.719,0,0,0-1.079-2.157,3.376,3.376,0,0,0-2.517-.839,3.164,3.164,0,0,0-2.277.839A3.916,3.916,0,0,0,69.217,27.274Z" transform="translate(-8.328 -16.846)"/><path class="a" d="M81,35.025H78.6V22.56h2.277V24.6H81a3.223,3.223,0,0,1,1.438-1.678,3.867,3.867,0,0,1,2.157-.719,3.481,3.481,0,0,1,1.678.36l-.719,2.277a3.727,3.727,0,0,0-1.318-.12A2.952,2.952,0,0,0,81.956,25.8,3.868,3.868,0,0,0,81,28.313Z" transform="translate(-5.965 -16.806)"/></g><path class="b" d="M30.957,9.1a2.524,2.524,0,0,0-1.558.6,2.325,2.325,0,0,0,0,3.116,1.84,1.84,0,0,0,1.558.6,1.985,1.985,0,0,0,1.438-.6,2.524,2.524,0,0,0,.6-1.558A2.071,2.071,0,0,0,32.4,9.7,1.613,1.613,0,0,0,30.957,9.1Z" transform="translate(5.72 1.807)"/><path class="b" d="M44.638,9.1a1.709,1.709,0,0,0-1.438.719,2.524,2.524,0,0,0-.6,1.558,2.279,2.279,0,0,0,.6,1.558,1.746,1.746,0,0,0,1.438.6,1.985,1.985,0,0,0,1.438-.6,2.524,2.524,0,0,0,.6-1.558,2.864,2.864,0,0,0-.6-1.678A1.613,1.613,0,0,0,44.638,9.1Z" transform="translate(8.46 1.807)"/><path class="b" d="M37.857,9.1a2.524,2.524,0,0,0-1.558.6,2.325,2.325,0,0,0,0,3.116,1.84,1.84,0,0,0,1.558.6,1.985,1.985,0,0,0,1.438-.6,2.524,2.524,0,0,0,.6-1.558A2.071,2.071,0,0,0,39.3,9.7,1.613,1.613,0,0,0,37.857,9.1Z" transform="translate(7.09 1.807)"/><path class="b" d="M54.377,9.24A2.222,2.222,0,0,0,53.538,9a2.49,2.49,0,0,0-1.438.6,2.279,2.279,0,0,0-.6,1.558l3.356-1.438C54.736,9.6,54.616,9.36,54.377,9.24Z" transform="translate(10.228 1.787)"/><path class="a" d="M23.473,9.654v1.558h3.836a4.168,4.168,0,0,1-1.2,2.4,3.762,3.762,0,0,1-2.517.839,4.1,4.1,0,0,1-4.2-4.2,4.1,4.1,0,0,1,4.2-4.2A4.3,4.3,0,0,1,26.47,7.137l1.079-1.079A5.329,5.329,0,0,0,23.593,4.5a5.41,5.41,0,0,0-3,.839A4.7,4.7,0,0,0,18.439,7.5a5.771,5.771,0,0,0-.839,2.877,4.778,4.778,0,0,0,.839,2.877A6.187,6.187,0,0,0,20.6,15.407a6.626,6.626,0,0,0,3,.839,5.741,5.741,0,0,0,3.955-1.438,7.266,7.266,0,0,0,1.318-4.2V9.654Z" transform="translate(3.495 0.894)"/><path class="a" d="M31.216,7.8A3.684,3.684,0,0,0,27.5,11.516a3.729,3.729,0,0,0,6.353,2.637,3.524,3.524,0,0,0,1.079-2.637,3.524,3.524,0,0,0-1.079-2.637A3.347,3.347,0,0,0,31.216,7.8Zm1.558,5.394a1.746,1.746,0,0,1-1.438.6,2.524,2.524,0,0,1-1.558-.6,2.524,2.524,0,0,1-.6-1.558,2.071,2.071,0,0,1,.6-1.558,1.84,1.84,0,0,1,1.558-.6,2.524,2.524,0,0,1,1.558.6,2.279,2.279,0,0,1,.6,1.558A3.715,3.715,0,0,1,32.774,13.194Z" transform="translate(5.461 1.549)"/><rect class="a" width="1.678" height="11.027" transform="translate(57.653 5.633)"/><path class="a" d="M38.116,7.8A3.684,3.684,0,0,0,34.4,11.516a3.729,3.729,0,0,0,6.353,2.637,3.524,3.524,0,0,0,1.079-2.637A3.684,3.684,0,0,0,38.116,7.8Zm1.438,5.394a1.746,1.746,0,0,1-1.438.6,2.524,2.524,0,0,1-1.558-.6,2.524,2.524,0,0,1-.6-1.558,2.071,2.071,0,0,1,.6-1.558,1.84,1.84,0,0,1,1.558-.6,2.524,2.524,0,0,1,1.558.6,2.279,2.279,0,0,1,.6,1.558A2.676,2.676,0,0,1,39.554,13.194Z" transform="translate(6.832 1.549)"/><path class="a" d="M53.916,13.773a1.859,1.859,0,0,1-1.8-1.079l5.034-2.038-.12-.479a7.117,7.117,0,0,0-.479-.959c-.24-.24-.479-.6-.719-.719a7.569,7.569,0,0,0-1.079-.479,3.318,3.318,0,0,0-1.079-.12A3.489,3.489,0,0,0,50.2,11.616a3.684,3.684,0,0,0,3.716,3.716,3.616,3.616,0,0,0,3.116-1.678l-1.318-.839A1.988,1.988,0,0,1,53.916,13.773ZM52.357,9.938A1.709,1.709,0,0,1,53.8,9.218a1.732,1.732,0,0,1,.839.24.8.8,0,0,1,.479.6L51.758,11.5A2.071,2.071,0,0,1,52.357,9.938Z" transform="translate(9.97 1.569)"/><path class="a" d="M46.833,8.639h0A2.469,2.469,0,0,0,44.8,7.8a3.45,3.45,0,0,0-2.517,1.079A3.718,3.718,0,0,0,41.2,11.516a3.524,3.524,0,0,0,1.079,2.637A3.45,3.45,0,0,0,44.8,15.231a2.1,2.1,0,0,0,1.918-.839h0v.36c0,1.558-.719,2.4-2.038,2.4a1.465,1.465,0,0,1-1.079-.36,1.864,1.864,0,0,1-.719-.959l-1.438.6a4.2,4.2,0,0,0,.6.959l.719.719a2.409,2.409,0,0,0,.959.479,3.318,3.318,0,0,0,1.079.12,3.731,3.731,0,0,0,2.637-.959,4.374,4.374,0,0,0,.959-2.877V8.04H46.833Zm-.479,4.555a1.613,1.613,0,0,1-1.438.6,1.985,1.985,0,0,1-1.438-.6,2.524,2.524,0,0,1-.6-1.558,2.279,2.279,0,0,1,.6-1.558,1.873,1.873,0,0,1,1.438-.719,1.985,1.985,0,0,1,1.438.6,2.6,2.6,0,0,1,.6,1.678A2.524,2.524,0,0,1,46.354,13.194Z" transform="translate(8.182 1.549)"/><rect class="a" width="11.986" height="45.427"/></svg>