<svg xmlns="http://www.w3.org/2000/svg" width="185" height="185" viewBox="0 0 185 185"><g><g><g><path fill="#18cdcd" d="M64.752 181.12L3.808 120.176l1.225-1.225 60.944 60.945z"/></g><g><path fill="#18cdcd" d="M94.164 185.072L-.145 90.763 1.08 89.54l94.309 94.308z"/></g><g><path fill="#18cdcd" d="M116.283 181.731L3.197 68.644l1.225-1.225 113.086 113.087z"/></g><g><path fill="#18cdcd" d="M134.49 174.477L10.45 50.439l1.226-1.225 124.039 124.038z"/></g><g><path fill="#18cdcd" d="M80.848 184.485L.442 104.081l1.225-1.225 80.405 80.405z"/></g><g><path fill="#18cdcd" d="M105.82 183.998L.93 79.108l1.225-1.225 104.89 104.89z"/></g><g><path fill="#18cdcd" d="M125.794 178.511L6.417 59.134l1.225-1.224 119.376 119.376z"/></g><g><path fill="#18cdcd" d="M142.46 169.718L15.21 42.468l1.225-1.226 127.25 127.251z"/></g><g><path fill="#18cdcd" d="M149.767 164.294L20.634 35.16l1.225-1.225L150.992 163.07z"/></g><g><path fill="#18cdcd" d="M156.443 158.24L26.688 28.485l1.225-1.225 129.755 129.755z"/></g><g><path fill="#18cdcd" d="M162.497 151.564L33.364 22.43l1.225-1.224 129.133 129.132z"/></g><g><path fill="#18cdcd" d="M167.92 144.258L40.67 17.007l1.225-1.225 127.25 127.251z"/></g><g><path fill="#18cdcd" d="M172.68 136.287L48.64 12.248l1.225-1.225 124.039 124.039z"/></g><g><path fill="#18cdcd" d="M176.714 127.59L57.337 8.214l1.225-1.225 119.377 119.376z"/></g><g><path fill="#18cdcd" d="M179.934 118.08L66.847 4.995l1.225-1.225L181.16 116.856z"/></g><g><path fill="#18cdcd" d="M182.202 107.618L77.31 2.727l1.225-1.225 104.892 104.89z"/></g><g><path fill="#18cdcd" d="M183.275 95.961L88.966 1.653 90.191.428l94.31 94.308z"/></g><g><path fill="#18cdcd" d="M182.688 82.645L102.283 2.239l1.225-1.225 80.405 80.406z"/></g><g><path fill="#18cdcd" d="M179.323 66.55L118.379 5.603l1.225-1.224 60.944 60.944z"/></g><g><path fill="#18cdcd" d="M40.513 169.612l-25.197-25.198 1.225-1.225 25.197 25.198z"/></g><g><path fill="#18cdcd" d="M167.815 42.31l-25.198-25.197 1.225-1.225 25.198 25.198z"/></g></g></g></svg>