<svg xmlns="http://www.w3.org/2000/svg" width="261.66" height="75.723" viewBox="0 0 261.66 75.723"><defs><style>.a{fill:#fff;}</style></defs><g transform="translate(0 -0.001)"><path class="a" d="M9.88,56.994c-.407,0-.851-.006-1.321-.012-.542-.007-1.156-.016-1.811-.016C.757,56.966,0,56.84,0,55.841,0,54.813,1.256,54.6,3.142,54.6h.01A326.949,326.949,0,0,1,6.365,19.127c.266-1.822.477-3.262.609-4.556a7.4,7.4,0,0,1,2.117-4.91,5.365,5.365,0,0,1,2.436-1.231c.068-.017.126-.031.171-.044-.7-.131-1.278-.858-1.715-2.16a13.238,13.238,0,0,1-.576-2.85,2.715,2.715,0,0,1,.856-1.92A4.245,4.245,0,0,1,13.063,0a1.433,1.433,0,0,1,1.165.516,1.543,1.543,0,0,1,.153,1.6c-.051.144-.436,1.03-.691,1.617l-.13.3c.069,0,.14,0,.209,0a4.809,4.809,0,0,1,1.154.139,3.384,3.384,0,0,1,1.83,1.1,1.244,1.244,0,0,1,.332,1.005A2.009,2.009,0,0,1,16,7.487c2.254-.1,4.151-.153,5.8-.153a35.715,35.715,0,0,1,6.539.455,3.406,3.406,0,0,1-.323-1.632,5.771,5.771,0,0,1,1.231-3.609A4.713,4.713,0,0,1,32.8,1.422a1.1,1.1,0,0,1,1.122.869A1.25,1.25,0,0,1,33.364,3.7c-.086.044-.741.239-.795.249a2.478,2.478,0,0,0-1.657,1.1A1.024,1.024,0,0,0,30.931,6a1.2,1.2,0,0,0,.679.575,3.131,3.131,0,0,0,1.109.164c.361,0,.726-.034,1.018-.061l.277-.025c.025,0,.05,0,.075,0a1.214,1.214,0,0,1,1.128,1.206,1.236,1.236,0,0,1-1.2,1.2c-.37.031-.735.055-1.077.076,2.206,1.008,3.743,3.4,4.7,7.3a63.712,63.712,0,0,1,1.3,10.632c.065,1,.127,1.937.2,2.8.513,6.163,1.579,18.987,1.349,24.178l.475.037c2.42.189,3.236.252,3.236,1.311,0,.745-2.251,1.123-6.69,1.123-1.606,0-3.167-.049-4.2-.082-.54-.017-.93-.029-1.141-.029a2.991,2.991,0,0,1-2.192-.655,3.7,3.7,0,0,1-.609-2.694c.008-1.373.016-2.793-1.228-3.72a7.033,7.033,0,0,0-4.2-.914H18.106a2.956,2.956,0,0,0-2.811,1.968,6.1,6.1,0,0,0-.449,1.968c-.183,2.143-.565,3.273-1.319,3.9S11.666,56.994,9.88,56.994ZM22.764,23.036a19.044,19.044,0,0,0-6.246,1.008,14.818,14.818,0,0,0-5.389,3.168.842.842,0,0,0-.192.955l.007.015c.89,2.047,2.974,6.841,11.82,6.841,3.639,0,6.457-1.014,8.378-3.014a8.514,8.514,0,0,0,2.17-4.055.837.837,0,0,0-.09-.586A7.641,7.641,0,0,0,29.745,24.4a16.017,16.017,0,0,0-6.6-1.362C23.02,23.037,22.891,23.036,22.764,23.036Z" transform="translate(0 0.001)"/><path class="a" d="M100.278,142.412c5.642-.065,7.075-5.554,7.648-8.957a15.869,15.869,0,0,0-6.6-1.361,19.114,19.114,0,0,0-6.63,1c-.038,3.537.631,9.371,5.58,9.313m55.846,19.9-4.013-26.5c-.167-1.212-.8-1.63-1.755-1.63h-6.269c-.963,0-1.59.419-1.756,1.63l-4.013,26.5a1.632,1.632,0,0,0,1.671,2.131H142.5a1.553,1.553,0,0,0,1.715-1.5l.346-2.9A1.46,1.46,0,0,1,146,158.761h2.529a1.346,1.346,0,0,1,1.337,1.188l.36,2.992a1.552,1.552,0,0,0,1.713,1.5h2.507a1.632,1.632,0,0,0,1.673-2.131m-8.492-8.235h-.852a1.348,1.348,0,0,1-1.338-1.511l.4-3.254,1.07-9.552a.308.308,0,0,1,.309-.223.3.3,0,0,1,.306.223l1.074,9.552.372,3.263a1.348,1.348,0,0,1-1.341,1.5m26.6,10.366a2.171,2.171,0,0,1-2.171-2.172V136.355a2.169,2.169,0,0,1,2.171-2.169h5.687c5.392,0,8.276,2.087,8.276,6.645v2.3c0,3.093-1.338,5.058-3.846,5.976v.42c2.508.96,3.846,2.926,3.846,5.975v2.3c0,4.559-2.884,6.647-8.276,6.647Zm5.687-17.472a1.88,1.88,0,0,0,2.091-1.964v-4.178a1.882,1.882,0,0,0-2.091-1.966h-.818a.853.853,0,0,0-.854.855v6.4a.853.853,0,0,0,.854.852Zm0,12.789a1.88,1.88,0,0,0,2.091-1.964v-4.179a1.88,1.88,0,0,0-2.091-1.963h-.818a.852.852,0,0,0-.854.854v6.4a.851.851,0,0,0,.854.851h.818Zm40.769-15.41a2.2,2.2,0,0,1-2.2,2.2h-1.78a2.2,2.2,0,0,1-2.2-2.2v-3.733a2.094,2.094,0,0,0-4.18,0v17.387a2.094,2.094,0,0,0,4.18,0v-3.73a2.2,2.2,0,0,1,2.2-2.2h1.78a2.2,2.2,0,0,1,2.2,2.2v3.73c0,4.557-2.884,6.646-8.277,6.646s-8.274-2.089-8.274-6.646V140.619c0-4.555,2.884-6.646,8.274-6.646s8.277,2.091,8.277,6.646Zm22.127,2.537h.419l4.807-11.743a1.588,1.588,0,0,1,1.587-.963h2.844a1.7,1.7,0,0,1,1.588,2.424l-5.25,12.375a.853.853,0,0,0,0,.665l5.25,12.374a1.7,1.7,0,0,1-1.588,2.423h-2.844a1.588,1.588,0,0,1-1.587-.96l-4.807-11.745h-.419v10.535a2.169,2.169,0,0,1-2.17,2.17H238.8a2.171,2.171,0,0,1-2.17-2.17V136.354a2.171,2.171,0,0,1,2.17-2.169h1.846a2.169,2.169,0,0,1,2.17,2.169Zm33.461,15.385a2.168,2.168,0,0,1-2.17,2.169h-1.846a2.168,2.168,0,0,1-2.169-2.169v-25.92a2.17,2.17,0,0,1,2.169-2.17h1.846a2.17,2.17,0,0,1,2.17,2.17Zm18.072,2.17a2.17,2.17,0,0,1-2.169-2.172V136.355a2.168,2.168,0,0,1,2.169-2.169h6.107c5.393,0,8.276,2.087,8.276,6.645V157.8c0,4.559-2.883,6.647-8.276,6.647Zm6.107-4.683a1.879,1.879,0,0,0,2.09-1.964V140.831a1.881,1.881,0,0,0-2.09-1.966h-1.235a.854.854,0,0,0-.854.855v19.192a.851.851,0,0,0,.854.851h1.235Zm31.064-14.418,4.89,4.138c3.01,2.549,3.427,4.639,3.427,8.526,0,4.557-2.884,6.647-8.277,6.647s-8.273-2.09-8.273-6.647V155.5a2.169,2.169,0,0,1,2.17-2.169h1.845a2.17,2.17,0,0,1,2.171,2.169v2.51a2.094,2.094,0,0,0,4.179,0c0-2.173-.335-3.3-2.049-4.722l-4.889-4.139c-3.009-2.548-3.428-4.639-3.428-8.526,0-4.556,2.884-6.645,8.273-6.645s8.277,2.09,8.277,6.645v2.512a2.169,2.169,0,0,1-2.169,2.169h-1.846a2.169,2.169,0,0,1-2.17-2.169v-2.512a2.094,2.094,0,0,0-4.179,0c0,2.175.333,3.3,2.047,4.724M242.6,170.935c3.5,0,5.513,1.72,5.513,4.77,0,3.207-2.013,5.064-5.513,5.064h-2.483v3.852h-3.481V170.935Zm-2.483,7.1h2.307c1.525,0,2.406-.763,2.406-2.21,0-1.428-.881-2.15-2.406-2.15h-2.307Zm27.626-.274a7.411,7.411,0,0,1-14.8,0c0-3.989,3.167-6.94,7.39-6.94,4.243,0,7.411,2.971,7.411,6.94m-11.242.02a3.98,3.98,0,0,0,3.871,4.087,4.072,4.072,0,1,0-3.871-4.087m26.277,3.929v2.913h-9.287V170.935h3.481v10.773Zm8.739.391-1,2.522H286.94l5.9-13.686h3.578l5.767,13.686h-3.715L297.5,182.1Zm3.012-7.7-1.994,5.064h3.949Zm22.406,10.225-6.3-8.427v8.427h-3.265V170.935h3.07l6.315,8.446v-8.446H320v13.686Zm15.6-13.686c4.3,0,7.273,2.776,7.273,6.843,0,4.047-3.011,6.843-7.41,6.843h-5.748V170.935h5.885Zm-2.405,10.909h2.483c2.132,0,3.657-1.642,3.657-4.047a3.8,3.8,0,0,0-3.812-4.086h-2.327Z" transform="translate(-78.182 -109.053)"/></g></svg>