<svg xmlns="http://www.w3.org/2000/svg" width="106" height="106" viewBox="0 0 106 106"><g><g><g><path fill="#fff" d="M53.003 95.104c-.934 0-1.693-.76-1.693-1.693s.759-1.693 1.693-1.693c.935 0 1.694.76 1.694 1.693s-.759 1.693-1.694 1.693zm0-6.773c-2.8 0-5.08 2.28-5.08 5.08 0 2.8 2.28 5.08 5.08 5.08 2.801 0 5.08-2.28 5.08-5.08 0-2.8-2.279-5.08-5.08-5.08z"/></g><g><path fill="#fff" d="M27.604 34.146a3.39 3.39 0 0 1-3.386 3.387 3.39 3.39 0 0 1-3.387-3.387V30.76a3.39 3.39 0 0 1 3.387-3.387 3.39 3.39 0 0 1 3.386 3.387zm3.387 0V30.76a6.78 6.78 0 0 0-6.773-6.773 6.78 6.78 0 0 0-6.773 6.773v3.386a6.78 6.78 0 0 0 6.773 6.773 6.78 6.78 0 0 0 6.773-6.773z"/></g><g><path fill="#fff" d="M102.109 71.398a3.39 3.39 0 0 1-3.387 3.387h-5.08V66.32c0-2.801-2.279-5.08-5.08-5.08H75.016c-2.8 0-5.08 2.279-5.08 5.08v8.466h-5.08a3.39 3.39 0 0 1-3.386-3.387v-6.773c0-.448-.178-.88-.496-1.197l-5.576-5.576h4.379c.936 0 1.693-.758 1.693-1.693V44.306a3.39 3.39 0 0 1 3.386-3.387h33.866a3.39 3.39 0 0 1 3.387 3.387zm-11.853 3.387h-1.694v-6.773h-3.386v6.773h-6.773v-6.773h-3.387v6.773h-1.693V66.32c0-.933.758-1.694 1.693-1.694h13.546c.935 0 1.694.76 1.694 1.694zm-11.853 6.773H27.604V57.852H41.15a6.78 6.78 0 0 0 6.774-6.773V46h6.773a1.694 1.694 0 0 0 1.197-2.89l-7.97-7.97V23.987a6.78 6.78 0 0 0-6.774-6.773H27.604v-3.387h50.799v23.706H64.856a6.78 6.78 0 0 0-6.773 6.773v10.16H51.31a1.694 1.694 0 0 0-1.197 2.89l7.97 7.97v6.072a6.78 6.78 0 0 0 6.773 6.774h13.547zm-8.467 20.32H36.071c-4.669 0-8.467-3.798-8.467-8.467v-8.466h50.799v8.466c0 4.669-3.798 8.467-8.467 8.467zM27.604 47.693v6.773h-6.773v-6.773h-3.386v6.773H15.75v-8.467c0-.933.759-1.693 1.694-1.693H30.99c.934 0 1.693.76 1.693 1.693v8.467h-1.693v-6.773zM3.898 51.079V23.987A3.39 3.39 0 0 1 7.285 20.6H41.15a3.39 3.39 0 0 1 3.387 3.387V35.84c0 .448.178.88.496 1.197l5.576 5.576H46.23c-.936 0-1.693.758-1.693 1.693v6.773a3.39 3.39 0 0 1-3.386 3.387h-5.08v-8.467c0-2.8-2.28-5.08-5.08-5.08H17.445c-2.801 0-5.08 2.28-5.08 5.08v8.467h-5.08a3.39 3.39 0 0 1-3.387-3.387zM36.071 3.667h33.865c4.088 0 7.508 2.914 8.296 6.773H27.775c.788-3.859 4.208-6.773 8.296-6.773zm62.651 33.866H81.789v-25.4C81.79 5.599 76.471.282 69.936.282H36.071c-6.535 0-11.853 5.317-11.853 11.853v5.08H7.285a6.78 6.78 0 0 0-6.773 6.773v27.092a6.78 6.78 0 0 0 6.773 6.773h16.933v35.56c0 6.535 5.318 11.852 11.853 11.852h33.865c6.535 0 11.853-5.317 11.853-11.853v-15.24h16.933a6.78 6.78 0 0 0 6.773-6.772V44.306a6.781 6.781 0 0 0-6.773-6.773z"/></g><g><path fill="#fff" d="M85.176 54.466a3.39 3.39 0 0 1-3.387 3.386 3.39 3.39 0 0 1-3.386-3.386v-3.387a3.39 3.39 0 0 1 3.386-3.386 3.39 3.39 0 0 1 3.387 3.386zm3.386 0v-3.387a6.78 6.78 0 0 0-6.773-6.773 6.78 6.78 0 0 0-6.773 6.773v3.387a6.78 6.78 0 0 0 6.773 6.773 6.78 6.78 0 0 0 6.773-6.773z"/></g><g><path fill="#fff" d="M51.31 73.092h3.387v3.386H51.31z"/></g><g><path fill="#fff" d="M44.537 73.092h3.387v3.386h-3.387z"/></g><g><path fill="#fff" d="M37.764 73.092h3.386v3.386h-3.386z"/></g><g><path fill="#fff" d="M64.856 17.214h3.387V20.6h-3.387z"/></g><g><path fill="#fff" d="M58.083 17.214h3.387V20.6h-3.387z"/></g><g><path fill="#fff" d="M51.31 17.214h3.387V20.6H51.31z"/></g></g></g></svg>