<svg xmlns="http://www.w3.org/2000/svg" width="105" height="107" viewBox="0 0 105 107"><g><g><g><path fill="#fff" d="M59.384 97.563a5.216 5.216 0 0 1-5.216 5.216H50.69v-1.739a1.739 1.739 0 1 0-3.477 0v1.74H15.916v-1.74a1.739 1.739 0 1 0-3.477 0v1.74H8.96a5.216 5.216 0 0 1-5.216-5.217v-1.739h55.64zm-1.739-5.216v-17.04a1.739 1.739 0 0 0-3.477 0v17.04H8.96V57.572h14.466a1.739 1.739 0 1 0 0-3.477H7.223c-.96 0-1.74.779-1.74 1.739v36.513H2.007c-.96 0-1.738.778-1.738 1.739v3.477a8.694 8.694 0 0 0 8.693 8.694h45.207a8.694 8.694 0 0 0 8.694-8.694v-3.477c0-.96-.779-1.74-1.74-1.74z"/></g><g><path fill="#fff" d="M90.681 12.366h3.477a1.739 1.739 0 0 0 0-3.478h-3.477a5.216 5.216 0 0 0-5.216 5.217v1.738h-1.739a1.739 1.739 0 0 0 0 3.478h1.739v5.216a1.739 1.739 0 1 0 3.477 0V19.32h1.739a1.739 1.739 0 0 0 0-3.478h-1.739v-1.738c0-.96.779-1.74 1.739-1.74z"/></g><g><path fill="#fff" d="M99.375 1.934H78.51a5.216 5.216 0 0 0-5.216 5.216v3.477a1.739 1.739 0 1 0 3.477 0V7.15c0-.96.779-1.739 1.739-1.739h20.865c.96 0 1.738.778 1.738 1.739v20.864c0 .96-.778 1.739-1.738 1.739H78.51c-.96 0-1.739-.778-1.739-1.739V17.582a1.739 1.739 0 1 0-3.477 0v10.432a5.216 5.216 0 0 0 5.216 5.216h20.865a5.216 5.216 0 0 0 5.216-5.216V7.15a5.216 5.216 0 0 0-5.216-5.216z"/></g><g><path fill="#fff" d="M92.42 71.482a3.477 3.477 0 1 1-6.955 0 3.477 3.477 0 0 1 6.955 0zm-10.433 0a6.955 6.955 0 1 0 13.91 0 6.955 6.955 0 0 0-13.91 0z"/></g><g><path fill="#fff" d="M99.375 55.834H78.51a5.216 5.216 0 0 0-5.216 5.216v20.865a5.216 5.216 0 0 0 5.216 5.216h20.865a5.216 5.216 0 0 0 5.216-5.216v-3.478a1.739 1.739 0 1 0-3.478 0v3.478c0 .96-.778 1.738-1.738 1.738H78.51c-.96 0-1.739-.778-1.739-1.738V61.05c0-.96.779-1.739 1.739-1.739h20.865c.96 0 1.738.779 1.738 1.739v10.432a1.739 1.739 0 0 0 3.478 0V61.05a5.216 5.216 0 0 0-5.216-5.216z"/></g><g><path fill="#fff" d="M41.997 13.444l4.799 2.4-4.8 2.399zm-2.66 9.093a1.739 1.739 0 0 0 1.704.07l10.432-5.216a1.739 1.739 0 0 0 0-3.095L41.04 9.08a1.739 1.739 0 0 0-2.522 1.547V21.06c0 .601.308 1.16.818 1.478z"/></g><g><path fill="#fff" d="M43.736 3.672c6.721 0 12.17 5.45 12.17 12.171 0 6.722-5.449 12.171-12.17 12.171-6.722 0-12.171-5.449-12.171-12.17 0-6.723 5.449-12.172 12.17-12.172zm0 27.82c8.642 0 15.648-7.006 15.648-15.649 0-8.642-7.006-15.648-15.648-15.648-8.643 0-15.649 7.006-15.649 15.648 0 8.643 7.006 15.649 15.649 15.649z"/></g><g><path fill="#fff" d="M61.123 38.447c.547 0 1.062-.258 1.39-.696l5.217-6.955a1.739 1.739 0 0 0-2.782-2.086l-5.216 6.955a1.739 1.739 0 0 0 1.39 2.782z"/></g><g><path fill="#fff" d="M64.948 44.706a1.739 1.739 0 0 0 2.434.348l6.955-5.216a1.739 1.739 0 1 0-2.086-2.782l-6.955 5.216a1.739 1.739 0 0 0-.348 2.434z"/></g><g><path fill="#fff" d="M81.987 48.531a1.739 1.739 0 0 0-2.086-1.39l-8.694 1.738a1.747 1.747 0 0 0 .348 3.477h.348l8.693-1.738a1.739 1.739 0 0 0 1.391-2.087z"/></g><g><path fill="#fff" d="M3.745 21.06h17.387V45.4H3.745zM2.006 48.878h20.865c.96 0 1.739-.779 1.739-1.739V19.32c0-.96-.779-1.738-1.739-1.738H2.006c-.96 0-1.738.778-1.738 1.739v27.82c0 .96.778 1.738 1.738 1.738z"/></g><g><path fill="#fff" d="M15.916 24.537H12.44a1.739 1.739 0 1 0 0 3.477h3.477a1.739 1.739 0 1 0 0-3.477z"/></g><g><path fill="#fff" d="M15.916 31.492H8.961a1.739 1.739 0 1 0 0 3.477h6.955a1.739 1.739 0 1 0 0-3.477z"/></g><g><path fill="#fff" d="M15.916 38.447H8.961a1.739 1.739 0 1 0 0 3.477h6.955a1.739 1.739 0 1 0 0-3.477z"/></g><g><path fill="#fff" d="M41.406 82.94c.23.4.293.876.174 1.322a1.739 1.739 0 0 1-.818 1.043 1.739 1.739 0 0 1-2.364-.626l-3.478-6.033 2.887-1.652h.139zm-22.882-4.868c-.4.231-.875.294-1.321.174a1.739 1.739 0 0 1-1.06-.8 1.739 1.739 0 0 1 .643-2.382l1.512-.87 1.739 3.009zm41.069-29.715a1.745 1.745 0 0 0-3.026 1.739l7.668 13.266-27.82 10.433h-.261l-4.52 2.608-3.008 1.739c-.8.462-1.75.587-2.643.347a3.477 3.477 0 0 1-2.104-1.617l-3.477-6.016a3.477 3.477 0 0 1 1.304-4.59l6.016-3.477 4.347 7.528c.312.54.889.872 1.513.87a1.739 1.739 0 0 0 1.512-2.608l-4.486-7.755L52.43 42.828l.713 1.235a1.745 1.745 0 1 0 3.025-1.739l-1.738-3.008a1.739 1.739 0 0 0-1.2-.835 1.739 1.739 0 0 0-1.426.366L27.461 58.91l-7.407 4.278a6.955 6.955 0 0 0-3.199 7.876l-1.739.991a5.216 5.216 0 0 0 1.252 9.563c.443.117.899.176 1.356.174a5.32 5.32 0 0 0 2.609-.696l1.738-.99a6.746 6.746 0 0 0 4.869 2.051 6.85 6.85 0 0 0 3.477-.939l1.513-.87 3.477 6.034a5.216 5.216 0 0 0 7.112 1.913 5.216 5.216 0 0 0 1.912-7.13l-3.164-5.51 26.08-9.79c.48-.18.854-.561 1.026-1.043a1.739 1.739 0 0 0-.121-1.443z"/></g></g></g></svg>